<mxfile host="Electron" agent="Mozilla/5.0 (Windows NT 10.0; Win64; x64) AppleWebKit/537.36 (KHTML, like Gecko) draw.io/24.7.5 Chrome/126.0.6478.183 Electron/31.3.0 Safari/537.36" version="24.7.5">
  <diagram name="第 1 页" id="BC4lAaD9d5Ugq31IS17T">
    <mxGraphModel dx="954" dy="657" grid="1" gridSize="10" guides="1" tooltips="1" connect="1" arrows="1" fold="1" page="1" pageScale="1" pageWidth="827" pageHeight="1169" math="0" shadow="0">
      <root>
        <mxCell id="0" />
        <mxCell id="1" parent="0" />
        <mxCell id="yA5KAvl37-WxbWNlHDcd-5" value="" style="ellipse;whiteSpace=wrap;html=1;aspect=fixed;" vertex="1" parent="1">
          <mxGeometry x="150" y="100" width="250" height="250" as="geometry" />
        </mxCell>
        <mxCell id="yA5KAvl37-WxbWNlHDcd-1" value="" style="shape=image;verticalLabelPosition=bottom;labelBackgroundColor=default;verticalAlign=top;aspect=fixed;imageAspect=0;image=data:image/png,iVBORw0KGgoAAAANSUhEUgAABIAAAAKICAIAAACHSRZaAAAAAXNSR0IArs4c6QAAAARnQU1BAACxjwv8YQUAAAAJcEhZcwAAFiUAABYlAUlSJPAAAAGHaVRYdFhNTDpjb20uYWRvYmUueG1wAAAAAAA8P3hwYWNrZXQgYmVnaW49J++7vycgaWQ9J1c1TTBNcENlaGlIenJlU3pOVGN6a2M5ZCc/Pg0KPHg6eG1wbWV0YSB4bWxuczp4PSJhZG9iZTpuczptZXRhLyI+PHJkZjpSREYgeG1sbnM6cmRmPSJodHRwOi8vd3d3LnczLm9yZy8xOTk5LzAyLzIyLXJkZi1zeW50YXgtbnMjIj48cmRmOkRlc2NyaXB0aW9uIHJkZjphYm91dD0idXVpZDpmYWY1YmRkNS1iYTNkLTExZGEtYWQzMS1kMzNkNzUxODJmMWIiIHhtbG5zOnRpZmY9Imh0dHA6Ly9ucy5hZG9iZS5jb20vdGlmZi8xLjAvIj48dGlmZjpPcmllbnRhdGlvbj4xPC90aWZmOk9yaWVudGF0aW9uPjwvcmRmOkRlc2NyaXB0aW9uPjwvcmRmOlJERj48L3g6eG1wbWV0YT4NCjw/eHBhY2tldCBlbmQ9J3cnPz4slJgLAABCMklEQVR4Xu3dP1BjSZ4n8Fe7FzEqZ5u2hrJGrNOU1SJiI1ZEXESDJ6wFq8EasA68ktVFxEUAFlSsAWPBGBuwFtWWWAvWQm3BWKitps8ZtTUaa3RxRumMizoje1+rX/3T05/Hk/h8rJQyJapRI72vMvOXT96+fRsBAAAwen+XvAMAAIDREMAAAAAyIoABAABkRAADAADIiAAGAACQEQEMAAAgIwIYAABARgQwAACAjAhgAAAAGRHAAAAAMiKAAQAAZEQAAwAAyIgABgAAkBEBDAAAICMCGAAAQEYEMAAAgIwIYAAAABkRwAAAADIigAEAAGREAAMAAMiIAAYAAJARAQwAACAjAhgAAEBGBDAAAICMCGAAAAAZEcAAAAAyIoABAABkRAADAADIiAAGAACQEQEMAAAgIwIYAABARgQwAACAjAhgAAAAGRHAAAAAMiKAAQAAZEQAAwAAyIgABgAAkBEBDAAAICMCGAAAQEYEMAAAgIwIYAAAABkRwAAAADIigAEAAGREAAMAAMiIAAYAAJARAQwAACAjAhgAAEBGBDAAAICMCGAAAAAZEcAAAAAyIoABAABkRAADAADIiAAGAACQEQEMAAAgIwIYAABARgQwAACAjAhgAAAAGRHAAAAAMiKAAQAAZEQAAwAAyIgABgAAkBEBDAAAICMCGAAAQEYEMAAAgIwIYAAAABl58vbt2+R9ACNzdXW1tbXVbDaTHQBMlmKxWCwWoygqlUqfffZZoVAol8vd9zMBrq6uXr169fvf/359fT3ZxwcIYMBo1ev1vb29+K15ZmZG+gIgiqJyuVwoFOKbzWbTB0TOFYvFnZ2d7qz17NmzVqv1d3/3d//2b/8mg/VIAANGqNVqzczMdDqdKIrCu83BwcH29nZyHAAwDgqFwps3b0K71Wo9e/bs3fv5OAEMGKFqtXp0dBTWn9zd3SW7AZhc8YxWo9Fot9tRFH333XdRFLXb7UajkRzNmNjc3Dw+Pg7t+FM+ECt6JIABo1Kv15eWlsL0V61WW15eTo4AAMbWP/zDP/yf//N/Qnt1dfX8/Dw5gvcRwICRaDabc3Nz4SvPcrl8c3OTHAEAjK3b29v5+fnQrlQqtVqte0cfHyGAAcPX6XTm5+fDCpPp6embmxsFrwBgYrTb7bm5ubhoyps3b6Sv3jkHDBi+tbW1kL4KhcL5+bn0BQCTZGNjo7tkpfSVigAGDNnu7u7FxUVoHx4eLiwsJEcAAGPr6Ogo/qCnD5YgAsN0cXGxsrIS2i9evDg8PEyOAADG1u3t7eLiYqiwFRMoUhHAgKFpNBrz8/PhTXlhYeHy8tKaBACYGN1bv2ZnZ+/v78P9AkUqliACw9Fut1dWVkL6KhaLqiEBwISJt34VCoVarZbspjcCGDAEnU5nZWUlflO+vLycmppKDgIAxlb3Hu/j4+PZ2dnkCHojgAFDUK1W6/V6aJ+fn3tTBoBJsru7u7e3F9rr6+vr6+vJEfTMHjBgUCcnJ1tbW6G9v7//8uXL5AgAYGxVq9Wjo6PQLpfL19fXYZfBkydPwp0CRSoCGDCQer2+tLQUtn4tLy9bEQ4AE6PT6WxsbLx+/TrcrFQq3Xu8BbD+CGBA/5rN5vz8fKvViqKoVCrd3NwovAEAk6Hdbi8tLd3e3oaby8vL5+fn3R/0Alh/7AED+hQKb4T0NT09rewhAEyM8B1rnL5evHjhg35YBDCgTxsbG41GI5Q9PD8/LxaLyREAwBgKB3vGx3wdHh4eHh4mB9EvAQzox8HBQbwi/PDwcGFhITkCABhDV1dX8f6C8B3rixcvkoMYgAAGpHZ1dbW9vR3am5ubm5ubyREAwBg6ODiIa2tNTU1dXl6urq4mB71PvV5fXFw8OztLdvAORTiAdO7v7+fn59vtdhRFCwsLl5eXVoQDwLi7v7/f2NiIN30Vi8VarVYqlZLjusRFOP7yl7/MzMyE2CZcfJIZMCCFdru9srIS0lexWExUQwIAxtHBwcHc3FycvkJl44+nr257e3shffX+kMfMDBiQwtLS0tXVVVgUnuqtGQDIocTEVxRFL1++3NnZ6eUL1ngGLFar1ZaXlxN3kmAGDOjV9vZ2SF9RFJ2enkpfADDWjo6O3p342t/f7yV9vatSqUhfvRDAgJ68fv364OAgtF++fNnjllwAIIc6nc7a2lq1Wg1LBwuFwv7+/t3dXblcTg7tTaVSqdVqyXt5H0sQgU8L54GE9+hKpXJ5eZkcAQCMiWazubKyEg7zjKKoXC6fnp7Ozs4mx31KvARxamrqL3/5S3/zZo+QGTDgE1qt1srKSkhfs7Oz5+fnyREAwJi4uLiYm5uL09fm5ub19XUf6SuKov/23/5baCwsLEhfvRPAgI8JSxSazWb4fqtWq01NTSUHAQDjYHd3N65mXCgUTk9Pj4+P+85O//iP/xgaX331VbKPDxPAgI+pVqv1ej20z8/P+/uGDAB4WOEgmb29vXCzWCze3Nysr68nx/Vsd3f3f/2v/xXaCwsLyW4+TAADPujk5OTk5CS09/f3K5VKcgQAkHuNRmNubu7i4iLcXF5evru7G6Sa8e7ubpzlKpXKIE/1CAlgwPudnZ1tbW2F9urq6suXL5MjAIDcOzs7m5+fD7sJoija2dkZcENBIn0pfpiWKojAe5ydnW1sbIR2OBWk7wXiAMCD6HQ6W1tbZ2dn4WbYyz3gcsF305crhLTMgAFJifR1fX3tvRUAxktYdhinr3K5fHd3J33lgQAG/Mq76WuQVQoAQPZOTk7m5+fv7+/DzVBrvlgsJselIX0NiyWIwC+kLwAYa51Op1qtxjW0pqamjo+PV1dXk+NSOjk5iXeGS18DEsCAn0lfADDWWq3WysrK7e1tuDk7O1ur1YZyhMyzZ89arZb0NRQCGBBFUXR1dbW0tBTa0hcAjJ3b29uVlZUQk0IF49PT02ElpSdPnoTGmzdvhvWcj5Y9YEDUbDbX1tZCW/oCgLFzdna2uLgYp6/Dw8Pz8/NhJaV4QWMURcN6zsfMDBg8du12O96nWywWb25upqenk4MAgLxqNBrz8/OdTmdYtea7tVqtmZmZ8OSrq6vn5+fJEaRkBgweu42NjZC+CoVCrVaTvgBgjHQ6nY2NjRCQSqXSDz/8MMT0FUXRq1ev4ic/PT1NdpOeAAaP2vb29sXFRWifnp6WSqXkCAAgx/b29hqNRvgi9fz8fLhfpLZarXj94c7OjvWHQyGAweP1+vXrg4OD0H758uXgNWoBgCxVq9X4o3xnZ2coBQ+7dU9/LS8vJ7vpiz1g8Eh1rxevVCqXl5fJEQBAXrXb7bW1taurq3CzXC7f3NwkBw2m2Ww+f/48XCrUajUBbFjMgMFjFM4JCW+ps7OzNtQCwBhpNpvz8/Nx+lpeXr6+vk4OGli8taxcLktfQySAwaPT6XTW1taazWZcK0nReQAYF/V6fW5uLhTQCpsIRnEy8sHBQb1eD1vL1N4YLgEMHp1qtRreUqMoOj8/H/p6cQBgRM7OzpaWltrtdlx1Y39/PzloYPf393t7e6E9iq1lj5w9YPC4nJycbG1thfb+/v7Lly+TIwCAXDo7O9vY2Ajt6enpWq1WLpeTg4Zhfn7+9vZ2RFvLEMDgEbm6ulpaWgptZykCwBjpTl+lUqlWqxWLxeSgYTg4ONje3g4zbHd3d6a/hk4Ag8eiu+xhqVS6ubkZ+npxAGAUEunr+vp6dPu3nz171mq1rJQZHQEMHoVQLim8nxaLxZubm+Ee1AgAjMjR0VG1Wg3tUaever2+uLjYfY+wMHSKcMDka7fbS0tLIX1NTU1dXl5KXwAwFnZ3dzNLX1EUffvtt4l7njx5kriHAQlgMOE6nc7KykooVlsoFGq1msXcADAWdnd342qE5XJ51OkriqKLi4vkXQybAAYTbmNjIy46f3p6urCwkBwBAORPd/qqVCoZpK96vR7WyzBSAhhMsu3t7devX4f2/v7+6upqcgQAkD+J9DWKo5bf9e76Q0ZBEQ6YWN1Hfm1ubh4fHydHAAD58yDpq16vLy0thWrJCfLCcJkBg8l0dnYWp69KpSJ9AcBYeJD01Ww219bWQvoa0eHOxMyAwQRKnBbiyC8AGAsPkr46nc7i4uLt7W0URdPT03d3d8+ePeseIC8MlxkwmDTvntWYwXs3ADCgB0lfURRtbW2F9BWqJTurZtQEMJgo76avUVdMAgAG91Dp6+jo6OzsLLQPDw+tP8yAJYgwOaQvABhHD5W+7u/v5+bmwtav7npdicOX5YXhEsBgQkhfADCOHip9RVE0Pz8fFh+GU57jnyuAjZQliDAJpC8AGEcPmL4ODg7irV+np6eZ/VzMgMHYk74AYOx0Op2NjY3Xr1+Hmxmnr+7Fh/v7+y9fvuzuNQM2UgIYjDfpCwDGTqvVWllZCRNQ2aevxOLDm5ubRK8ANlKWIMIYk74AYOzc3t7Ozc3F6WtzczPj9JVYfJjsZsQEMBhX0hcAjJ3Xr18vLi62Wq2Qf46Pj4+Pj7NMX/f39/Gus52dndnZ2eQIRswSRBhL0hcAjJ3unVfT09O1Wi37c7c+vvgwsARxpMyAwfiRvgBg7HQ6nbW1tZC+SqXS3d1d9unL4sM8EMBgzEhfADCOtre3G41GCD+1Wm16ejo5YvT+8Ic/hIbFhw/IEkQYJ9IXAIyjer2+uLgY2qenp+vr68kRo9f9b/h4BLAEcaQEMBgbFxcXKysroS19AcC4aLVac3NzofDG6urq+fl5ckQmeo9VvY+kD5YgwnhoNBpra2uhLX0BwBjZ2toK6atYLB4fHye7M1GtVpN38UAEMBgDzWZzZWUlbNstFovSFwCMi93d3YuLi9A+PT3N/hO83W4vLS0dHR0lO3ggAhjkXafTWVlZaTabURRNTU1dXl5m/94NAPRhd3e3+9CthYWF5IgRazab8/PzV1dXyQ4ejgAGebe2ttZdNEnNIgAYC93pq1KpvHz5MjlixOr1+tzc3P39fbKDByWAQa5Vq9V43cLh4WH235wBAH1IpK9arVYoFJKDRun169dLS0vtdjt8h/tQlT94lyqIkF8nJydbW1uh/eLFi8PDw+QIACB/Hjx9dTqdzz//POwen56ertVq5XK599qGvY+kD2bAIKcODg7i9LW8vCx9AcBYePD0Fb7DjdPXzc1NuVxOjkgjPBXDIoBBHm1tbW1vb4d2qVSybAAAxkIe0lcURX/84x9D45tvvikWi8nulOwiGy4BDPIl1Dw8OTkJNyuVys3NzYO8dwMAqeQkfV1cXITIVCgUVldXk93phVLMDIsABjnSbrcXFxfjqhvr6+uXl5cP8t4NAKSSk/QVRdG///u/h8b6+vr09HSyOz0BbLgU4YC8CKcth4rz4bSQ3d3d5CAAIH/yk77u7++fP38e2nd3d6VSKe7qvbRG7yPpgxkwyIVGo7G4uBinr9PTU+kLAMZCftJX9+6vhYWF7vRFfpgBg4dXr9dXVlbikzpqtVqlUkkOAgDyJ1fp6+rqamlpKbRrtdry8nJ3b+/zWr2PpA8CGDyws7Ozra2tuFbs5eWl76sAYCzkKn2F1TTh+9xyuXxzc5MY0Hus6n0kfbAEER5Ms9lcWlra2NgI6Wt2dvbm5kb6AoCxkKv01Wq14tU0xWLRATZ5JoDBwzg6Onr+/PnV1VW4Gb6pGvykDgAgA7lKX51OZ2lpKdQqDHsZXFHkmQAGWet0Omtra9VqNUx8FQqF/f39m5ubqamp5FAAIH9ylb6iKFpbW4vreNVqNatpck4Ag0w1m835+fnXr1+Hm+Vy+e7u7uXLl8lxAEAu5S19VavV+ATRw8NDdbzyTwCD7FxcXMzNzcXfUW1ubl5fX8/OzibHAQC5lLf0dXJycnR0FNovXrx48eJFcgT5owoiZKT7LbtQKBwfH6+vrycHAQB5lbf0dXZ2trGxEdqVSuXy8jI54td6r23Y+0j6IIDByLXb7Y2NjXh5QLFYtD4bAMZLntNXqVS6ubn55L+n91jV+0j6IIDBaDUajZWVlVCYKIqi5eXl09NT9TYAYIycnJxsbW2Fdg7T1/X1dS+XFr3Hqt5H0gcBDEbo9evX8TFfURTt7Ozs7u4mBwEAOdZqtWZmZsKn+fimr1SxqveR9EERDhiVo6OjtbW18H49NTV1fX0tfQHA2Hn16lX4NC+VSuObvsgPM2AwEt0rxcvl8vn5uSMRAWDsdE9/1Wq15eXl5IgMdf9j+khfvc9r9T6SPpgBg+FL7NO9vr6WvgBgHHVPfz1s+oqiaGtrK/xjZmdn06Yv8sMMGAxZ3qokAQD9ubq6WlpaCu0Hn/7q/sfc3NyUy+XkiE/pfV6r95H0QQCDYTo6OqpWq6EtfQHA+Go0GouLi+12O+wmuLm5SY7IUKfTmZubu7+/j6JofX399PQ0OaIHvceq3kfSBwEMhqbRaMzPz+enShIA0J9WqzU/Px9OkSkWiw++m+Dg4GB7ezuU9frhhx+mp6eTI3rQe6zqfSR9EMBgODqdzvz8fKPRCN+TXV9fS18AMI66P9MLhcLNzU2pVEoOylB37Y3Dw8MXL14kR/Sm91jV+0j6oAgHDMf29nb8Tn16eip9AcCYWltbC5/pYevXw6av7tobpVKp7/RFfghgMKh6vf78+fOjo6Nwc2dnZ3Z2NjkIABgH1Wr14uIitA8PDyuVSnJEtq6uruJ/z/HxcbKbMWQJIvSv1WpVq9XXr1/H91QqlcvLy18NAgDGRHcp4xcvXhweHiZHZGsotTdivS8s7H0kfTADBn06Ozt7/vx5nL6mpqb29/elLwAYR/f39/Pz890HyTx4+grVlUP6CpcZyW7Gkxkw6Ef3WRxRFK2urh4eHvZXkggAeFhHR0fb29thn1V+imnV6/WlpaXBa2/Eep/X6n0kfRDAILXucvOzs7PHx8cLCwvJQQBA7rXb7b29vXgjd6FQ2NnZefnyZXJc5prN5tzc3HBPIes9VvU+kj4IYJBOs9mcn59vtVrhYJCbmxsTXwAwji4uLjY2NkLICTnn9PQ0D5W02u32/Px8WHw4PT19c3MzlFPIeo9VvY+kDwIYpND9hjg1NXVzc5OHt2kAoA/Pnj0L36iGTV+1Wu3Blx0GS0tLV1dXYUbu+vq6XC4nR/Sl91jV+0j6oAgH9KrT6aysrIT0VSgUarWa9AUAY6rVasXp6/T09PLyMifpq1qthvQV/mHDSl/khwAGvdrY2KjX66F9enpq3xcAjK9Xr16FRqlUWl9fT3Y/kJOTk3hD2suXL1dXV5MjGH+WIEJPtre3Dw4OQnt/fz8P23MBgP40m83nz5+Helq1Wm15eTk54iGcnZ1tbGyE9vLycq1WS44YTO8LC3sfSR8EMPi0o6OjarUa2pubm86hB4CxNj8/f3t7O8QCg4PrTl+lUunm5mboSyJ7j1W9j6QPliDCJ1Sr1Th9VSoV6QsAxlq1Wg3pq1AonJ6eJrsfQiJ95eEUMkZHAIMPClU34qXYpVJp6IsBAIDM3N/fz8/Px5/sOzs7eain9W76mpqaSg5igliCCO/XarWWlpYajUa4WalUzs/PvSECwJg6Ojra3t4O+77CJ/vl5WVyUOayTF+9LyzsfSR9MAMG79FoNObn5+P0tbm5eXl5Obo3RABgpHZ3d6vVakhfhUJhf3//wdNXu93e3d3NLH2RH2bAIOnq6mptba3dboebh4eHL168SA4CAMbE7u7u3t5eaJfL5dPT0wdfeXhxcbGxsRFfbGSTvnqf1+p9JH0QwOBXulcCFAqF8/PznJSmBQD60J2+KpVKrVZ78PoWrVZrZmYmXgxZLpezWWjTe6zqfSR9sAQRftGdvqanp29ubqQvABhfOUxfURRtbW2F9DU9PX16enpzc5NB+iI/zIDBzxK7YGu1WrFYTA4CAMZEPtPX1dXV0tJSaN/c3JTL5eSIkel9Xqv3kfRBAIPo3fSVwTpsAGB0jo6Ouo/xzEn66nQ6c3Nz9/f3URStr69nfApZ77Gq95H0QQAD6QsAJkr3LFN+0lcURdvb2wcHB1EUTU1N/fDDD9PT08kRo9R7rOp9JH2wB4zHTvoCgElyf3+/trYW2gsLC/lJX7u7uyF9hTOgM05f5IcZMB61g4OD7e3t0Ja+AGDctdvtubm5ZrMZRVGxWLy7u8vJJ3tiQ9qDnELW+7xW7yPpgwDGI3V/f7+xsXF7extuSl8AMO46nc7S0lK9Xg9nydzc3JRKpeSgh3BycrK1tRXaD7gksvdY1ftI+mAJIo/RwcHB3NxcnL7K5bL0BQDjbnt7O6SvKIrOz89zkr5arVYOy4HwgAQwHpf7+/v5+fnt7e1w/kahUNjf33f+BgCMu5OTk6Ojo9De39/PyUme7Xa7Wq2Gq45wyI30hSWIPCIHBwd7e3vdB8+fnp7Ozs4mxwEAY6W7pNby8nKtVkuOeAgnJyfb29vtdjvcrNVqDxsLe19Y2PtI+iCA8SgkdnwVCoWdnZ2XL18mxwEA4yZR0Pjm5iYPs0zdVTcesPBGt95jVe8j6YMliEy+s7OzxI6vu7s76QsAJsC7x8nkLX0Vi8XT09MHT1/khxkwJlyj0Zifn493fJn4AoCJ0V1dMD8FjRMV5/Oz76v3ea3eR9IHAYxJ1ul05ufnG41GeF8+Pz+34wsAJkC73d7Y2Li4uAg385O+clJx/r16j1W9j6QPAhiTLP4KqlAo3N3dSV8AMAHq9fra2lqr1Qo3y+Xy5eVlHtJXq9WamZkJ627ylr5SxareR9IHe8CYWKHmYWjv7OxIXwAw7jqdzvb29uLiYpy+Xr58mZO5ryiK4mLLKs7zEWbAmEzVajU+DKRcLt/c3CRHAABjJVHTeHp6+vz8fGFhITnugXRv/XrwivPv1fu8Vu8j6YMZMCZNp9PZ2NiI01ceqr4CAAN6/fp1d03j5eXlH374IZ/pq1Kp5DB9kR9mwJgonU5nZWXl6uoq3FxdXT09PbUAAADGWr1eX1paimsaHx8fr6+vJwc9nNyWPeyWalIr1WDSEsCYHO12e3FxMdQ8jKJoc3Pz+Pg4OQgAGCvNZnN+fj5s+sphTeOxSF9pM1WqwaRlCSITIrw7x+lrZ2dH+gKAcdfpdOKCh9PT05eXl9IX404AYxI0Go3FxcX7+/tw8/T0dHd3NzkIABg3W1tbYd9XoVCo1WrT09PJEQ9H+qI/Ahhj7/b2dnFxsdlsxu/OuVoXDgD05+jo6OzsLLQPDw/L5XJyxMORvuibPWCMt6urq5WVlbArd2pqqlar5acgEgDQt+7CG3nb1z2O6SvVtq5Ug0lLAGOMnZ2dbWxshHZYF14qlZKDAIBx0114o1wuX19f5yfhjGP6SpupUg0mLQGMcdWdvorF4vX1dbFYTA4CAMZNp9NZXFwMW7+mp6fv7u7ys/VrTNNX2kyVajBp2QPGWDo6OorTV6lUuru7k74AYDLktvDG+KYvckUAY8yEcrTVajXcLJVK19fXU1NTyXEAwLhpt9vVajWfhTekL4bFEkTGSavVWllZCd+KhUXhl5eX0hcAjLt2u310dPSHP/yh3W6He3JVeGMC0leqVYWpBpOWAMbYuL29XVlZCftxw/vy4eHh2L39AQAJV1dXa2trcfTKW8iZgPSVNlOlGkxaAhjj4ezsbGtrK9SiLRQKh4eHm5ubyUEAwLhptVozMzPhIz4U1trZ2cnPkZ5bW1snJyehPb7pK22mSjWYtOwBYwyEgofhrXl6evr6+lr6AoAJEDZ9xR/xp6enf/7zn3OSvjqdzsrKymSkL3LFDBh5111uvlwu56oaEgDQt9evX29tbcUrD2u12vLycnLQA2m1WktLS41GI9xcXV09PT0d6/SValIr1WDSEsDIte705ZsnAJgYjUZjfn4+XnlYqVQuLy+Tgx5Io9FYWVlpNpvh5suXL/f395ODxk2qTJVqMGlZgkh+SV8AMJE6nU68uaBYLJ6enuYnfV1dXS0uLsbp6/j4eALSF7kigJFHjUajWq1KXwAwkQ4ODsLqvkKhcHl5mZNNX+HL36WlpbAqcmpq6vLy0rZzhs4SRPLl4uKiWq3GXztJXwAweZ49exbOldnf33/58mWy+4F0L70pFou1Wq1UKiUHja1UqwpTDSYtAYwcOTs7q1aruT0GBAAYXL1eX1xcDCHnz3/+c7L7gXSnr1KpVKvVisVictA4S5WpUg0mLUsQyYvd3d2NjY04fW1ubl5fX19eXkpfADABrq6uZmZmnjx5EtJXKC2YHPRAEunr+vp6wtIXuWIGjFw4OjqqVqvxzc3NzePj41+NAADGWbzsMHZzc1Mul7vveRDdFyEhfU1NTSUHjb9Uk1qpBpOWGTAeXqPR2N7eDu1KpfLmzRvpCwAmyfb2diJ9LSws5CF97e7uPob0Ra6YAeOBdTqd+fn5UAqpXC5fX19bcwgAE+P+/n5jY+P29jbcXF1dPT8/Tw56ILu7u3t7e6FdLpcvLy8nOH2lmtRKNZi0zIDxwLa3t+NCtON+xjwA0O3o6Ghubi5OX5VK5fT0NDnogXSnr0qlYu6LzAhgPJh6vf78+fOjo6Nwc2dnZ3Z2NjkIABhPYXVfOG25UCjs7+/np7bW9vZ2d/pScpksWYLIA2i1WtVq9fXr1/E9lUrl8vLyV4MAgLF1cnKytbUV2uVy+fT0NCdfsyaWRD6e9JVqVWGqwaQlgJG1169fb21txeXmp6amvvnmm/wcwggADKjVas3MzIS5r1wlnLOzs62trfAPy9u/bdRSZapUg0lLACNT9Xp9aWkpfuNbXV09PDycnp5OjgNGrNPphC+AG41Gu93+61//en9/nxzUpdlsNpvN5L0AUVQsFpeXl7/55pv4A71arYYtBqVS6ebmJicJ5/b2dnFxMV4SubOz86i+/02VqVINJi0BjOw0Go3FxcUw9zU7O3t8fLywsJAcBAzP/f19q9Vqt9uh1M2f/vSnTqcjSgGjUCgUNjc3v/nmm06n8/z585BzarXa8vJycuhDaLfbc3Nz4d1vdna2VqvlZElkZlJlqlSDSUsAIyPNZnNxcTF+47u5uVFrCAb3oYmser2eHAqQuWKxuLOzs76+nuzI3MrKysXFRQiKd3d3jy19pc1UqQaTlgBGFtrt9uLiYvgOvlgsXl9fF4vF5CDgA0YxkTU9PR2uP7766qvwtcj09PTU1FSpVEoOBfioi4uLvb298Ab1rkKh8ObNm+S9GWo0Gn/4wx/Ozs7CzdPT0zwEwuylylSpBpOWAMbIdTqdpaWl8H381NTU9fW1KzxIGNFEVqlUmpqamp6e/uKLL6IoCot+Q9ZKDgUYzPb29r/+67/+v//3/xL3b25uHh8fJ+7MxsXFRbVa7f6uan19PT8HkWUsVaZKNZi0BDBGbm1tLVScLxQKtVqtUqkkR8CYCDNRyXujKEzzfujb33jOKnlvFA1e3KJQKJTL5VDl+Te/+U2xWCwWi/GdAJl59uxZ/A6Zh9Nl2u328+fPu9+0y+Xy9fV1TiqCZC9Vpko1mLQEMEYrroMURdH5+fnq6mpyBPQrnjV6rzCVlLw3iqIo+njFvwEnnUYhXh/45ZdfhmuIQqEQslZyKEDmrq6utra24u+S8rDG7+zsrFqtxp8Cm5ubX3/99SMv/ZUqU6UaTFoCGCN0dHRUrVZDe39//1EVe+Vd7+ald2eN3o1GA04QjZF4feBvf/vbeC/WI79cAMZC99zXg1+sJ85Zzsl0XB6kylSpBpOWAMaonJ2dbWxshPaLFy8ODw+TIxhnt7e3YU1dd6xKxKccTiUN6COTToVC4Z//+Z+T9/6XsBcreW8UdRfDABhTT58+jVdZP+COr/DN7/b2dvyPyU8NxjxIlalSDSYtAYyR6J77Wl5ertVqyRHkzycz1Ud2QD2Uj0wQhamk5L1RFIrBfKQSTFjgl7wXgF+LVx5+/vnnf/vb3x42ekVRtLu7u7e3F9qP8JzlT0qVqVINJi0BjOHrfgesVCq1Ws3lbPbiNBVFUavV6p6Y6i4IkVmmem9ZiFA3ovuedwv0mSACyKeZmZnuJeJ3d3cf+W5r1LqvPcrl8unpqc+OhFSZKtVg0hLAGDLpK63EPqjuZXvff//9h8pIvCvLvVLdMSkOUd0RS2oCmHgHBwfb29vxzQdc8OLaoxepMlWqwaQlgDFM29vbBwcHoT3B74A9Ti59RJZhqUcyFQB9aDQac3NzoZ19wa12u72xsXFxcRFuTvC1x+BSZapUg0lLAGM4EkWH8vwOWK/X/+M//uPi4iJvEWiIEuv9ulf6dQctmQqAwW1sbJydnYVPnzdv3iS7R+b29nZtbS3+NF9YWLi8vMzntUcepMpUqQaTlgDGEJydnW1tbcUzPzlMX51O5+Li4j//8z8vLi56X9SXje4UND09/cUXX7z3fkkJgHzqdDpPnz4N7cwuLBMFD9fX14+Pj3N17ZE3qTJVqsGkJYAxqEajMT8/H94B81Z0qNVqxbkr2dcvk0sAkBBfr2dzYZkoeHh8fKzW/CelylSpBpOWAMZAOp3O/Px8qCFRKpXOz8/zkDru7+8vLi6+/fbbxCG/wezsbKVS+frrr98tygcA9CHLANadvvJz7ZF/qTJVqsGkJYAxkLjqRqFQuLu7y/IdMD6rKi6D8eOPP7ZarQ/VtyiXy19//XWlUsnyHwkAj0FmAeyRlPsahVSZKtVg0hLA6N/JycnW1lZoj67wUQhaIVaFGoPdRQg/rlAoVCqVf/mXf6lUKonTpQCAYXn69Gn4aB7d9cAYlfvKp1SZKtVg0hLA6NPZ2Vm1Wg0FLSqVyuXlZXJEX8K5wPV6/a9//ev9/X2j0eijZsb09HScu7w1A8CoVavVo6Oj0RVCTJTckL76kCpTpRpMWgIY/eie+4qi6M2bN/29CYbprNvb2++//z7EreSIDysWi8ViMaz//uyzz0L92SiKpqamSqVScjQAMDKdTufzzz8f0SRYouRGrsp9jZFUmSrVYNISwEit3W4/f/681WqFm5ubm8fHx8lB7wg7tdrtdqPR+N//+383Go3EEcYfsbCwEOqzl0qlYrEoXwFA3oxoEqw7fZXL5dPTU3u5+5MqU6UaTFoCGOlcXV2tra31sSywR2Feq1wu//a3vy2VSt2F3QGA3BrFaWDd6cuywwGlylSpBpOWAEY6c3NzqRYKftLCwkKpVAqzW+rCA8D4GmItxHa7vbe3F6bUpK+hSJWpUg0mLQGMdLq/i0olHEwcVhKGbVo2awHAuxqNRrPZbDQa33//fWgnR0yEYrG4s7Pz7gHKZ2dne3t73f/V0tdQpMpUqQaTlgDG0FxdXb169er3v//9u2+mAPCYvbsROjkiisK0z4e6JlJit1hi1iuQvoYlVaZKNZi0BDCG5tmzZ61Wa7hbbwFgFEIZ3jDd1G63w9knyUFRFE6hTN7LkHTX8eo+3ib40BQZ/UmbqdKOp3cCGEMzxJXfANCLEJ/iNPXTTz99JC+NS5oKJX+//PLLj9f+Tbvw5ODgYHt7u/ueoX9ex8cxp3rmZrO5tbV1dXUV32PWaxTSBqq04+mdAMbQCGAAjMLFxUW1Wh2L7PQho9gI3cfCk1FfUoeM1+P5NMHBwcHe3l58wrJZr9FJ++qnHU/vBDCGRgADYOhardbMzEx8gT4shUIhlN4tl8u/+c1vwiEog4eiLHVfH/f4yZu4pP7LX/7ygGe93N/fb2xshKlLJyxnIG2gSjue3glgDI0ABsCAwmLC29vb77///vb29pOzXuVyuVAohJmlsHhvampqvHJU3/q4Pk48ZHV19fz8vPuezBwdHW1vb8e52gnLGUj7P0za8fROAGNoBDCAxyzssAqbsr777rs+NlwVCoWPzHTVarXl5eXkvY9YH9fHiYekWr44RN1H2pj4ykza/2HSjqd3AhhDI4ABPAbvVlTPoHh6pVK5vLxM3vu49XF9nHhIj48aokaj8Yc//OHs7CzcNPGVpbT/w6QdT+8EMIZGAAOYAGkXAQ5duVwulUqhBmDYpsV79XF93MdDmBhpX/204+mdAMbQCGAA46g7cTUajfceh9WLUMeiVCp99tlnCwsLj2Qj1gPq4/q4j4cwMdK++mnH0zsBjKERwADGQqPRCJu1vv/++/v7+7SJaxQV1elDH9fHfTyEiZH21U87nt4JYAzHycnJ1tZWaPufCiAPQhmMsGXr//7f/3t7e9vjZi2LAMdCH9fHfTyEiZH21U87nt4JYAxHOA7yYWvaAjxCYQFhFEW3t7edTuf7779vt9v39/fhPblHEtc46uP6uI+HMDHSvvppx9M7AYzhiP9K37x5UygUkt0ADEmz2azX6999912j0ehlOutdpVKpWCyGuBV2bSVHMA76uD7u4yFMjLSvftrx9E4AYziePn0aDm/xf1S3q6urV69e/f73v19fX0/2AfQsDl31er33soShKkaxWPzd734XNm7ZrDVJ+rg+7uMhTIy0r37a8fROAGM4Dg4Otre3Nzc3j4+Pk33jbMAEFVZmPtRJl3zEgK8sfFJ8DHG8GjAsDvzQsEEsLCyEZYS/+c1vQkmMUCQjOY7J0sf1cR8PYWKkffXTjqd3Ahh8zIAJKn7z8oeWNwO+skyw/uaaslQoFBYWFr766quFhQX7tR6zPq6P+3gIEyPtq592PL0TwBiOq6urra2tfF6spBV2RHz55ZcLCwuLi4vhzv7+UgSw3PLS9Cf/4WRSCV28q4/r4z4ewsRI++qnHU/vBDCGY2ZmZoKvxv7+7//+f/7P/7mwsBDW9iS7P8xVfm55aXondPUnXgQYVgbGCwXtwmJY+rg+7uMhTIy0r37a8fROAGM4wh6w5L2TKOxon5qa+vLLL0MxsampqbC7PTnUVX6OxS/Nn//851426nzIUDbwkCvmmhgXfVwf9/EQJkbaVz/teHongEFSqOz8/fff1+v1tCWey+VyqMLvupyJJJxAfvRxfdzHQ5gYaV/9tOPpnQAGH/T69eu1tbUoiv77f//v//RP/9RoNOr1enIQTDqhC/Kpj+vjPh7CxEj76qcdT+8EMPigeF3ly5cv9/f3w52NRqPdbnc6ndvb2yiKfvzxx1arFd9k7NioA4ypPq6P+3gIEyPtq592PL0TwOCDqtXq0dFRFEXHx8ebm5vJ7h7Eb17+0AY33JO7vDTAuOvj+riPhzAx0r76acfTu79L3gH8l1CSIYoi55nmwcbGRr1e39raSnb0JWzVi6Ko0+kk+wAARkYAgw8SwHIlvBzDykvxaxq/ygAAGRDA4IPiMobFYjHZx5iLX1PFKgGALAlg8H6dTidcmhcKBTNgk8cMGADwIAQweL94YuS9Jywz7uIA1vuZywAAgxPA4P3u7+9Dw/rDifTZZ5+FhhkwACBLAhi8nxmwyRbn6p9++inZBwAwMgIYvN+PP/4YGr/73e+SfYw/SxABgAchgMH7mQGbbIpwAAAPQgCD97u9vQ0NAWwiCWAAwIMQwOA96vV6WJlWLBbVoJ9IAhgA8CAEMHiPb7/9NjRWV1eTfUyKkME6nY5tYMAj8fbt2+6bT5486b4JZEMAg/e4uLgIjX/5l39J9jEp4kKI8ZEDAACjJoBBUr1eD8vSisViuVxOdjMp4gAWF1wBABg1AQySrD98JL744ovQMAMGAGRGAIOker0eGtYfTra4vmV85hsAwKgJYJAU5kMKhYL1h5PNEkQAIHsCGPxKfC0eX50PolAohIZa5zkUz4BZgggAZEYAg18ZbgBbWFgIjbisIvkxNTU1NTUVRVG73VaJHgDIhgAGvzLcAPb111+HRlzYg1wxCQYAZEwAg1+JA9jvfve7ZF96y8vLoREX9iBXbAMDADImgMGv/PTTT6ExlBmwsMKN3FKJHgDImAAGvzLcJYjknEr0AEDGBDD4lXgmRADLlU6nExpxYcmhsAQRAMiYAAa/aDaboV58sVicnp5OdvNw4jr+w31dFOEAADImgMEvrq6uQqNUKiX7eFAjWho6NTUVptSUoQfGy5MnT7pvvn37tvsmkGcCGPziP//zP0Pjq6++SvbxoOIZsOEGsO7FjQAAGRDA4Be3t7ehER+gPLh4z5I5lkHEM2DDXYIIAJAxAQx+1ul0wjRLoVAY4hLE+KnidEcf/vrXv4bGUM5nAwB4KAIY/GxE9Q/L5XJoNBqNZB89G1ERDgCAjAlg8LN4kVtcGW8ovvzyy9D405/+lOyjZwIYADAZBDD42YhmwOIliGbABjGiKogAABkTwOBnP/30U2h88cUXyb4BxAHMUb9DYQYMABhrAhj8bEQzYORcXKZSPXoAIAMCGPwsnqEaYglE8i/e8hcncACA0RHA4GfKPDxO8YSnNaIAQAYEMIjCKclhBZr09dgIYABAlgQwiEIAC41RBLB4l1H8U8iP+GTnuAoLAMDoCGAQdc9+TE1NJfsGFm8qs8soh8yAAQBZEsAg6t4ANooSiC7x88yrAwBkSQCDaNRLEOODxcyA5VBcBVEAAwAyIIBB1D0D9tlnnyX7BhZf4v/444/JPnozuu1zhUIhpO7R/QgAgJgABlF3AYZRzIBZ5Da4kaajuEoKAMCoCWAQdV/fj2IPmKN+AQAIBDCIupcgjqIK4tTUVJhjGek0DgAA+SeAQdQdwEaxBDGKonDKMwAAj5wABr8yogAGAAACGICloQBAdgQw4LETwACAzAhgAAAAGRHAAAAAMiKAAQAAZEQAAwAAyIgABgAAk+zJkyfdN9++fdt9k4wJYBCpgwcAQDYEMIgEMAAAsiGAAQAAZEQAAwAAyIgABgAAkBEBDAAAICMCGAAAQEYEMAAAgIwIYAAAABkRwAAAADIigAEAAGREAAMAAMiIAAYAAJARAQwAACAjAhhkoVAohMb9/X2yDwCAR0MAgyxUKpXQ+OMf/5jsAwDg0RDAIAu///3vQ+P169edTifZDQDA4yCAQRaWl5enp6ejKGq1WhcXF8luAAAeBwEMMvI//sf/CA2rEAEAHq0nb9++Td4Hj8+TJ09CY3R/Ea1W69mzZ6E9up8yqUb6Ao30yQFGIX7jCnp/++r7gYy1Pl73Ph5CjwQwiDK7BM/mp0ykkf7qRvrkAKMwyMXxII9lTPXxovfxEHpkCSIAAEBGBDAAAICMCGAAAAAZEcAgO4VCITTa7XayDwCAR0AAg+yUSqXQuL29TfYBAPAICGCQnXK5HBqNRiPZBwDAIyCAQXa+/PLL0PjTn/6U7AMA4BEQwCA78RJEM2AAAI+Tg5ghyvIo3sx+0IQZ6e9tpE8OMAqDHJI7yGMZU3286H08hB6ZAQMAAMiIAAYAAJARAQwyFR8FZhsYAMAjJIBBppaXl0Njb28v2QcAwKRThAOiLMswNBqNubm50B71z5okI32BRvrkAKMwSIGEQR7LmOrjRe/jIfRIAIMo40vwLH/WxBjpL22kTw4wCoNcHA/yWMZUHy96Hw+hR5YgAgAAZEQAAwAAyIgABgAAkBEBDMi7TqcTGnERfwCAMSWAQdR9ZR9f65MfzWYzNIrFYrIPAGCsCGAQRVE0OzsbGvf398k+HpoABgBMDAEMou4r+/han/wQwACAiSGAQZRxAIuXO7ZarWQf7/PTTz+Fxu9+97tkHwDAWBHAIOq+so+v9UdnYWEhNC4uLpJ9vI8ZMABgYghgEGU8A/b111+Hxrfffpvs433iqUIBDAAYdwIYRBkHsOXl5dCo1+vJPt4nrowigAEA4+7J27dvk/fB49PpdJ4+fRpF0dTU1N/+9rdk97A9efIkNPwBflL80hQKhTdv3iS7h8HLAYyd+I0rSPX2NchjGVN9vOh9PIQemQGDKFzcT09PR1HUbreTfTyoePorPioAAGB8CWDws7g4IbmiAgcAMEkEMCDXzIABAJNEAANyzSFgAMAkEcCAXDMDBgBMEgEMyLVGoxEaAhgAMAEEMCDX4rqUoUwlAMBYE8AAAMZJ4oAmYLwIYAAAY8wJuTBeBDD4mSOYAQAYNQEMfiaAAQAwagIYAABARgQwAACAjAhgAAAAGRHAAAAAMiKAAQDAI9LLUXLdxxs46mC4BDAgvxqNRmhMTU0l+wCAvrx9+7bHDBYkOxiMAAbkV71eD42FhYVkHwDQr5DBeolhvYwhFQEMyK/vvvsuNL766qtkHwDQm/euJwyzWyGGSVlZEsCA/DIDBgBD8aH1hPGdcRJLSIxncE/efRngcYrfYjL4o8jyZ421bH5R2fwUgGFJXBOnfe8a8OHAgMyAAQAAZEQAAwAAyIgABj8rFAqhcXBwkOwDAIBhEMDgZ5ubm6Gxt7eX7AMAgGFQhAN+1ul0nj59Gtqj/rtQ9aFH2fyisvkpAMMyYBWNAR8ODMgMGPwsXoIIAAAjIoABAABkRAADAADIiAAG5FSr1UreBQAw5gQwIKdevXoVGqVSKdkHADCeBDAgp16/fh0aOzs7yT4AgPGkDD38IrNy5Jn9oLH29OnTTqeTwW/JywGMlwHryA/4cGBAZsCAPGq1WiF9TU1NJfsAAMaWAAbk0e3tbWjYAAYATBIBDMijRqMRGgIYADBJBDAgj77//vvQ+Od//udkHwADSGz6SmwJA0ZNAAPyqF6vh4YZMABgkqiCCL+Iy+79+c9/LhaLye7hUXbvk7L8FWX5swAGN3gZw8GfAeibGTD4RblcDo14+gUAAIZIAINffPXVV6Hx3XffJfsAAGBgAhj8YmFhITTMgAEAMAr2gMEvOp3O06dPQ3ukfxo2HX1Slr+iLH8WwOAG38E1+DMAfTMDBr8oFArJuwAAYHgEMAAAgIwIYAAAABkRwAAAADIigAEAAGREAAMAAMiIAAYAAJARAQwAACAjAhgAAEBGBDAAAICMCGAAAAAZEcCAR63RaITG1NRUsg8AYNgEMPiVQqEQGu12O9nHJKrX66GxsLCQ7AMAGDYBDH6lVCqFxv39fbKPSfTdd9+FxldffZXsAwAYNgEMfqVYLIZGs9lM9jGJzIABAFkSwOBXvvjii9AwA/ZIxGtN48lPAIDREcDgV2ZnZ0Pjxx9/TPYBAMBgBDD4FUsQAQAYnSdv375N3gePWLvd/vzzz0NR8r/97W/J7iF58uRJaPgD/JDMfkWZ/SCAYYnfuII+3r4GfwagbwIYJD19+rTT6Yz0A8lF/ydl9ivK7AcBDMvg8WnwZwD6ZgkiJIX0BQAAQyeAAQAAZEQAAwAAyIgABjwuFxcXMzMzMzMzZ2dnyT4AgBFThAOSMqjKkMGPGHcj+hW1Wq2ZmZmwza9QKLx582ZEPwhgdAYvoTH4MwB9MwMGPCKvXr2Ki6ysr68nuwEARswMGCRlMCWSwY8YdyP6FT179qzVakVRVKvVlpeXR/eDAEZn8PmrwZ8B6JsABkkZXJFn8CPG3Yh+Re8+7bv3AOTc4PFp8GcA+mYJIgAAQEYEMCCPCoVC8q6B1ev10CgWi8k+AIBMCGBAHu3s7ERRtLm5GW5eXV0tLi4OWDj+j3/8Y2isrq4m+wAAMmEPGCRlsCkogx8xYULxjFA4PtnXg/v7+42Njdvb23Dz5uamXC6HttcCGDuD7+Aa/BmAvglgkJTBFXkGP2LCDPIbu7q6WllZiavPLy8v12q1uPfp06ehq49nBngQg8enwZ8B6JsliMCEq1ar8cnL+/v73enr3bWOAAAjZQYMkgaZbOlRBj9iwgzyG4sf+8MPP8zOzia7AcbN4PNXgz8D0DcBDJIGudbvUQY/YsIM8hsb5LEAOTR4fBr8GYC+WYIIAACQEQEMAAAgIwIYJMVHALfb7WQfDyR+URqNRrLvo1qtVvIuAICHI4BBUqlUCo342Cge3PLycmisrKykOo751atXoRG/rAAAD0gAg6T4iN60ky2MzjfffBMazWZza2urxwzWarVOTk5CO5SbBwB4WAIYJH355Zeh8ac//SnZxwMplUrxUV2dTqeXDHZ2djY/Px9OACuVSvEcGgDAAxLAICleq2YGLFeOj4/39/dDO2Sw5Iguu7u7GxsbzWYz3DT9BQDkhHPA4D2ePn0aZk7+9re/TU1NJbsH5mSqvh0cHGxvbyfv/ahKpXJ5eZm8F2BsDX6K1+DPAPTNDBi8hzocufXy5csXL14k7/2ASqXy5s0b6QsAyA8BDN5DHY4829/fX19fT977jtXV1VqtFtevBwDIAwEM3kMdjjwrFAqnp6dvP+X8/Fz6AgDyRgCD9xhpHY64MkSxWEz2AQAw0QQweI84gMVhaYja7XZojKK8BwAAeSaAQdbiADY9PZ3sA4CPUsAQxp0ABlmLZ9UEMACAx0YAg6yZAQMAeLQEMMjaX//619D47W9/m+wDAGCiCWCQtVarFRqKcAAAPDYCGGQtDmDK0AMAPDYCGLxffIZvnJeGRRl6AIBHSwCD91tYWAiNi4uLZN9g4kSnCAcADyJRvD5R2h4YKQEM3u/rr78OjW+//TbZNyQCGADAY/PE+X3wXu12+/PPPw/t4f6ZzMzMhKPAhvu0ADwGwzqIeVjPA6RlBgzeb3QbtOI9YAAAPDZmwOCD4m8Hh/tnMqKnBeAxGNbM1bCeB0jLDBgAAEBGBDAAAICMCGAAAAAZEcAAAAAyIoABAABkRAADAADIiAAGAACQEQEMAAAgIwIYAABARgQwAACAjAhgAAAAGRHAAAAAMiKAAQAAZEQAAwAAyIgABgAAkBEBDAAAICMCGAAAQEYEMAAAgIwIYAAAABkRwAAAADIigAEAAGREAIMPKhQKybsAAGAAAhh80M7OThRFm5ubyQ4AAOjLk7dv3ybvA0bpyZMnoeGvD4C04g+RoO+PkmE9D5CWGTDIVKvVSt4FAMCjIYBBpl69ehUapVIp2QcAwKSzBBEy9ezZszAJVqvVlpeXk90A8FHDWjo4rOcB0hLAIFM2gAEwiGEFp3ef58kTl4WQBUsQAQAene6sJXdBlgQwSLq6ulpcXDw5OUl2AMAEeftfkh3AKJlrhqSZmZlmsxnOAdvd3U12D8YSRAAG8e7Swe6bfbP+EDJjBgyS4toYe3t7MzMzZ2dnyREAANAX33ZAUqfTWVlZubq6CjcLhcKbN2+Sg/pycnKytbUV2v70AEgrMf2V0Pcni+kvyJIZMEgqFAq1Wm19fT3c7HQ6wzo9eW9vLzRWV1eTfQDwKfGurfd68l+SD/so6Qsy5k8OPmhpaSnMgx0fH29ubia704s/FN+8eVMoFJLdADAM4eOml2s86QuyZwYMPujrr78OjW+//TbZNxjpC4DRCZnqk7Nh0hc8CAEMPmh5eTkkpXq93mg0kt09C3XtFfMAIDNhUWIcw95L+oIH4W8PPmZlZeXi4iKEsVqtluzuQbvdfv78eavVKhQKnU4n3OnvDgDgcRLA4GMajcbc3Fxo9/HHcnJysr293W63E/f38VQAAEwASxDhY0qlUrxfK+2hzLu7u1tbW3H6qlQqyREAADwyAhh8Qlz/cG9v7+DgINn9PldXVzMzM3HR+WKxeHp6enl5qfYGAMAjJ4DBJ+zv78eTV3Gm+oizs7O1tbVmsxluViqVH374IZwqtrOz053oAAB4bOwBg0/rdDpPnz4N7Y/8yVxdXW1tbcXRKxy4fHp6auILAIDADBh8WqFQ+OROsKurq+6JrzDTdX5+Ln0BABAzAwY9qVarR0dHoX13d1cqlRIDnj171mq1QtvEFwAA7yWAQU86nc7S0lK9Xk92vGNzc/P4+Dh5LwAACGDQu+4zwT7C3xQAAB9iDxj0qlQqfbKA4ScHAADwmJkBAwAAyIgZMAAAgIwIYAAAABkRwAAAADIigAEAAGREAAMAAMiIAAYAAJARAQwAACAjAhgAAEBGBDAAAICMCGAAAAAZEcAAAAAyIoABAABkRAADAADIiAAGAACQEQEMAAAgIwIYAABARgQwAACAjAhgAAAAGRHAAAAAMiKAAQAAZEQAAwAAyIgABgAAkBEBDAAAICMCGAAAQEYEMAAAgIwIYAAAABkRwAAAADIigAEAAGREAAMAAMiIAAYAAJARAQwAACAjAhgAAEBGBDAAAICMCGAAAAAZEcAAAAAyIoABAABkRAADAADIiAAGAACQEQEMAAAgIwIYAABARgQwAACAjAhgAAAAGRHAAAAAMiKAAQAAZEQAAwAAyIgABgAAkBEBDAAAICMCGAAAQEYEMAAAgIwIYAAAABkRwAAAADIigAEAAGREAAMAAMiIAAYAAJARAQwAACAjAhgAAEBGBDAAAICMCGAAAAAZEcAAAAAyIoABAABkRAADAADIiAAGAACQEQEMAAAgIwIYAABARgQwAACAjAhgAAAAGRHAAAAAMiKAAQAAZEQAAwAAyIgABgAAkBEBDAAAICMCGAAAQEYEMAAAgIwIYAAAABkRwAAAADIigAEAAGREAAMAAMiIAAYAAJARAQwAACAjAhgAAEBGBDAAAICMCGAAAAAZEcAAAAAyIoABAABkRAADAADIiAAGAACQEQEMAAAgIwIYAABARgQwAACAjAhgAAAAGRHAAAAAMiKAAQAAZEQAAwAAyIgABgAAkBEBDAAAICMCGAAAQEYEMAAAgIwIYAAAABkRwAAAADIigAEAAGREAAMAAMiIAAYAAJARAQwAACAjAhgAAEBGBDAAAICMCGAAAAAZEcAAAAAyIoABAABkRAADAADIiAAGAACQEQEMAAAgIwIYAABARv4/NHLDdo7g31MAAAAASUVORK5CYII=;imageBorder=default;" vertex="1" parent="1">
          <mxGeometry x="220" y="118" width="79.99" height="45" as="geometry" />
        </mxCell>
        <mxCell id="yA5KAvl37-WxbWNlHDcd-9" value="" style="html=1;shadow=0;dashed=0;align=center;verticalAlign=middle;shape=mxgraph.arrows2.jumpInArrow;dy=15;dx=38;arrowHead=55;fillColor=#f8cecc;strokeColor=#b85450;rotation=120;" vertex="1" parent="1">
          <mxGeometry x="270" y="175" width="100" height="100" as="geometry" />
        </mxCell>
        <mxCell id="yA5KAvl37-WxbWNlHDcd-2" value="" style="shape=image;verticalLabelPosition=bottom;labelBackgroundColor=default;verticalAlign=top;aspect=fixed;imageAspect=0;image=data:image/jpeg,/9j/4AAQSkZJRgABAQEASABIAAD/2wBDAAgGBgcGBQgHBwcJCQgKDBQNDAsLDBkSEw8UHRofHh0aHBwgJC4nICIsIxwcKDcpLDAxNDQ0Hyc5PTgyPC4zNDL/2wBDAQgJCQwLDBgNDRgyIRwhMjIyMjIyMjIyMjIyMjIyMjIyMjIyMjIyMjIyMjIyMjIyMjIyMjIyMjIyMjIyMjIyMjL/wAARCAHgAoADASIAAhEBAxEB/8QAHwAAAQUBAQEBAQEAAAAAAAAAAAECAwQFBgcICQoL/8QAtRAAAgEDAwIEAwUFBAQAAAF9AQIDAAQRBRIhMUEGE1FhByJxFDKBkaEII0KxwRVS0fAkM2JyggkKFhcYGRolJicoKSo0NTY3ODk6Q0RFRkdISUpTVFVWV1hZWmNkZWZnaGlqc3R1dnd4eXqDhIWGh4iJipKTlJWWl5iZmqKjpKWmp6ipqrKztLW2t7i5usLDxMXGx8jJytLT1NXW19jZ2uHi4+Tl5ufo6erx8vP09fb3+Pn6/8QAHwEAAwEBAQEBAQEBAQAAAAAAAAECAwQFBgcICQoL/8QAtREAAgECBAQDBAcFBAQAAQJ3AAECAxEEBSExBhJBUQdhcRMiMoEIFEKRobHBCSMzUvAVYnLRChYkNOEl8RcYGRomJygpKjU2Nzg5OkNERUZHSElKU1RVVldYWVpjZGVmZ2hpanN0dXZ3eHl6goOEhYaHiImKkpOUlZaXmJmaoqOkpaanqKmqsrO0tba3uLm6wsPExcbHyMnK0tPU1dbX2Nna4uPk5ebn6Onq8vP09fb3+Pn6/9oADAMBAAIRAxEAPwD3+iiigAooooAKKKKACiiigAooooAKKKKACiiigAooooAKKKKACiiigAooooAKKKKACiiigAooooAKKKKACiiigAooooAKKKKACiiigAooqOeeG1t5bi4ljhgiQvJJIwVUUDJJJ4AA5zQBJWP4h8T6V4YsvtGpXKo7KxhtlYGa4IxlY1JG48jJ6DOSQMmvPvE3xbaZDa+FkZc5D391AQMEf8so2IO4Enl1wCv3XDZHmc8st3ez311K095cNumuJMb5D2zjsOgAwAMAAAAUAdprHxU8QX+oRTaVt0u0hYlYHVJjcDOR5pI+UYAG1CCMt85yCvT+Hvi7YXPl23iG3/s6c4X7VHl7ZzwMk/eiydx+bKqBy5ryKigD6jgnhureK4t5Y5oJUDxyRsGV1IyCCOCCOc1JXy9pl7e6HdvdaPeTafcOcu9uQBIefvoQVfqcbgcZJGDzXpug/GFOIfEtl5J/5/bFGePufmi5df4QNpfJyTtFAHqlFU9N1bTdZt2uNL1C0voFco0lrMsqhsA4JUkZwQce4q5QAUUUUAFFFFABRRRQAUUUUAFFFFABRRRQAUUUUAFFFFABRRRQAUUUUAFFFFABRRRQAUUUUAFFFFABRRRQAUUUUAFFFFABRRRQAUUUUAFFFFABRRRQAUUUUAFFFFABRRRQAUUUUAFFFFABRRRQAUUUUAFFFFABRRRQAUUUUAFFFFABRRRQAUUUUAFFYviTxXpPhW0SbUpmDy7hBBEheSYgZIUDoOg3NhQWGSMivHvEfxF17X5ZIrW5l0rTi37uG2bZOy8Y8yUHIORnEZUDJUlxyQD0XxR8TNH0Iy2tg0eqanG+xreKQhIyCQwklCsFYYI28tkjgAlh49r2vap4nu1uNYuRLsKmO3iDJbxFejLGWPzcn5iS3JGQMAZyIsaKiKFVRgKBgAUtABRRRQAUUUUAFFFFAElrcXGn3y31hczWl4gAE8D7WwDnaezLkA7WypxyDXovh74u3Vt5dt4jtPtEQwv260XDgcDMkXf+JiycngLHXm1FAH0lofiXRvElu82kX8VyI8eZGMrJHkkDejAMudpxkDIGRxWrXywu6O4juIZJYbiLPlzwyNHJHkYO11IIyODg8jiu+0H4tavp+Idct/7Vt/8An4gCRXA6nleI35IHHl4A/iNAHtNFYPh3xlofihNunXg+1Km+SzmGyeMcZJQ9VBYDcuVJ4BNb1ABRRRQAUUUUAFFFFABRRRQAUUUUAFFFFABRRRQAUUUUAFFFFABRRRQAUUUUAFFFFABRRRQAUUUUAFFFFABRRRQAUUUUAFFFFABRRRQAUUUUAFFFFABRRRQAUUUUAFFFFABRRRQAUUUUAFFFFABRRRQAUUUUAFFFFABRRXDeKfidpegzNZ2EY1bUEJWSOGZVigYNgrJJztbhvlCsQQNwUEGgDsb6/s9Ms5Ly/u4LS1jxvmnkEaLkgDLHgZJA/GvK/EvxbnmZ7XwxEqQlcHULmNg2SDny4mAwRkYZ+MqfkIwTwer67q/iC6Fxq2oS3BVt0cI+SGLr9yMcZAZgGOXwcFjVCgAbdJcSXE0ks1xLjzJ5pGkkkwMDc7Ek4HAyeBxRRRQAUUUUAFFFFABRRRQAUUUUAFFFFABRRRQA0qC8b8h43EkbqSrRuOjKRyrDsRyK7PQ/if4i0WIQXSxazbquIxcyGKZOgH70K24AD+JSxJJLnpXHUUAe/wDhzx/oHiWRLe3uGtb9s4srwCOVsZPy8lX4XcdhbAIzjpXUV8qyxRzxmOWNZEPVXGQfwrp9G8f+J9EeMLqLajapwba/PmEgnJxL/rA3UAsXAB+6cAAA+g6K4zw38TNC114rW5c6ZqMhCC3uiAsjnAxHJ918scBeHOCdgrs6ACiiigAooooAKKKKACiiigAooooAKKKKACiiigAooooAKKKKACiiigAooooAKKKKACiiigAooooAKKKKACiiigAooooAKKKKACiiigAooooAKKKKACiiigAooooAKKKKACiiigAooooAKKKr31/Z6ZZyXl/dwWlrHjfNPII0XJAGWPAySB+NAFisXxJ4r0nwraJNqUzB5dwggiQvJMQMkKB0HQbmwoLDJGRXnviX4tzzM9r4YiVISuDqFzGwbJBz5cTAYIyMM/GVPyEYJ80bdJcSXE0ks1xLjzJ5pGkkkwMDc7Ek4HAyeBxQB1Pij4gaz4m+0WqP9h0iXK/ZUUeZLGccTPk9ccqmBhipLjk8qiLGioihVUYCgYAFLRQAUUUUAFFFFABRRRQAUUUUAFFFFABRRRQAUUUUAFFFFABRRRQAUUUUAI6LIjI6hlYYKkZBFbGi+K/EHh1l/s3U5TAqhRaXZaeDaAQqhScoBngIyjgZyBisiigD2jQfizomo4h1hf7Fuf708ga3bqeJsADgD74TJOF3V39fLFXND1jU/DEok0O8azTdue3A3QSdM7o+mTtALLh8DAYUAfTdFea+Hvi7YXPl23iG3/s6c4X7VHl7ZzwMk/eiydx+bKqBy5r0Kxv7PU7OO8sLuC7tZM7JoJBIjYJBww4OCCPwoAsUUUUAFFFFABRRRQAUUUUAFFFFABRRRQAUUUUAFFFFABRRRQAUUUUAFFFFABRRRQAUUUUAFFFFABRRRQAUUUUAFFFFABRRRQAUUUUAFFFFABRRRQAUUUUAFFFFABRWL4k8V6T4VtEm1KZg8u4QQRIXkmIGSFA6DoNzYUFhkjIrxvxR8QNZ8TfaLVH+w6RLlfsqKPMljOOJnyeuOVTAwxUlxyQD0XxT8TtL0GZrOwjGraghKyRwzKsUDBsFZJOdrcN8oViCBuCgg15Bq+u6v4guhcatqEtwVbdHCPkhi6/cjHGQGYBjl8HBY1noixoqIoVVGAoGABS0AFFFFABRRRQAUUUUAFFFFABRRRQAUUUUAFFFFABRRRQAUUUUAFFFFABRRRQAUUUUAFFFFABRRRQAVPp1/f6NeNeaTfT2Ny+N7wEYkwCBvQgq+ATjcDjORg81BRQB6noPxhTiHxLZeSf+f2xRnj7n5ouXX+EDaXyck7RXouka1puvWIvNLvYbuDO0tG2SjYB2sOqsARlSARnkV8z1Ja3Fxp98t9YXM1peIABPA+1sA52nsy5AO1sqccg0AfUdFeN6N8X9Ss0jh1vTVv0Xhrq0YRzEYwMxt8jMSMkhkHJwoxg+n6H4l0bxJbvNpF/FciPHmRjKyR5JA3owDLnacZAyBkcUAatFFFABRRRQAUUUUAFFFFABRRRQAUUUUAFFFFABRRRQAUUUUAFFFFABRRRQAUUUUAFFFFABRRRQAUUUUAFFFFABRRRQAUUUUAFFFFABRRXDeKfidpegzNZ2EY1bUEJWSOGZVigYNgrJJztbhvlCsQQNwUEGgDsb6/s9Ms5Ly/u4LS1jxvmnkEaLkgDLHgZJA/GvK/EvxbnmZ7XwxEqQlcHULmNg2SDny4mAwRkYZ+MqfkIwTwer67q/iC6Fxq2oS3BVt0cI+SGLr9yMcZAZgGOXwcFjVCgAbdJcSXE0ks1xLjzJ5pGkkkwMDc7Ek4HAyeBxRRRQAUUUUAFFFFABRRRQAUUUUAFFFFABRRRQAUUUUAFFFFABRRRQAUUUUAFFFFABRRRQAUUUUAFFFFABRRRQAUUUUAFFFFABQu6O4juIZJYbiLPlzwyNHJHkYO11IIyODg8jiiigDudG+LHiDT3jj1WKDVbUcO6oIbnk5LZH7tiBkBdqZ4ywwSfUPDvjLQ/FCbdOvB9qVN8lnMNk8Y4ySh6qCwG5cqTwCa+dqaVBeN+Q8biSN1JVo3HRlI5Vh2I5FAH1TRXgmi/ErxNozKs9wur2qqFEN4QjqACBtmVc55BJcOTjqCSa9T8OeP8AQPEsiW9vcNa37ZxZXgEcrYyfl5Kvwu47C2ARnHSgDqKKKKACiiigAooooAKKKKACiiigAooooAKKKKACiiigAooooAKKKKACiiigAooooAKKKKACiiigAooooAKKKr31/Z6ZZyXl/dwWlrHjfNPII0XJAGWPAySB+NAFisXxJ4r0nwraJNqUzB5dwggiQvJMQMkKB0HQbmwoLDJGRXnviX4tzzM9r4YiVISuDqFzGwbJBz5cTAYIyMM/GVPyEYJ80bdJcSXE0ks1xLjzJ5pGkkkwMDc7Ek4HAyeBxQB1Pij4gaz4m+0WqP8AYdIlyv2VFHmSxnHEz5PXHKpgYYqS45PKoixoqIoVVGAoGABS0UAFFFFABRRRQAUUUUAFFFFABRRRQAUUUUAFFFFABRRRQAUUUUAFFFFABRRRQAUUUUAFFFFABRRRQAUUUUAFFFFABRRRQAUUUUAFFFFABRRRQAUUUUAFMlijnjMcsayIequMg/hT6KAOh0Px14k0CUGPUJdQti2ZLbUZWm3dM7ZCS6HAwOWUZJ2E16fofxU8OanEF1G4XRrpVy6X0gSM9M7JfusMk4B2uQCdoFeH0UAfU9FfNmg+Jtb8L4XR73y7Yf8ALlOpkt+/RMgpyxPyFcnls9K9R0X4u6JeqsesxS6RclguWzNAck8iVV+UAYyZAgGepAJoA9CoqOCeG6t4ri3ljmglQPHJGwZXUjIII4II5zUlABRRRQAUUUUAFFFFABRRRQAUUUUAFFFFABRRRQAUUUUAFFFFABRRRQAUUUUAFFYviTxXpPhW0SbUpmDy7hBBEheSYgZIUDoOg3NhQWGSMivG/FHxA1nxN9otUf7DpEuV+yoo8yWM44mfJ645VMDDFSXHJAPRfFPxO0vQZms7CMatqCErJHDMqxQMGwVkk52tw3yhWIIG4KCDXkGr67q/iC6Fxq2oS3BVt0cI+SGLr9yMcZAZgGOXwcFjWeiLGioihVUYCgYAFLQAUUUUAFFFFABRRRQAUUUUAFFFFABRRRQAUUUUAFFFFABRRRQAUUUUAFFFFABRRRQAUUUUAFFFFABRRRQAUUUUAFFFFABRRRQAUUUUAFFFFABRRRQAUUUUAFFFFABRRRQAUUUUAFI7rGjO7BVUZLE4AFQSXQEhhgXzpx95FYDZnoWPYfmfQHFCWjSOst05dwdwjB/dofp/F25buMjHSgCfTfFOseGxNfeHbloIU3TTI+TBcEYY/uyMMWCgGQbWxjDHkV9UV8yaZ4b1TxgLjT9HgD7kkikupdy28JxyGkAPzcj5BluQcAZI+m6ACiiigAooooAKKKKACiiigAooooAKKKKACiiigAooooAKKKKACiiuB8V/FDTtHe50/SkN/qkZaMttP2eBxj77ZG7HPypk5UqxTqADtr6/s9Ms5Ly/u4LS1jxvmnkEaLkgDLHgZJA/GvKfEPxdurnzLbw5afZ4jlft12uXI5GY4u38LBn5HIaOuD1jWNS8RX6X2sXX2qePcIRsCpAGOSsajoO2SSxAALHAqlQANukuJLiaSWa4lx5k80jSSSYGBudiScDgZPA4ooooAKKKKACiiigAooooAKKKKACiiigAooooAKKKKACiiigAooooAKKKKACiiigAooooAKKKKACiiigAooooAKKKKACiiigAooooAKKKKACiiigAooooAKKKKACiiigAooooAKKR3WNGd2CqoyWJwAKrfaJrn/jzChO80qnH/ARxuHvkDkYJ5FAE008cCBpCeTgBVLEn2A5Pf8qh8u5uuZGa2i/55rjzD9WBIA+nPQ5HSnx20FrunY5cKd88rZbHU8noO+BgD0pQbm6H7lXt4u8sseGb/dU8g9eWHpwQaAJ7O1Mlzb6bYW3mXM7Fbe1hADOepwOBgdSTgAZJIGTXpvhn4StOgufFDugOClhazkcEf8tZFAO4EjhGwCv3nDYDPgnbpBN4g2/M7C23yN95z+95J/yB0GBXrlAEcEENrbxW9vFHDBEgSOONQqooGAABwABxipKKKACiiigAooooAKKKKACiiigAooooAKKKKACiiigAooqvfX9nplnJeX93BaWseN808gjRckAZY8DJIH40AWKwfEXjLQ/C6bdRvB9qZN8dnCN88g5wQg6KSpG5sKDwSK888S/Fq6vVe18Nwy2UW7/kITqpkYAn7kTAgAjby/ONw2A4YedO8ksryzTTTzSHLyzytI7nAA3MxJPAA5PQAdqAOj8TeO9a8VIbefbYaec5tLWViZARgiWTjzF6/LtVcNghsAjmkRY0VEUKqjAUDAApaKACiiigAooooAKKKKACiiigAooooAKKKKACiiigAooooAKKKKACiiigAooooAKKKKACiiigAooooAKKKKACiiigAooooAKKKKACiiigAooooAKKKKACiiigAooooAKKKKACiio5p44EDSE8nACqWJPsBye/5UASVXkugJDDAvnTj7yKwGzPQsew/M+gOKb5dzdcyM1tF/zzXHmH6sCQB9OehyOlW7O1Mlzb6bYW3mXM7Fbe1hADOepwOBgdSTgAZJIGTQBWS0aR1lunLuDuEYP7tD9P4u3LdxkY6VZ8u7msbm8srOS5gtiFmnGRDGdyrtaTBG7LL8oy3IOMZI9N8M/CVp0Fz4od0BwUsLWcjgj/AJayKAdwJHCNgFfvOGwOn+I8ENr8NL63t4o4YIhbpHHGoVUUSxgAAcAAcYoA8ItrFXZZrsrPMpBXghEI6FVJIB9+TyeccVffpUcH3RUj9KAPRPgz/r9e+lv/AO1a9Wryn4M/6/Xvpb/+1a9WoAKKKKACiiigAooooAKKKKACiiigAooooAKKKKACiivnDX/iZqvi+GOG6U6Tp0wBjtIpG/fhlxtklBAkB+b93heCdytgGgD1HxX8UNO0d7nT9KQ3+qRloy20/Z4HGPvtkbsc/KmTlSrFOo8j1jWNS8RX6X2sXX2qePcIRsCpAGOSsajoO2SSxAALHAqiiLGioihVUYCgYAFLQAUUUUAFFFFABRRRQAUUUUAFFFFABRRRQAUUUUAFFFFABRRRQAUUUUAFFFFABRRRQAUUUUAFFFFABRRRQAUUUUAFFFFABRRRQAUUUUAFFFFABRRRQAUUUUAFFFFABRRRQAUUUUAFI7rGjO7BVUZLE4AFQSXQEhhgXzpx95FYDZnoWPYfmfQHFCWjSOst05dwdwjB/dofp/F25buMjHSgBv2ia5/48woTvNKpx/wEcbh75A5GCeRTlhtrINcSuA2MPPM3OCemT0GewwM9BW7oPh3V/FEsiaNaxzRxOY5rmWUJDE+M7WYAktx0VWIyu7AINex+Fvh3pPhmaO+Z5b7VFUj7VOcCPIAby4x8qj72CcvhiCxFAHm3hn4c614gcS3sc+kaeMHzJ4cTS84KpGxBQ8H5nH93CuDkeweHvDGleGLL7PptsquyqJ7llBmuCM4aRgBuPJwOgzgADArYooAK5H4nf8k81P6w/wDo5K66uR+J3/JPNT+sP/o5KAPD4PuipH6VHB90VI/SgD0T4M/6/Xvpb/8AtWvVq8p+DP8Ar9e+lv8A+1a9WoAKKKKACiiigAooooAKKKKACiiigAooooAKKKKACvlS2tpbSyttO1G0ntbkWq77a7gaJyuNpO1wCVzkZxjgivquqOraLpuvWJs9UsobqDO5VkXJRsEblPVWAJwwIIzwRQB8vmwaL/j0uHhHaJhvj/I8gY6AEAY6erDdmDi9j8j/AKabt0f/AH1xjt94DnpmvVfEHwlu7bfceHLv7TEMt9hu2w4HJxHL3/hUK/J5LSVwGoWV9pF4tnqtjPYXL52RzgYkwATscEq+ARnaTjODg8UAU6KgOmxR82Z+yt6RgbD9U6enIweMZFMNxLbcXcWFH/LaPlPqR1Xuecgf3qALVFMiljnjEkUiyIejIcg/jT6ACiiigAooooAKKKKACiiigAooooAKKKKACiiigAooooAKKKKACiiigAooooAKKKKACiiigAooooAKKKKACiiigAooooAKKKKACiiigAooooAKKKKACikd1jRndgqqMlicACq3nz3P/HqirGek8vIb3VQcke5I7EZFAE008cCBpCeTgBVLEn2A5Pf8qh8u5uuZGa2i/wCea48w/VgSAPpz0OR0pyw21kGuJXAbGHnmbnBPTJ6DPYYGegruvDXw21nX1S5vS2k2BbB86FhcuAQDtjYDYDzhmycr9wqQSAcjY2E1xPFYaZYSzzN/q7e2izxkAk44VcsMs2FGRkjNeoeF/hMv7i+8Sy+Y3D/2YgUxjr8szc+Z/CSFwucqfMU899ofhrRvDdu8OkWEVsJMeZJy8kuCSN8jEs2NxxknAOBxWrQBHBBDa28VvbxRwwRIEjjjUKqKBgAAcAAcYqSiigAooooAK5H4nf8AJPNT+sP/AKOSuurkfid/yTzU/rD/AOjkoA8Pg+6KkfpUcH3RUj9KAPRPgz/r9e+lv/7Vr1avKfgz/r9e+lv/AO1a9WoAKKKKACiiigAooooAKKKKACiiigAooooAKKKKACiiigAryb41xRzvoUcsaSIRcZVxkH/Vdq9Zryn4zf6/Qfpcf+0qAPLBZXEQza3OU6+VcZf8A+dwz6nd7DjFILwJIsV0ht5WO1d5yjn/AGW6HPYHDewrQTpUVyivEyOoZWBBUjIIoAqTWMUshlQtDMessRwT25HRuOOQcdsVCZLm2/4+IvNT/nrbqT+ackenG71OK9I8MfDGz17wVY6jaaldWN5IJF2kCaA7ZXXJQ4YfKAAFdQMA4655jXfDmteGMtrFl5VsP+X2BjJb9ur4BTlgPnC5PC7utAGHDPFcIWicMAcN6qfQjsfY81JTZ7OGdxIQUmAwsqHawHpnuM84OR7VAftlvw0f2pOzRkK/4gkA/UEdfu0AWaKihuYbjcI3+ZfvIwKsuemVPI/GpaACiiigAooooAKKKKACiiigAooooAKKKKACiiigAooooAKKKKACiiigAooooAKKKKACiiigAooooAKKKKACiiigAooooAKKKinuYbfaJHwzfdRQWZsdcKOT+FAEtV5LrEhihiaaUdQOFX/eboOo4GTg5wab5Vxdf68+TD/zzjc7z6ZYYx9B6feI4q9Y2E1xPFYaZYSzzN/q7e2izxkAk44VcsMs2FGRkjNAFNLMs6yXUgndTlRsARD6qOefcknrjGcVu6D4d1fxRLImjWsc0cTmOa5llCQxPjO1mAJLcdFViMruwCDXf+F/hMv7i+8Sy+Y3D/2YgUxjr8szc+Z/CSFwucqfMU8+nwQQ2tvFb28UcMESBI441CqigYAAHAAHGKAOU8LfDvSfDM0d8zy32qKpH2qc4EeQA3lxj5VH3sE5fDEFiK6+iigAooooAKKKKACiiigArkfid/yTzU/rD/6OSuurkfid/wAk81P6w/8Ao5KAPD4PuipH6VHB90VI/SgD0T4M/wCv176W/wD7Vr1avKfgz/r9e+lv/wC1a9WoAKKKKACiiigAooooAKKKKACiiigAooooAKKKKACiiigAryn4zf6/Qfpcf+0q9Wryn4zf6/Qfpcf+0qAPO06VHP8AdNSJ0qOf7poA9w+GP/JPNM+s3/o5666uR+GP/JPNM+s3/o5666gDhtY+FPh2/SSTTYn0i6PKtaH9yCBgAwn5AucE7QrHB+YZJPmfiDwbr3hnfLeWv2mxTJ+3WgLoFGeZF+9HwpYk5Rcj5ya+haKAPlaW3tr1I3YBxjMciNggHurDkZ9jzUJjvbf7pS6T/bISQfkNrH0+79e9fQmufDrw3rhklNkLC8kdna7sAsUjMxBYvwVkJ55dWxuJGCc15hrvw98RaDmRYP7Wsx/y3sYm8wdPvQZLdTgbC/AJO0UAcXDdRyuY+UmAyYnGGA9cdxnjIyPep6Z/oepQ/K0VxGrcMjBtrY6gjoeeo5qI2t1Bzbz+av8AzyuD27AOBkfiGJx260AWKKrx3aNIIpFeCY9I5RgnvwRw3HoTjvirFABRRRQAUUUUAFFFFABRRRQAUUUUAFFFFABRRRQAUUUUAFFFFABRRRQAUUUUAFFFFABRRRQAUUUUAFI7rGjO7BVUZLE4AFQSXWJDFDE00o6gcKv+83QdRwMnBzg0JZlnWS6kE7qcqNgCIfVRzz7kk9cYzigBvnTXXFsuyE/8vDEcj1Qc5+pwOhG4U9Y4LGN5ZJcZx5k0z9fTk8AZPQYHPArc0Hw7q/iiWRNGtY5o4nMc1zLKEhifGdrMASW46KrEZXdgEGvY/C3w70nwzNHfM8t9qiqR9qnOBHkAN5cY+VR97BOXwxBYigDznw18NtZ19Uub0tpNgWwfOhYXLgEA7Y2A2A84ZsnK/cKkE+waH4a0bw3bvDpFhFbCTHmScvJLgkjfIxLNjccZJwDgcVq0UAFFFFABRRRQAUUUUAFFFFABRRRQAVyPxO/5J5qf1h/9HJXXVyPxO/5J5qf1h/8ARyUAeHwfdFSP0qOD7oqR+lAHonwZ/wBfr30t/wD2rXq1eU/Bn/X699Lf/wBq16tQAUUUUAFFFFABRRRQAUUUUAFFFFABRRRQAUUUUAFFFFABXlPxm/1+g/S4/wDaVerV5T8Zv9foP0uP/aVAHnadKjn+6akTpUc/3TQB7h8Mf+SeaZ9Zv/Rz111cj8Mf+SeaZ9Zv/Rz111ABRRRQAUUUUAYPiLwdonidd2oWgF0qbI7yE7J4xzgBh1UFidjZUnkg15frfwu8QaZKW0sLrFqzYUKyQzoOcbgxCMAAMsGBJPCAc17dRQB8tTxJI8tnd27LKmPNtrmIo6Z5XcjAEZ4IyOeDVY2UsHNpO/vHOxdW/wCBH5geg6kD0NfTOueGtH8SQJDq1hHc+Xny5MlJIskE7JFIZM7RnBGQMHivMNZ+Eur2TNJol7FqNuFLeTdsIpxgDgMq7HJOcZEYHAJPJAB5mt2EdY7lDbyE7V3fdc/7LdDnsDg+1WanvLaW0u5NO1G0ktroKd9tcptYrnaSAeHTORuXKnHBNUTp4i5spPs//TPbujP/AAHjHf7pHPXNAE9FVTdmDi9j8j/ppu3R/wDfXGO33gOemaso6yIrowZWGQwOQRQAtFFFABRRRQAUUUUAFFFFABRRRQAUUUUAFFFFABRRRQAUUUUAFFFFABRSO6xozuwVVGSxOABVbzprri2XZCf+XhiOR6oOc/U4HQjcKAJZ7mG32iR8M33UUFmbHXCjk/hUXlXF1/rz5MP/ADzjc7z6ZYYx9B6feI4p6xwWMbyyS4zjzJpn6+nJ4AyegwOeBXc+GvhtrOvqlzeltJsC2D50LC5cAgHbGwGwHnDNk5X7hUgkA5GxsJrieKw0ywlnmb/V29tFnjIBJxwq5YZZsKMjJGa9Q8L/AAmX9xfeJZfMbh/7MQKYx1+WZufM/hJC4XOVPmKee+0Pw1o3hu3eHSLCK2EmPMk5eSXBJG+RiWbG44yTgHA4rVoAjgghtbeK3t4o4YIkCRxxqFVFAwAAOAAOMVJRRQAUUUUAFFFFABRRRQAUUUUAFFFFABRRRQAVyPxO/wCSean9Yf8A0clddXI/E7/knmp/WH/0clAHh8H3RUj9Kjg+6KkfpQB6J8Gf9fr30t//AGrXq1eU/Bn/AF+vfS3/APaterUAFFFFABRRRQAUUUUAFFFFABRRRQAUUUUAFFFFABRRRQAV5T8Zv9foP0uP/aVerV5T8Zv9foP0uP8A2lQB52nSo5/umpE6VHP900Ae4fDH/knmmfWb/wBHPXXVyPwx/wCSeaZ9Zv8A0c9ddQAUUUUAFFFFABRRRQAUUUUAUdW0XTdesTZ6pZQ3UGdyrIuSjYI3KeqsAThgQRngivNtY+D86PJLoGqJ5fVLO/BOCT0Ey5IUDGNyOxI5bnI9XooA+ZNQsr7SLxbPVbGewuXzsjnAxJgAnY4JV8AjO0nGcHB4rOksE3tJbObeVjuJQfK5/wBpehz3PDe9fUl9YWep2clnf2kF3ayY3wzxiRGwQRlTwcEA/hXnWsfB+0ZJJdA1Ge1l6pa3bGaE4H3Qx/eKScfMWfGThTwAAeOGe4g4uLZmUdZYBuH/AHz94H2AOM9etTRSxzxiSKRZEPRkOQfxrV1jR9U8O3Ag1myktdz7I5vvQSkkgbJBxk4JCnD4GSorKmsYpZDKhaGY9ZYjgntyOjcccg47YoAfRVYveQf66FJox1kgyG+uw9h7Ek+nPEsM8VwhaJwwBw3qp9COx9jzQBJRRRQAUUUUAFFFFABRRRQAUUUUAFFFFABRRUU9zDb7RI+Gb7qKCzNjrhRyfwoAlqvJdYkMUMTTSjqBwq/7zdB1HAycHODTfKuLr/XnyYf+ecbnefTLDGPoPT7xHFXrGwmuJ4rDTLCWeZv9Xb20WeMgEnHCrlhlmwoyMkZoAppZlnWS6kE7qcqNgCIfVRzz7kk9cYzit3QfDur+KJZE0a1jmjicxzXMsoSGJ8Z2swBJbjoqsRld2AQa7/wv8Jl/cX3iWXzG4f8AsxApjHX5Zm58z+EkLhc5U+Yp59PgghtbeK3t4o4YIkCRxxqFVFAwAAOAAOMUAcp4W+Hek+GZo75nlvtUVSPtU5wI8gBvLjHyqPvYJy+GILEV19FFABRRRQAUUUUAFFFFABRRRQAUUUUAFFFFABRRRQAUUUUAFcj8Tv8Aknmp/WH/ANHJXXVyPxO/5J5qf1h/9HJQB4fB90VI/So4PuipH6UAeifBn/X699Lf/wBq16tXlPwZ/wBfr30t/wD2rXq1ABRRRQAUUUUAFFFFABRRRQAUUUUAFFFFABRRRQAUUUUAFeU/Gb/X6D9Lj/2lXq1eU/Gb/X6D9Lj/ANpUAedp0qOf7pqROlRz/dNAHuHwx/5J5pn1m/8ARz111cj8Mf8AknmmfWb/ANHPXXUAFFFFABRRRQAUUUUAFFFFABRRRQAUUUUARzwQ3VvLb3EUc0EqFJI5FDK6kYIIPBBHGK4XXfhRouoZm0dv7Guf7sEYa3boOYcgLwD9wpknLbq76igD5w13w5rXhjLaxZeVbD/l9gYyW/bq+AU5YD5wuTwu7rWJJa293tnU4cqNk8TYbHUcjqO+DkH0r6qrjPEfw00PXHlurZDpmoyEu1xagBZHOTmSP7r5Y5LDDnAG8UAeBlb235IS6T0UBJB+Z2sfX7v07U+G5huNwjf5l+8jAqy56ZU8j8a6rW/BHiPQJSJdPl1C3LYS506Jpt3XG6MAuhwMnhlGQN5Ncu0VpqESSgpKozsljfkeu1gcjpg4NAD6KrmG8t+Ul+1J3WTCv+BAAP0IHX71LDdRyuY+UmAyYnGGA9cdxnjIyPegCeiiigAooooAKKKKACkd1jRndgqqMlicACoJLrEhihiaaUdQOFX/AHm6DqOBk4OcGhLMs6yXUgndTlRsARD6qOefcknrjGcUAN86a64tl2Qn/l4YjkeqDnP1OB0I3CnrHBYxvLJLjOPMmmfr6cngDJ6DA54Fb2ieGNc8SPjSrAtCCQbu4JitwRkY34JflSvyBsHhttew+Fvh3pPhmaO+Z5b7VFUj7VOcCPIAby4x8qj72CcvhiCxFAHnPhr4bazr6pc3pbSbAtg+dCwuXAIB2xsBsB5wzZOV+4VIJ9g0Pw1o3hu3eHSLCK2EmPMk5eSXBJG+RiWbG44yTgHA4rVooAKKKKACiiigAooooAKKKKACiiigAooooAKKKKACiiigAooooAKKKKACuR+J3/JPNT+sP/o5K66uR+J3/JPNT+sP/o5KAPD4PuipH6VHB90VI/SgD0T4M/6/Xvpb/wDtWvVq8p+DP+v176W//tWvVqACiiigAooooAKKKKACiiigAooooAKKKKACiiigAooooAK8p+M3+v0H6XH/ALSr1avKfjN/r9B+lx/7SoA87TpUc/3TUidKjn+6aAPcPhj/AMk80z6zf+jnrrq5H4Y/8k80z6zf+jnrrqACiiigAooooAKKKKACiiigAooooAKKKKACiiigAooooAK5jxF4B0HxJI9zcW72t+2M3tmRHK2MD5sgrJwu0bw2ATjB5rp6KAPB9Z+HPibRmZobddXtVUsZ7MBHUAAndCzZzyQAhcnHQEgVyEsUF2Hilj3NFIVdHBV4pBwQR1Rx+BHtX1PWD4i8HaJ4nXdqFoBdKmyO8hOyeMc4AYdVBYnY2VJ5INAHzcbW4t+bWbzE/wCeVwxP5PyR687vQYpFvog6xz5t5WOBHNhSx/2TnDduhPXmvRdY+FfiDT3kfS5INVtRyiFxDc8nAXB/dsQMEtuTPOFGADw8igyTWlxC8cyACa3uIijoGHAZGAIyOeRyKAI6KgNk8HNnLtX/AJ4ycp9B3XsOMgf3ahSe5uXkhSLyDG2yWRmBwcA/IO/BHJxjI4PIoAsT3MNvtEj4ZvuooLM2OuFHJ/CovKuLr/XnyYf+ecbnefTLDGPoPT7xHFPWOCxjeWSXGceZNM/X05PAGT0GBzwK77w18MdY1pkn1cS6Tp7LkAFftT8ArhCGVAc87/mG0goM7gAcVYWclzdR6bpdk89yRlLa1jyQCcbiBwq5OCzYUE8kV6v4Z+EsUDi58TyQXrjBSygL+SpB6uxwZQQB8pULywIbgjvdE0LTPDun/YdKtRbwby7Dezs7HqWZiWY4AGSTwAOgArRoAjgghtbeK3t4o4YIkCRxxqFVFAwAAOAAOMVJRRQAUUUUAFFFFABRRRQAUUUUAFFFFABRRRQAUUUUAFFFFABRRRQAUUUUAFFFFABXI/E7/knmp/WH/wBHJXXVyPxO/wCSean9Yf8A0clAHh8H3RUj9Kjg+6KkfpQB6J8Gf9fr30t//aterV5T8Gf9fr30t/8A2rXq1ABRRRQAUUUUAFFFFABRRRQAUUUUAFFFFABRRRQAUUUUAFeU/Gb/AF+g/S4/9pV6tXlPxm/1+g/S4/8AaVAHnadKjn+6akTpUc/3TQB7h8Mf+SeaZ9Zv/Rz111cj8Mf+SeaZ9Zv/AEc9ddQAUUUUAFFFFABRRRQAUUUUAFFFFABRRRQAUUUUAFFFFABRRRQAUUUUAFcR8VdOsrvwPeXM9tG9zbGPyJ9uJId0qBtjjlcjg4IyODXb1yXxM/5J9qf1h/8ARyUAeArFewruSX7WvUpIAr/8BIAB9gQOv3hVS3e5a5vBHaSo0kwO+ZNqp8iDJ5+blW+7nOOoBBrZh+6KfJ0NAHbfBjTYJdT1e7u44rm8thB5E8kS7oNwlDCPjKgjg85IwCTivZK8m+DH/H14g+lt/wC1a9ZoAKKKKACiiigAooooAKKKKACiiigAooooAKKKKACiiigAooooAKKKKACiiigAooooAKKKKACuR+J3/JPNT+sP/o5K66uR+J3/ACTzU/rD/wCjkoA8Pg+6KkfpUcH3RUj9KAPRPgz/AK/Xvpb/APtWvVq8p+DP+v176W//ALVr1agAooooAKKKKACiiigAooooAKKKKACiiigAooooAKKKKACvKfjN/r9B+lx/7Sr1avKfjN/r9B+lx/7SoA87TpUc/wB01InSo5/umgD3D4Y/8k80z6zf+jnrrq5H4Y/8k80z6zf+jnrrqACiiigAooooAKKKKACiiigAooooAKKKKACiiigAooooAKKKKACiiigArkviZ/yT7U/rD/6OSutrkviZ/wAk+1P6w/8Ao5KAPD4fuinydDTIfuinydDQB6D8GP8Aj68QfS2/9q16zXk3wY/4+vEH0tv/AGrXrNABRRRQAUUUUAFFFFABRRRQAUUUUAFFFFABRRRQAUUUUAFFFFABRRRQAUUUUAFFFFABRRRQAVy3xHs72/8AAWpW+n2z3NwfKcRIMsyrKjPgdSQoYgDkkYAJ4rqaKAPmC2dXiV0YMrAEMDkEVK/SvddT+H3hXVrhri50eKOd3Z5JbR3tmlZjklzEVLnPOWzjJ9TVOP4W+D45Uk/syaTawbZNf3EiNjsyNIVYeoIIPQigDnfg1bXSprV41uy2czQxwznpI6GQOB6hcqM9M5HVSB6nUcEENrbxW9vFHDBEgSOONQqooGAABwABxipKACiiigAooooAKKKKACiiigAooooAKKKKACiiigAooooAK8p+M3+v0H6XH/tKvVq8p+M3+v0H6XH/ALSoA87TpUc/3TUidKjn+6aAPcPhj/yTzTPrN/6Oeuurkfhj/wAk80z6zf8Ao5666gAooooAKKKKACiiigAooooAKKKKACiiigAooooAKKKKACiiigAooooAK5L4mf8AJPtT+sP/AKOSutrkviZ/yT7U/rD/AOjkoA8Ph+6KfJ0NMh+6KfJ0NAHoPwY/4+vEH0tv/ates15N8GP+PrxB9Lb/ANq16zQAUUUUAFFFFABRRRQAUUUUAFFFFABRRRQAUUUUAFFFFABRRRQAUUUUAFFFFABRRRQAUUUUAFFFFABRRRQAUUUUAFFFFABRRRQAUUUUAFFFFABRRRQAUUUUAFFFFABRRRQAV5T8Zv8AX6D9Lj/2lXq1eU/Gb/X6D9Lj/wBpUAedp0qOf7pqROlRz/dNAHuHwx/5J5pn1m/9HPXXVyPwx/5J5pn1m/8ARz111ABRRRQAUUUUAFFFFABRRRQAUUUUAFFFFABRRRQAUUUUAFFFFABRRRQAVyXxM/5J9qf1h/8ARyV1tcl8TP8Akn2p/WH/ANHJQB4fD90U+ToaZD90U+ToaAPQfgx/x9eIPpbf+1a9Zryb4Mf8fXiD6W3/ALVr1mgAooooAKKKKACiiigAooooAKKKKACiiigAooooAKKKKACiiigAooooAKKKKACiiigAooooAKKKKACiiigAooooAKKKKACiiigAooooAKKKKACiiigAooooAKKKKACiiigAryn4zf6/Qfpcf+0q9Wryr40QXKx6NqHlf8S+389Li4PSJnMezd6A7WGTxnAzkgEA86TpUc/3TUidKgu5Y4IWklkWNB1ZzgD8aAPc/hj/AMk80z6zf+jnrrq5X4b2V9p/gHTbfUYJILkGZzHIMMqNK7JkdjtZeDyOhwc11VABRRRQAUUUUAFFFFABRRRQAUUUUAFFFFABRRRQAUUUUAFFFFABRRRQAVyXxM/5J9qf1h/9HJXW1yXxM/5J9qf1h/8ARyUAeHw/dFPk6GmQ/dFPk6GgD0H4Mf8AH14g+lt/7Vr1mvJvgx/x9eIPpbf+1a9ZoAKKKKACiiigAooooAKKKKACiiigAooooAKKKKACiiigAooooAKKKKACiiigAooooAKKKKACiiigAooooAKKKKACiiigAooooAKKKKACiiigAooooAKKKKACiiigAooooAKKKKAORuPhh4PuJ2l/skwbsfu7W6mt4xxjiON1VfwAycnqav6P4J8N6DOtxp+kwrdIxZLmYtPMmRghZJCzKMZ4BxyeOTW/RQAUUUUAFFFFABRRRQAUUUUAFFFFABRRRQAUUUUAFFFFABRRRQAUUUUAFFFFABXJfEz/AJJ9qf1h/wDRyV1tcl8TP+Sfan9Yf/RyUAeHw/dFPk6GmQ/dFPk6GgD0H4Mf8fXiD6W3/tWvWa8m+DH/AB9eIPpbf+1a9ZoAKKKKACiiigAooooAKKKKACiiigAooooAKKKKACiiigAooooAKKKKACiiigAooooAKKKKACiiigAooooAKKKKACiiigAorA1vxBe6JaXd7Jo7S2luN29Lhd0nYBVxksSQAO5IratpHmtYZZYWhkdAzRMQShI5UkenSgCWiiigAooooAKKKKACiiigAooooAKKKKACiiigAooooAKKKKACiiigAooooAKKKKACiiigAooooAKKKKACiiigAooooAKKKKACiiigArkviZ/yT7U/rD/6OSutrkviZ/yT7U/rD/6OSgDw+H7op8nQ0yH7op8nQ0Aeg/Bj/j68QfS2/wDates15N8GP+PrxB9Lb/2rXrNABRRRQAUUUUAFFFFABRRRQAUUUUAFFFFABRRRQAUUUUAFFFFABRRRQAUUUUAFFFFABRRRQAUUUUAFFFFABRRRQAUUVheJfF2k+FP7P/tSbZ9uulto8Mg2Z6yNuYYReNzc4yPWrp05VJcsFdibsc/qPi3w7c+MHtdV1vT7O20aQFYZ7kRtNckZ3FTjKoCMerEn+AV3FtcQ3lrFc20qTQTIJI5EbKupGQQe4IqWioGFFFFABRRRQAUUUUAFFFFABRRRQAUUUUAFFFFABRRRQAUUUUAFFFFABRRRQAUUUUAFFFFABRRRQAUUUUAFFFFABRRRQAUUUUAFFFFABXJfEz/kn2p/WH/0cldbXJfEz/kn2p/WH/0clAHh8P3RT5OhpkP3RT5OhoA9B+DH/H14g+lt/wC1a9Zryb4Mf8fXiD6W3/tWvWaACiiigAooooAKKKKACiiigAooooAKKKKACiiigAooooAKKKKACiiigAooooAKKKKACiiigAooooAKKKKACiiigAr5y+PsOsL4ss5r0p/Zb25SwCOTyMGXcpPD5YcgYK7OpBx9G14X+0Z/zLX0uv8A2jXu8Pz5cfDTe/5Myqr3T1rwlDrFv4S0yDXyh1SOBUnKOXyRwNzEnc+MbjkgtnHGK2qKK8ScuaTla1zUKKKKkAooooAKKKKACiiigAooooAKKKKACiiigAooooAKKKKACiiigAooooAKKKKACiiigAooooAKKKKACiiigAooooAKKKKACiiigArkviZ/yT7U/rD/AOjkrra5L4mf8k+1P6w/+jkoA8Ph+6KfJ0NMh+6KfJ0NAHoPwY/4+vEH0tv/AGrXrNeTfBj/AI+vEH0tv/ates0AFFFFABRRRQAUUUUAFFFFABRRRQAUUUUAFFFFABRRRQAUUUUAFFFFABRRRQAUUUUAFFFFABRRRQAUUUUAFFFFABXhf7Rn/MtfS6/9o17pXkPjG38PfFHVobKHWxF/ZBkdmiQlZIjsEh3EBRyFAYEjqcEHj0crxVLDYuFWq7JX/JhKlOcJOKulv5evY9eorD0TxTpusbYUuohecgxcqW68ruAzwuSBnHetyvLhOM1eLuiIVIVFzQaa8goooqywooooAKKKKACiiigAooooAKKKKACiiigAooooAKKKKACiiigAooooAKKKKACiiigAooooAKKKKACiiigAooooAKKKKACiiigArkviZ/yT7U/rD/6OSutrkviZ/wAk+1P6w/8Ao5KAPD4fuinydDTIfuinydDQB6D8GP8Aj68QfS2/9q16zXk3wY/4+vEH0tv/AGrXrNABRRRQAUUUUAFFFFABRRRQAUUUUAFFFFABRRRQAUUUUAFFFFABRRRQAUUUUAFFFFABRRRQAUUUUAFFFFAFBtYso7y8tp5RA1nCtxK03yKIjn59x42jawJ7Y5rlr74reGLfQE1K1u/tcsyMYLRQVkYg4+fj92D1y3UZIB6Vi/Fa01fxC0eleGrGS4u7aItqE0UqofIf/l3ySN28oGK9QEXIw1Yfw2+Hkt9eLqmv6ZC+mGBZbUPOreY5YEHajHIABBVv7wGDzjnqTqcyjBfPsevgsNhHSlWxM7W2imry/wAhP+Kx+LFx/wBAzQl/3xDIvmf+RnG32UFP4SefQvDvw70Lw9aIEiee9MWya7Mjq0nOTgBsKM9h6DJJGa62iqhRUXzPV9zLE5jOrD2VNclP+Vfq938zi9c+HljeiSXTXFpMcnymG6JjyenVckjpkADhazItY8WeFEP9q2r3lkrMPMkff3IB8wZIBLDG8ZxgACvR6K5p4GHNz0nyS8tvmtj5qeXU+b2lBuEvLb5rZnHQ/EfSWt4ZLi3u4nZgsqqgcR8DLZByV5PQZ+U8dM9Xd2sV7ZzWswJimQo204OCMcEdD71yGp/D5L3Upbi1vorOB9u23jtBtTCgHGGA5Iz0710Gg6Xd6RYCzuL8XkaYERMWwoP7udxyPT0+mAFhp4rnca8dOjVvyv1FhJ432koYmKt0at+KvfUwNHm1LV9Yj0m/aTHh9x9rmB4vJiuYTx/0zIkYYxvYAZ2mu0rL07R/sGsaxf8An+Z/aM0cuzZjy9kSx4znnO3PbrWpXoHqBRRRQAUUUUAFFFFABRRRQAUUUUAFFFFABRRRQAUUUUAFFFFABRRRQAUUUUAFFFFABRRRQAUUUUAFFFFABRRRQAUUUUAFcl8TP+Sfan9Yf/RyV1tcf8UZVh+HepMwJBe3Xj1M8YH86APEofuinydDTIfuinydDQB6D8GP+PrxB9Lb/wBq16zXk3wXEhuvELeU3k/6Molx8pceYWXPTIDISPRx6ivWaACiiigAooooAKKKKACiiigAooooAKKKKACiiigAooooAKKKKACiiigAooooAKKKKACiiigAooooAKKKKAIoreCBpWhhjjaZ/MkKKAXbAG446nAAz7CiC3gtYvKt4Y4Y9zNsjUKMsSxOB3JJJ9yalooAKKKKACiiigAooooAKKKKACiiigAooooAKKKKACiiigAooooAKKKKACiiigAooooAKKKKACiiigAooooAKKKKACiiigAooooAKKKKACiiigAooooAKjnghureW3uIo5oJUKSRyKGV1IwQQeCCOMVJRQB5xf8Awf0xvMfSNVvrFjjy4ZsXEKdM5DYkbPJ/1nBPoNtVrT4Oht/9p+I7h+nl/YLZIMeu7zPNz2xjbjnrnj1CigChpGi6boNiLPS7KG0gzuKxrgu2ANzHqzEAZYkk45Jq/RRQAUUUUAFFFFABRRRQAUUUUAFFFFABRRRQAUUUUAFFFFABRRRQAUUUUAFFFFABRRRQAUUUUAFFFFABRRRQAUUUUAFFFFABRRRQAUUUUAFFFFAH/9k=;imageBorder=default;" vertex="1" parent="1">
          <mxGeometry x="213.33" y="250" width="93.33" height="70" as="geometry" />
        </mxCell>
        <mxCell id="yA5KAvl37-WxbWNlHDcd-3" value="" style="shape=image;verticalLabelPosition=bottom;labelBackgroundColor=default;verticalAlign=top;aspect=fixed;imageAspect=0;image=data:image/svg+xml,PHN2ZyB4bWxucz0iaHR0cDovL3d3dy53My5vcmcvMjAwMC9zdmciIHZpZXdCb3g9IjAgMCAzMiAzMiI+PHN0eWxlPi5pY29uLWNhbnZhcy10cmFuc3BhcmVudHtvcGFjaXR5OjA7ZmlsbDojZjZmNmY2fS5pY29uLXZzLW91dHtmaWxsOiNmNmY2ZjZ9Lmljb24tdnNvLWJne2ZpbGw6IzY1NjU2NX0uaWNvbi12c28tbGlnaHRncmV5e2ZpbGw6I2JmYmZiZn0uaWNvbi13aGl0ZXtmaWxsOiNmZmZ9LnN0MHtmaWxsOnVybCgjcGF0aDE5NDhfMV8pfS5zdDF7ZmlsbDp1cmwoI3BhdGgxOTUwXzFfKX08L3N0eWxlPjxwYXRoIGlkPSJjYW52YXMiIGQ9Ik0zMiAzMkgwVjBoMzJ2MzJ6IiBjbGFzcz0iaWNvbi1jYW52YXMtdHJhbnNwYXJlbnQiLz48ZyBpZD0iaWNvbkJnIj48cGF0aCBkPSJNMjYgOC4wMDlWMjlIN1YzaDE0LjA1M0wyNiA4LjAwOXoiIGNsYXNzPSJpY29uLXZzLW91dCIvPjxwYXRoIGQ9Ik0yMS40NzEgMkg2djI4aDIxVjcuNTk5TDIxLjQ3MSAyek0yMSAzaC4wNTNsNC45MzkgNUgyMVYzem01IDI2SDdWM2gxM3Y2aDZ2MjB6IiBjbGFzcz0iaWNvbi12c28tYmciLz48L2c+PHBhdGggaWQ9Imljb25GZyIgZD0iTTE3IDdIOVY2aDh2MXptMCAySDl2MWg4Vjl6bTcgM0g5djFoMTV2LTF6bTAgM0g5djFoMTV2LTF6bTAgM0g5djFoMTV2LTF6bTAgM0g5djFoMTV2LTF6bTAgM0g5djFoMTV2LTF6IiBjbGFzcz0iaWNvbi12c28tbGlnaHRncmV5Ii8+PGcgaWQ9ImNvbG9ySW1wb3J0YW5jZSI+PHBhdGggZD0iTTMxLjY2IDI0LjA2M0MzMS4zMTIgMjUuMTE2IDMwLjY2MSAyNyAyOC40MTMgMjdIMjd2MS4zMTNjMCAuOTA1LS4zMzUgMi41MzctMi45NjUgMy4yOTgtLjkwNC4yNjEtMS42OTQuMzg5LTIuNTMxLjM4OS0uODMgMC0xLjYzLS4xMjgtMi41MjYtLjM5MkMxNy4wNjEgMzEuMDQ1IDE2IDI5Ljg0NCAxNiAyOC4zMTNWMjdoLTEuMjMyYy0xLjY5OSAwLTIuOTQ0LTEuMTQxLTMuNDE2LTMuMTEtLjQ2OS0xLjk0Ni0uNDY5LTMuMDIxIDAtNC45NjcuNDUxLTEuODgxIDEuOTYtMi45MjMgMy44NDUtMi45MjNIMTZ2LTEuNjk3YzAtMi4wMDUuODY2LTIuODQ1IDMuMDg3LTMuMjM4LjcyNy0uMTI4IDEuNTA2LS4wNjUgMi4zMjctLjA2NWguMDAzYy45MjEgMCAxLjcwMy0uMDcgMi41MDQuMDY0IDEuODE4LjMwMiAzLjA3OSAxLjU4NSAzLjA3OSAzLjIzOVYxNmgxLjQxM2MxLjE0MiAwIDIuNjM2LjM1NiAzLjI3IDIuOTEyLjUxNSAyLjA3Mi41MDkgMy41NTktLjAyMyA1LjE1MXoiIGNsYXNzPSJpY29uLXdoaXRlIi8+PGxpbmVhckdyYWRpZW50IGdyYWRpZW50VHJhbnNmb3JtPSJtYXRyaXgoLjU2MjUgMCAwIC0uNTY4IC0yODIuMjcyIC0xNTEuNjkpIiB5Mj0iLTMwNC43NTQiIHgyPSI1NDEuMDE3IiB5MT0iLTI4OC42NjgiIHgxPSI1MjIuMzIiIGdyYWRpZW50VW5pdHM9InVzZXJTcGFjZU9uVXNlIiBpZD0icGF0aDE5NDhfMV8iPjxzdG9wIHN0b3AtY29sb3I9IiM1YTlmZDQiIG9mZnNldD0iMCIvPjxzdG9wIHN0b3AtY29sb3I9IiMzMDY5OTgiIG9mZnNldD0iMSIvPjwvbGluZWFyR3JhZGllbnQ+PHBhdGggZD0iTTIxLjQxOSAxMS43MjVjLS43ODYuMDA0LTEuNTM3LjA3MS0yLjE5Ny4xODgtMS45NDYuMzQ0LTIuMjk5IDEuMDYzLTIuMjk5IDIuMzl2MS43NTNoNC41OTh2LjU4NGgtNi4zMjRjLTEuMzM2IDAtMi41MDcuODAzLTIuODczIDIuMzMxLS40MjIgMS43NTEtLjQ0MSAyLjg0NCAwIDQuNjczLjMyNyAxLjM2MSAxLjEwOCAyLjMzMSAyLjQ0NCAyLjMzMWgxLjU4MXYtMi4xMDFjMC0xLjUxOCAxLjMxMy0yLjg1NyAyLjg3My0yLjg1N2g0LjU5M2MxLjI3OCAwIDIuMjk5LTEuMDUzIDIuMjk5LTIuMzM3di00LjM3OWMwLTEuMjQ2LTEuMDUxLTIuMTgyLTIuMjk5LTIuMzktLjc5LS4xMy0xLjYxLS4xODktMi4zOTYtLjE4NnptLTIuNDg3IDEuNDFjLjQ3NSAwIC44NjMuMzk0Ljg2My44NzlhLjg3Ljg3IDAgMCAxLS44NjMuODc0Ljg2OC44NjggMCAwIDEtLjg2My0uODc0YzAtLjQ4NS4zODctLjg3OS44NjMtLjg3OXoiIGNsYXNzPSJzdDAiIGlkPSJwYXRoMTk0OF8yXyIvPjxsaW5lYXJHcmFkaWVudCBncmFkaWVudFRyYW5zZm9ybT0ibWF0cml4KC41NjI1IDAgMCAtLjU2OCAtMjgyLjI3MiAtMTUxLjY5KSIgeTI9Ii0zMDUuMDQzIiB4Mj0iNTQxLjU2OSIgeTE9Ii0zMTQuNDg5IiB4MT0iNTQ4LjI0NSIgZ3JhZGllbnRVbml0cz0idXNlclNwYWNlT25Vc2UiIGlkPSJwYXRoMTk1MF8xXyI+PHN0b3Agc3RvcC1jb2xvcj0iI2ZmZDQzYiIgb2Zmc2V0PSIwIi8+PHN0b3Agc3RvcC1jb2xvcj0iI2ZmZTg3MyIgb2Zmc2V0PSIxIi8+PC9saW5lYXJHcmFkaWVudD48cGF0aCBkPSJNMjYuNjg3IDE2LjY0djIuMDQyYzAgMS41ODMtMS4zNDIgMi45MTUtMi44NzMgMi45MTVoLTQuNTkzYy0xLjI1OCAwLTIuMjk5IDEuMDc3LTIuMjk5IDIuMzM3djQuMzc5YzAgMS4yNDYgMS4wODQgMS45NzkgMi4yOTkgMi4zMzcgMS40NTYuNDI4IDIuODUxLjUwNSA0LjU5MyAwIDEuMTU4LS4zMzUgMi4yOTktMS4wMSAyLjI5OS0yLjMzN1YyNi41NkgyMS41MnYtLjU4NEgyOC40MTJjMS4zMzYgMCAxLjgzNC0uOTMyIDIuMjk5LTIuMzMxLjQ4LTEuNDQuNDYtMi44MjYgMC00LjY3My0uMzMtMS4zMy0uOTYxLTIuMzMxLTIuMjk5LTIuMzMxaC0xLjcyNXptLTIuNTgzIDExLjA4OWMuNDc3IDAgLjg2My4zOTEuODYzLjg3NGEuODcxLjg3MSAwIDAgMS0uODYzLjg3OS44NzIuODcyIDAgMCAxLS44NjMtLjg3OWMwLS40ODQuMzg4LS44NzQuODYzLS44NzR6IiBjbGFzcz0ic3QxIiBpZD0icGF0aDE5NTBfMl8iLz48L2c+PC9zdmc+;" vertex="1" parent="1">
          <mxGeometry x="280" y="188" width="32" height="32" as="geometry" />
        </mxCell>
        <mxCell id="yA5KAvl37-WxbWNlHDcd-4" value="" style="shape=image;verticalLabelPosition=bottom;labelBackgroundColor=default;verticalAlign=top;aspect=fixed;imageAspect=0;image=data:image/png,iVBORw0KGgoAAAANSUhEUgAAAZ8AAAHRCAYAAAC1sLSIAAAAGXRFWHRTb2Z0d2FyZQBBZG9iZSBJbWFnZVJlYWR5ccllPAAAA2ZpVFh0WE1MOmNvbS5hZG9iZS54bXAAAAAAADw/eHBhY2tldCBiZWdpbj0i77u/IiBpZD0iVzVNME1wQ2VoaUh6cmVTek5UY3prYzlkIj8+IDx4OnhtcG1ldGEgeG1sbnM6eD0iYWRvYmU6bnM6bWV0YS8iIHg6eG1wdGs9IkFkb2JlIFhNUCBDb3JlIDUuMy1jMDExIDY2LjE0NTY2MSwgMjAxMi8wMi8wNi0xNDo1NjoyNyAgICAgICAgIj4gPHJkZjpSREYgeG1sbnM6cmRmPSJodHRwOi8vd3d3LnczLm9yZy8xOTk5LzAyLzIyLXJkZi1zeW50YXgtbnMjIj4gPHJkZjpEZXNjcmlwdGlvbiByZGY6YWJvdXQ9IiIgeG1sbnM6eG1wTU09Imh0dHA6Ly9ucy5hZG9iZS5jb20veGFwLzEuMC9tbS8iIHhtbG5zOnN0UmVmPSJodHRwOi8vbnMuYWRvYmUuY29tL3hhcC8xLjAvc1R5cGUvUmVzb3VyY2VSZWYjIiB4bWxuczp4bXA9Imh0dHA6Ly9ucy5hZG9iZS5jb20veGFwLzEuMC8iIHhtcE1NOk9yaWdpbmFsRG9jdW1lbnRJRD0ieG1wLmRpZDpBQjg3NkQ4MUY1MjdFOTExODlGMEM0ODMzQUQ0NUVGQiIgeG1wTU06RG9jdW1lbnRJRD0ieG1wLmRpZDo5Qjg0MjMxQjI4NzIxMUU5OEVFM0MwREI0RjYyRDZCMSIgeG1wTU06SW5zdGFuY2VJRD0ieG1wLmlpZDo5Qjg0MjMxQTI4NzIxMUU5OEVFM0MwREI0RjYyRDZCMSIgeG1wOkNyZWF0b3JUb29sPSJBZG9iZSBQaG90b3Nob3AgQ1M2IChXaW5kb3dzKSI+IDx4bXBNTTpEZXJpdmVkRnJvbSBzdFJlZjppbnN0YW5jZUlEPSJ4bXAuaWlkOkFDODc2RDgxRjUyN0U5MTE4OUYwQzQ4MzNBRDQ1RUZCIiBzdFJlZjpkb2N1bWVudElEPSJ4bXAuZGlkOkFCODc2RDgxRjUyN0U5MTE4OUYwQzQ4MzNBRDQ1RUZCIi8+IDwvcmRmOkRlc2NyaXB0aW9uPiA8L3JkZjpSREY+IDwveDp4bXBtZXRhPiA8P3hwYWNrZXQgZW5kPSJyIj8+BUqd1gAA34xJREFUeNrsvQeAHNWVLnyqqsNEjfIoZ6GACAKRczTBCbzGNrbXJtgEG+P01vvve8/+/da7XodNv9eBtXHYfU67XrwYTDLRZCGMCEIgBAIhUNbkmQ4V/vude293dU33zEgajTTS+fB1dVdXV5rW/eo70XEchw5y4AJdNTw1Umqk1ciqkVGjPjayZqTNdinzvYP+BgkEBymi2AjMKJpRUCOnRj62zJv1vtkG24dm2P0JhgmpQ+Q6HTPiBFRnSKdJjUbzus6QUsZs5wn5CASjnnwsgRQNsVjCweiLPXC6ZuSr7Cs0c4EQ0IFCPmEYHtAX6Lpu6WVCAWUN4TT29vbeIz8FgeDQwF133X3bP/3+Tf+PN3/ml+ZBM23mBTtHUI2HTiYgNV8IARk0NDTs+dx8iCkfSz5p86OzBCQQCA4VNM84vHXhCZec+rG/v1y9G6tGixpjSFtBGsycYEmpHzGpCVesIcMhDA5R8knF1E+d/AwEgkMHQeCzxWfqklPfe/JHv3FZjHyaqdIMnxUCEvLZW+KJE5AXUz9WAQkEgkOFfPyg5G6YfviZ7znpw3/7PkM+loAahYCEfPaF8okTUErIRyA4xMgnDLz4+xlHnPPuEy//2nuNAmoWAhoZpA7Ba44TUOoQvQcCwSGLKAz7PXTPPPK890ZBED3566/cRpXBBoMFF4QgIAlCEPIZivqJE5D1AQkEgkMEYRRWtfjMWn7BJZHCyv/4f2/f3V0KAQn5DJWE4mQkslkgODTngH6YfcyFl0ZRGD31n//n97R7OT1CQEI+AoFAMACiaMAHzjnHXvw+tU341G/++k5RQEI+AoFAMGKYs+KdfxZFQbTqv/72LiEgIR+BQCAYBuETDcXU7sw97j3vhw/o6Vu+frcQkJCPQCAQjBScece/97IoCsM//fYbfxACEvIRCASCESOg+Sdc+kGEYT/zu2/fKwQk5CMQCAQjRkALTn7/hxAFt/q2f7hPCGj4yKea/XPI4cexqtEHKtwaQ0KtBQLBkAlo4SkfuBxRcKtv/8cHhICGh3ziDdOcxOuDAbi+dGzYqga2xI4rPwOBQDBEAvoIFNCzv//nB4WA9p58bMO0pBo4WEjIkk8mNux7e/0CgUAwBPpxnMNO/dBHozCInrvzXx4SAto78klRZbG8eOmZg4186szIUmW/DoFAIBgyAS06/SN/HlEUPn/ndx8eZOtICKg2+aSp0gzlJdTQaCcgl8rVq23rbFupNivkIxAI9oSAFp/+0Y9HYRi9cPf3HxEFtGfkk40RUJKI4gQ02sknTeXOpQ0xApKWCgKBYI8IaMmZH/u4EkDRC/fc9KgQ0O6Tj1UEdiK2E3WcgEaz8rHtE6y/xxKQ7dUhnUwFAsGeEpC75KwrroACWnPvDx8TAto98qmn6qYo6w9yDxLyiaufOAEJ+QgEgr0joHOuvBJRcC/ed/PjQkC7Rz5NCSWQocposNFOPrZvT7x1tg0+aJB/PQKBYC/5x1167tVXgYDW3v+TJ4SAhk4+jed9+pf3HKo/nPf8xa3yr0cgGGHc+s33HHQEdPh5n7waBPTSAz97UghocPKxJiiBQCAQ7CUBLTv/2qvhA3r5oX9fGftoKKRySBGQJR/xewgEAsHwEJB3xDuu/4QioHDdwz9fJQqoNvlYH4hAIBAIhoOAXNc78sJPX4PuQese/sXTQkD9EU/AFAgEAsGwEtAN1yw89YPL1dsWNZrNQHBXMtcwWWmGQECHAvlIawWBQCAYfgJKHXXRjdctOPmyow0BjRECKpOPDUMWCAQCwT4goKPf+dnr55/0Z0cJAVWSj/S0EQgEgn1KQF5q+bs+/6l5J1xypCGfQ56ApJeNQCAQjBABHfOe//Gpece/VwhIyEcgEAhGlIDSy9/zPz4997h3H3GoE5CQj0AgEIzkpOul0se890s3zFnxzmWHMgEJ+QgEAsF+IKBjL/l/bph9zEWHH6oEJOQjEAgE+4eAMive91efmbX8gqVVCKj+YCcgIR+BQCDYbwSUzhz3Z//rM7OOOn9JgoCaDnYCEvIRCASC/UtA2eMu+/KNM488d/GhREBCPgKBQHAAENDxl33lszOWnbXoUCEgIR+BQCA4ECbjVCZ7wgf/z2enLzvrsEOBgIR8BAKB4MAhoDpFQJ+btvT0hYMQUHq0E5CQj0AgEBxA8BQBnXj533xu6uJTFgxAQHUxAnJHIwEJ+QgEAsGBR0D1J33465+fsujkWgRUFyOgNJXrdI4aAhLyEQgEggORgNLZ+pM/8nefm3LYSfOrEFBDFQLyRhMBCfkIBALBgUtADSd/9O8+37rw+LkxAmo6GAhIyEcgEAgOaAKqUwT0zS+0Ljh+jlE+LQcDAQn5CAQCwQGOVKa+8eQ//+YXJ89fMfdgISAhH4FAIBglBHTKx779hUlzl1sFNKpNcCn5k+4fnLZsCk2d2EiTxzdSY32GZk1tqfh8R1svbW/r4devbWqnt3d00+rXdsmNGyaMb8rQ4XPGV6zr6i3IPRYc6ATUdOrH/+ELD//0c9/esWH1G0P8WmAIKAQB9fb2RkI+hxDmtjbRmcfMpNOPnU3TJrcMuv2CWdXXr9+4gzZu7qC7H39ttybKL314RT+CGy344S3PDHqtlkyqEfqElgYa19Kw28d9e1sH9eaKtPa17fwAsPaNXbRha7f8mAX7d9LONjQrAvriwzff+K2dG5/fOFoJSMhnBBTOBy84XJHJxGHZH/aDcfYJ86mto5ceeeYN+sU9L9Gu7sKA38NEPFznMNJobsgMus0v//aSYT+ufUiI3zfc82de2rzb5C8QDCfS2cbm0676Z0VAn1EE9MKbNTaLDmQCEvLZRzh63nj6xKXL9+mEj6f5d525hMc7PvNruekjANxzED8GVOiv7lpDD7+wRW6MYH8Q0JjTrvznL/7xRzd8e9emF98cbQpIAg72AT596ZH0jc+eN2JK47l1m+Wm7wfg7/u/PnkGffeL57BZVSAYcQKqa2o5/ervfGHcjCUzqHoeULwW3AEVhCDkM8z46lUnsRIZSTz1wlty4/czCf3TF8+ny86cLzdDsD8IaOwZV33ni+OmLxpVBCTkM8zEc+JRs0b0mLl8kf7jwVfl5u9n1GXTdNWlK4SABPuHgOqbx55x9Xe/0DJ1wfTRQkDi89lPxANTGRTLuo1tNR3XNhx77vRxtHjuxKpRcqtfEpPbUIDItZc27KCevgJHriGsuqaSmTmOI+Zq3fOBAAIC5IFAsB8IaNyZn/zBFx78wTXf7tha8fsbyK+z33xAQj7DgIuOnzVk4rntwbVDik4Dko7sauHa9z65YUjH/dS37xu264VPazDT4oEWAPHj/1495MCA+HYI4T53xUy68NSFQyYiENBADxUCwb5Cpr55/JnX/OCLD9x0zbc6t742VCLZLwQkZrdhwJ+/66ghPXl/6Z/+QP9yy3NDIp5qQI7JT+5cS1d87S762r8+RE88u1EirfYx8LeCirH3HKHWQ8FfXnGK3DzB/iGghjHjz1IE1DxpzjTSlRDsaKRyJYRkQ7oRN8EJ+ewlYOMfLIERE9YX/un+YX0SBul85ebH5Q8wgsA9v/4bd3OI9WDAb0L8P4L9R0AtE8669qYvNE+aPZXKrRgsATXGCCizvwhIyGcvAXPMYPi7nzy6x2pHcOApIZgwoWQHw6XnLJUbJthvyDaOnagI6ItNE2YckAQk5LMXgA9mMD8ATGNi+z/4ACWLSMPB1A/8gQLB/iOgcRPPvu5HX1AENOVAIyAhn73AcUtaB93mtw+8LDfqIFVAP//9s4Nud8TCyXKzBPuXgJrGTTrruh9+oXHc1MEIaER9QEI+ewGE4w4GUT0HLxCIMJj6Ga3FXAUHF+qaxk8++/qbP98wbkprFQJKtmMYEQIS8tkLoHLyQBhqZJRg9GLdGwMHH4zWYq6Cg5CAmie0nnP9jz/X0NI6KUFATfuDgIR89gKDPdXuSRl/wejCG2+3y00QjCYCmnr2p378+foxk+IE1DQEAnKGm4CEfPYCaPgmOLTx7Lptg26DShUCwYGC+jETp53z6Z9UI6CB8oDc4SYgIZ+9gO00OhAk2kkgEBx4BDRp2jmf+vHn6ponwi7cQv19QPX7moCEfPYC23YNTj4Xn75QbpRAIDjwCKhl8vRzP/2Tz2Wbxu0XAhLy2QugftdggMNZ1M/BCxR+HQxSAklwABPQjHNv+Nlns41jJ9QgoAFNcLGlkM9IAmHUQ4lou+b9K7izqeDgw1DC7QWCAxkNLa0zz/30zz6baRhTjYAa9xUBCfnsJe5+bP2g26DXy1evO1MU0EGIY5dOG/DzoZThEQj2OwGNmzLr3Bv+7caRJCAhn73ErQ+/OiT1AwK68SMn0Zc+vILL9AtGP4ZSXmnjZiEfwehA47ips5UC+gz6AlHtRNRhIyAhn70Eyqz8223PDnn7s0+YTz/5yju5J46Q0OjGx995xKDbrHl1m9woweghoPHT5px3w89uTGcb4wSUzAMaFgIS8hkG3LFyI93/5NA7V0IFoRmbkNDoBXx4gzUQROmde1e9KTdLMMoIaPrccz/zb3ECsi25h1UBCfkME77x81VcwXp3YEnol397CbfhFp/Q6AAeFm68/PhBt0OLc2mlIRiNaJowY965N/zsM6lMfZyAhtUEJ+QzjEBzt90lIAs8RcMn9Ku/fhf7heBPEByYxPP3nz17SC21f3r783LDBKOXgCbOnK8U0A37ioCEfPYBAd18y6pBqx3XAurBwS/0g/95MX33i+eIGjqAgDI53/vSO4ZEPLc9uJbbngsEoxnNE2ctOPeGn37aS2fHDkBAmT0hICGffQCU2v/st+8ZUrvlgYAEVauGpCXz/iWdb336dPpfnzxjSMViEV79L7c8JzdOcHAQ0KQ5C8+94d8+NQAB1ccIyBsqAaXk1u4b4KkX7ZZBGminvDcVrvHdqy5dQWesmEM/vOUZ6RG0J0Q+cxyteX3XkHwwMK0dPmc8nXzUDFq+eOpu/e1APOhyKhAcTBgzec6icz/90+sf/N7Hv5vP5yO1yg6KLS3i/8hC87mT3E7IZwRUEMZwkBCU0Dc+ex5H1iHAQTB0fPDCI3kAAynSGa0tHAiyJ7DEI0EGgoOSgFrnLT7j+p9c/9D3rvieIqDBNh+UgIR8RpiEYMI594S5g4bpDgT4hBbPnSgT3V6Q+HADhPa/f/Cw/D0EBzVaWucvOeO6n1z3wHc/9r1isapfu5Ya6kdA4vMZYaDIJIISPvRXv+XAhD31C8HpjTwhqRm3f4HAEgQXwMQqxCM4JAhoyvylZ17/k2vT6XS8DE+tPCDr/+nnAxLy2U/ARAUlhEnr2r/5PU9guxshZ2vGSZLq/gHC6hFYIsEFgkMNY6cuXHbmdTdfowjIBiHE23HbVgzxKLh+BCTkcwAAwQmYwK746u2shoZSKy5OQMg7EYwM8LeBzw0PDFCwEk4tOGQJaNqiI8649uZPuq7bMggBpaoRkPh8DkA1hJIsl5+/mKsfDAUwwaFMjzyB7xsgkOClDTvosWc3SW8egSCGcdMXHXn29T/+xP3fu/JfwzCs5e+ptj4U8jlASQhE8sjqTVzGZShJjeedtIB+cc9L4neogV/d+Rw11usotiXzJtXcbu1r23n52qZ26uotCNkIBIMR0IwlR591/c2feOB7V4GAEFgQViGefqQk5HMAA/k8iGgbSjkXmN+glkT9VMf6N9uESASCfYTxM5YuP+u6H11933ev/GGMaKKByEd8PqNABYGAhuIHOnX5bLlhAoFg/xDQzMOPPfv6m68i7fupVobHluJh/4+QzyghoO/++qnB5W9LgxQkFQgE+w0TZi077uzrf2QJaKBmdGkhn1ECmIyGkhO0ZLbk/QgEgv1JQEeccNZ1/3oVVUbAJQuRpoR8RhEeWvX6oNvMmzFWbpRAINivmDj7qBPPuvZfP26Ip6r6EfIZRVi3sU1ugkAgGB0ENOeoUxQBXUGVbbhL+T9CPqMIUs1aIBCMMgI67cxPfv/jRvlUmN6EfAQCgUCwzzBp3jFnnnXNTR8X5TOKITXcBALBqFRAc48+1/iASiHXkmQ6ioAGZ4Nh264euVECwSB458LOdrkLwwvHcSLCIIpcxw0d1w091wtczw08L+U7Ry2e+MAPyvXehHxGEdBZczBIUIJAMDDef+EpEhK6fzCXypWuJdpttAAmt5OPHrgBHVoySFCCQCA4gGFbLHhCPqMEN37g2EHbO69+abPcKIFAcCCDiUfIZxhwxYVL9nkgwGVnzh9S2+2f3v68/EEEAsGBDM8MV3w+ewG0sP7ghUfSe89eQn94fP0+aWmAPj1D6euDrprS2EwgEBzgcOwQ8tkLvOOkebyEOQwEgZ46MH09+fxbdMfKjXu179OWTaEr33v0kHr5wNcjqkcgEIwCuEI+w4Dli6dWvAcJwTyGcc37V9C6N3bQi69uH3IvGSip5Yta6fRjZw+JdCxu+s9VonoEAsGoUj9CPnsIEAVaGNQCiOjIw6byiCuUTVs7+m3bUJfeLbKJ4+ZbVu21yhIIBIKRhpDPHsKa3HYHIKQFsyYO2zmAeP7jwVfljyEQCIR8DhUkTW4jCSgomNpE8QgEgtEKCbXeQ9xy34tDam093EBU2xVfvV2IRyAQiPI5FAFzFwZycM5YMWdYzWm1SOfeJzcMKXBBIBAIhHwOERKa29pExy1ppeOWTafDZk8ctBrBUIC22avWvE0P/ulNiWYTCAQHFRyF96vlpPM+/cvvyu0YPoCMlswez22tJ41rpInjdGTcjNaWCmKC6W6nMd9t3NzBVamHGpotEIxm3PrN98hNOMTQ0NDwKbXYrsZOUT77CFAqrFbENyMQCAT9IAEHAoFAIBDyEQgEAoGQj0AgEAgEQj4CgUAgEPIRCAQCgUDIRyAQCARCPgKBQCAQCPkIBAKBQMhHIBAIBEI+AoFAIBAI+QgEAoFAyEcgEAgEAiEfgUAgEIxS8onMEAgEAoFgxMgnVCOQWyEQCASCkSQf3wyBQCAQCEaUfApyKwQCgUAwkuRTFPIRCAQCwUiTT16NnNwKgUAgEIw0+fTJrRAIBALBSMFROFItm9RoVKNejTo1Mmak1PCw3Wi+RkOyuI60GRlznRgNvb29n5CfgkAgEOxbNDQ0fEottquxMxVTPYFRQVkzQafMcA8C8vHMtaTN9WUN0UqUn0AgEOwHWPKJDPkUzPu0mbCt6jkYyMeqOUs8QeweCAQCgWCEyadgyKcYUzxx4hntJXjchOqJE49n1gkEAoFghMknbyZjzxBRNeIZzcrHkk/GEGySeCTMXCAQCPYD+WBCDs0kbcfBQjyWfNJViCdjiLcoPwOBQCAYefLxzaRsSSc+Dhby8RPEkzaKpyjkIxAIBPuHfAJDMMFBRjpx8gkTxGOrOsRJSSAQCAQjSD5hlfXOQXSNbmxplZ4lnaDG9QsEAoFgH5NPtV4+Q+7vE4YH9tztusw9YZURkfQyEggEgv2qCgQCgUAgEPIRCAQCgZCPQCAQCARCPgKBQCAQ8hEIBAKBQMhHIBAIBEI+AoFAIBAI+QgEAoFAyEcgEAgEQj4CgUAgEAj5CAQCgUDIRyAQCAQCIR+BQCAQCPkIBAKBQCDkIxAIBAIhH4FAIBAI+QgEAoFAIOQjEAgEAiEfgUAgEAiEfAQCgUAg5CMQCAQCgZCPQCAQCIR8BAKBQCAQ8hEIBAKBkI9AIBAIhHwEAoFAIBDyEQgEAoGQj0AgEAgEQj4CwSGIKNJDIBiNSMktEAgOTIQh0c4On17f1E0b32qnzdvaKAgCtT5UpBPFSCgix3F4eJ5HmXSaJk9soXlzxtLc6c3U3OiS68j9FAj5CASCGtjZ1k3PPv8qrXt1G+UKAfUVHMoXQkU6RIEinTjx4DUIB7DkwwTkuvT222/Tc2sCasgoMsp61FTn0qL5U+jYoxdQQ0NWbrRAyEcgONSxqyOk2+9bR1t3tVEuV6RiLk/FYpF8v8BKJ4o8Jhw/8rXKCTXhhE7IS9eIoDgB6RFRlyIiJ5WmVCpFb257ix7+0w6qq6ujuTOm0PlnzKLGepFEAiEfgeCQwsY3t9M99z9PbV0R9eR96i2AdJSy8a1pzS493j5Q/zHJ1CAfizj5MDyfXEVCefU1mOXS6TR1d3TSaxteponjUnTBOcupddI4+YMIhHwEgoMZj67eSY+vXEd9uV7q6y1QoeArleNTMSxqk1qgTWtK8+j3kfbrhGoNm9lC/c82suRSihsKDfnwp+oftyahUKknVzGUD5Yq+pRWx8vlCtTVm6JdnRna9KvnqbGxkS4+dzEtnNUofyCBkI9AcDBh6/YO+s2tj9OuXo9JJ1/IkV9UJBNErHCgbLB0DdmAfEAeURgaSWP8PMbnE5Eln/KSt7c+IbMM1BLKx3H15yA3mPOY8IpFRUQ56u3tpd/ctpPGN7r00Q+cRg314hcSCPkIBKMa4I5//eUztLNtF/X2hJTPa5+OjVzzQ002eihucNwSabDqIW12iyJfk4eJbouMu8YxLyLzPfs+MKTkQv0wc0VMUKGrCcgNAx4p3+VzKRQ8RUJ19M8/fpLmzZpOl71rPolHSCDkIxCMQry9eSf98r+fps4en3pzfVQsKLLxddSaHUFUOcVHNZJ34pFttT6v9V29XpNWWFJSxqxH5jwCh0kRY90rBfrOTS/Sn3/oHBo7pkH+kAIhH4FgtOBn/7WG3ty0lXr7tGmrWAy0ucsoHVY2SltERl8ECVIJY/k7/N7R/1zdSCuckNL6c0MuHIDglAMQELDAyxIBuWS21vtRe/DCiJWVY818IcyAfXyuvX6GvvNvK+mopbPp3WfPlT+oQMhHIDiQAU753o9+Tzu6YMbKU86Y2aJIK5PQkA85VpE4VVWMmyCjkvKx28dUTpykLBnBzxMNUAbBmvnIBDZERhmBgPAeARDwCz33wjra9tYbdPVHz5Q/rkDIRyA4EAFi+fZNj1BPT4p6enupUCgYMxspxROZqDWHKSLQrFEiH8dNaRJwPK16jIQJlOKJ5+8ExmqGILeQCcT6fEygAWmSc0OfyjwFsoPSwRuriNJURFSc+b4ThVoUuSEHQaQjjwphgTrVefu+S/948yP02StPJUccQYJhgNR2EwiGCYViQH//L7dQV1eXIp8eDiyAcoiXxEn6ZKKEac2+hmpBTo4deM8Ra6aEjl0X3ya+nf3Mfie+TK6rVEJRORAiFg2H62lvb6d/uOmuUhSdQCDKRyDYz/CVUvj69x9UhNNIfbk+RUS+WgfFo0OpMdH7RulEdsJXCocjn80zYOhqsiATtRY6nllqwgjJmt7cElFVJTOT7+NHgSGUgDy2vnlKNeGFoxWRUkKRC59TYPxE5Wi5KMR5BqzYwkLI6kqTUoq++f376UvXnSMKSCDKRyDYn8D8/w/f/+9Svow2tfmlaLaKCDODZCmcpHKJKxuUxqmmdmopn+S6aqoorniY8BLnZonMKjargvr6+lgFfeeme+QPLxDlIxDsT3zz+3+kru56yivF4yviQUUB4hDqkP+Jcb6NkyJUxWGfjZnrHfXs57kZQvAavDCRB1JIszpy1frAAXGltC+IFRCV8nssaVlTmX6tfTmhKb+jKIPcwPiZoMC8vFI0altsBz8UKULC+khXQFArjU/KRsyl2EfkO5F+SvVxPqzfaEcY0P/348foM1eeLD8AgZCPQDDS+PV/Pkidnd1UyAemGKhfVgykc2uSisK+do15zSoRJH+6rsfk4+AzF0uPzXDaR2PK5ZioNPvdsqrSZOSYKDf855rjO1yyx9XvUUVBKSHmxCjkY2HJMQkxU55NaLXXg6NA1RHTlkNbt26l3965mi658Gj5IQiEfASCkcJ9T26m1a92MeHki6jNFrDKCbgqgcNTNCsRU+ST03OiFJMKpTLsA4LCsUoH/peiq5UOk4CrgwLIS5soOBuYkDIkpGu9ORGVkkWZkIiMuUy993S+j4MINigiBLSp84QCCqOcOhUsfc42wjmzUnLU5yj5A5qDSTByWTn5SomBMINiSHmcvZehlas30RFL59CC2WPlByHYLYjPRyDYA/h+QPc+8IQpS1PoF9UWRzyazfpc4q/jfh7r38Ey7uux7+MD1amrva72/aTvKOkjSvqCkn4hq4h0JQRdFw7RfHj981/fKR1VBaJ8BIKRwD9+7wEqoiioH3FxUDZLBcRRYaGNVnOtjwb9eFJsDgugaqBGnDT32UEODyb6IJVlpQOVQzCbqc9DNzLKyNNKxzN+nlCTQ7m2G5VesNnN1woooqIuVBpCIYVcISFSn0Whr85VV0OAXwh5P1z9jZNg8V1PXVdYMtsVXW1mwzv2AXlQS/Ab6Si+zjBD//TDx+lznzxJfhgCIR+BYF/hqT9tpJ07d1LkpRQBlaPaoqhSJZSCAoySIJtbw9HUHpMMmfDqiM1rGB4bz1iNsPvHK5nhAkNmjmcMFq5TIh+dRKrJhz077PMJtaIJHRN+Hemio7wfmOEK7PuBCQ6Fd0K/qH1Ika0BF5XOn6P2zGGtjwkmRvi5Mtk0d07dsnUXTWkdLz8QgZCPQDDcwBx/671rKAcHDlcu8NVCTdRQDY5tYYAaAykdGBClmSwCkIAHNZPWJGOWkZdRI83DMe8RARe4mmR8RLap9yXTHUjB1HhzDBnZcj0elAzMYqnAmMjSHM1WDH2OZoOqCZ08R7s5blGddwP7glxfXUNRrU/XsSKKFAlxYhCi8AIEGNiKcDG1FWo6Qw6TX9RRdj/81Ur63zdeID8SgZCPQDDc+M9bH6HOzk5WJvD1xNtc21I2utinw0mYDjn9Kgw4iDRTskab2TytPtTQ5OMp8oHa0eTjgqgS5XXYCIbXLlVEtyFijRVWZEOwHRPl5iALVr930rq6DhJPoarwH1RNKqWZFf/DOcLoFjqJaLo4Ceu6cNoHROxzghp84JHX6KxT58kPRSDkIxAMFzDJ/mnNdjZn+UqS+Oi9gxptkfafBEw+OlSaM2Mc7eNxU55SHNrHA8WDfB5Eu3muVjyh2oZSWQpTLkeQsTlOLUPO+9H5QSA7hGI7XMlaB1AHZWcP/79LVvH4nKcTGsUD/wz7fKKcIiOY+PDPPoPSBWr7vDq2VjRRAFJUSicdMlk5uJbQlMk2VbMj9AFiIx0Uns+bhr7DkXxFn+j+x16kM0+ZJ9UPBEI+AsFw4de3reLsfsdLKSIKY5FtlVFhtlio9fXYCgbax6P9Oqx4HO3r8ZTqiFj96M9cs41OOkVUmlsKvWZCIK1IfE4OdUu+JpdsNWviytQI7/Z03zj29TiRVjpsDuSgB/yfZ87e060d1PswcFhNOWAUJJgiD8ioHz4eWJicigg4RL8BUIWPr3qJTj5usfxgBEI+AsHeAhP8mpe2UFEJg0ydmqDDYrm6ADtCPJ6okTHDZjATJKCYhSPXCFFrTChK8UDdqBGozxyleIIUTHBpJYrqtAqC5Yx9QQh/TnO0G5u/HJ3Xg0ADUAGi6mw1Ag5IiEw+kFpyvg4ygXxFDEqhuF6kSEiRSFAkL8A5+YpEXA58CODjYcIEgWjTWxgV2HznpNVe/JTxGZkWDK4Orgh1uByTXMAmP4f68jn6wx9fEfIRCPkIBMOB59a8Tt3d3fx6sHyeeIQbJ4ZaxePGlI2JcHOtIoLPx6xPpVwuMqrJx1Y40BFyXHTAiCvHFB4tN4+jUnsFR5crKLXUdlj+eKx7XHwGMx4HRsTOjf1FZgklxC0WjJ+Kt9V+rGROj61fB3WHe9PR0UFbtvXQlMmN8sMR1IQkmQoEQ8AdD66lXKFHq45QT/JBqCPAfJjA4N9xjFks0qQBFROxwlGvU/o1VytIK1WTzvII8D6lFI9nFFA6TUWvjgLeJk1wwwRK/IQZLItqGVCUCSlMh7zE8NVnGPo9vP9KiWTV+jSGq4+XwrGRS1RPfqpe7UsfP4TPSX2GEaXVOSL3KJVhXxUi8yJXR+MFTHoOu4DYl8WVg1zS/VBdbgXOhKzUVW8uol/etkZ+NAJRPgLB3gDtEtDLBjkt2Ux9RTFP++TvGhVS8vnEhlU3jhl2vVU6JR8PXiPqjEnLNfk4ZGMYeNK3+UJ4HzplHw8fOzSdS0OtQvi8PO0T4mOTrueGkHBH19lhHw+C7mBGNJVLSxF5EfdTiKm4sNyCW197WQLZ4qUA7tO2bdsq7pFAIOQjEOwmbr13PfX1wdymJ1L4UDCBR2xuSrNTX4dAowqBNpPpPB4dUs1qh6PdUuwDctRnjol0c6BAPKOKoDo45FpN5J7amxpMIk4U8/WgRlxY2QTOkoCpZg1e4fBoT9s2mEQ48TTN56YbnLpk6yA4iiwQbQcVh3wlNyroCgYes4o24aE3UJhi/w6fD0f4haVW326MkAN1gFxPD61Zt5WWLZoiPyCBmN0Egj3B2pdf45yeuI/H+jnisO9BGPGOpPEOoi77dFIDdh4lon4dR13XdjeNb+8mtrM+Jyp9xpzF21BpXzh+sq5ctfOs1gU1fl3JzqxRqTJCyPfrgYdWyY9HIMpHINgTYG7t6uzhQqLx5mrIt0GVZx1pbVogmBHqEDA1oHhS2tHP0Wpa9QSIfHOzrIoc+Fw89Tqtk04j1G/zHBZNgfb7q3Wh3p9ZcgIqm930ubihDaEOyyTg6+RQRVFm6epcnUhXxWa5RkathCYpNYU6bxni0nCc6NqrAxOgeHDOUY50xLXLx0ISbBhE+lLZ2qfbNdjQ623tefkBCYR8BII9wY6dXVy9uVy/rf+TPsVK3yRfW9+OY6LbrM/HKVU6MJ85NkSbTMUCqlAuunu2qTTtlpUWq5CS9HJNxFtkCMozn+ludeWqCPYYrmn3UPb1cOicXcZ9U2Himswy4ig4qlCEtvMpup729vnUUC/TjEDMbgLBbuGp1a9RgHYJ3Jk04p49UY3+AexygXpx0qYqtct+nIgj3zyTSKqDCVChOmSy8fQSYcophEAHPPG7aZS88SnKQpEouZHWrYBCD+/1cIxfKEpHPELPV6MY216ds1v+fuAG/L2Q1ZRjkloz6rg64o2cLJ8Pl/5xdGh2yMmyjskpsgrORL6Ro0PGzf2IWEGVE08LBYeefXGn/IgEQj4Cwe7ilfVv8FO8faIPgqD0mfXxVIvoivfDsTkwSZ9JpY+l7JPxTOsEropAZeVT6ddxKvwy/fdLJV+R9QPFP4srp3i/oeR+7Tkkt0neA4t4DhTuG/KjBIJqED0sEAyAju6gVFjTTqgeVALpWGeY0lgdMLl4XLLG5SoFul0C1AOrGk4UTXORUJe7lepqB1yvDerF0UQRcupMoNe7mmzg20EAQegGFSQQ2exSU/czCk0SamjqsEFBpTwutUPWRBiajqeBwwVRdQm6QCsYlA0Ki1xwlHsQcdKpxxF6HJbN632u2E1UKBMQmcKqFFAhKJDHVeZQ9DuiXe298iMSCPkIBLsL6++xpiXdvyaq8HNUM8PFc1ySfqG4WuCosZKKoNLnOp+nvE1SqZhZP/ZFiu3HqSjsqY+rPy/5d9DmIYz65ySx4gmNf0jn9liflN3G7ieKKq81NMqQSdiY3uD3EQiEfASC3QAqGKBVTaBLGpQmVBBQmuuxEdd3dnniLX+PC0GzT8Q1IckO59VEXPfNi/lVPN6G53TP9ANyddUE4lwfkETIuTXabmbaNpi8H9tbh1ybYxM7AdJqR1ek1tsiP4hcfS6+CUrA+4DzkhwTrYfzK5qaPbrcjq3bFsY4j0nM1JQLWVBFVFA3y410szycY7zgqECQhPh8BIIayOXL/ou4WoEaqoWk/yW5Lq6GKkd8H/33WW0ZV1yD+WTKPiOrppya59ZvkohdRzWFZ4HcHrvOrtf9jiL5MQmEfASCoaK3r1gq1BlvqIY+OflCrirpxGG/E5rZPzSmLy4Uyn4hxxQJdbhaQOhoXw0i1HRBgyJZo5wmgIhJIzLFRePBBmWCId00gds1OCZCOjJqhOsj6HwcEz0dmnN3nVi3VPh50InVBivAi2Mi2biYaey87bGhBlH5AedPpoUD5KDP0YHyWxL0h5jdBAcEqjwd78mU5ezG951aT/Nx1HpyZ/WT8iiTTtd+shuiYogTGMjBKqEosf1AUWbJfQzpZjlUqsBddT9VqnZXuwYsk2owipkphXwEQj6CkSSSqHLecgaZCJ2BiGRP4Ozt+SvecQYyGeX6esj1UmpkjC8lidCQiFthZODpHt1FUWstKk/iUDVBxTnY75Ud+rwdiAFOJtepSjoR1zOIeF+OE3COjr69JtItdi5xAqkgOkIRBKNwqFw2rtr3Cr19prgqGT9UZM7ZHi8ahj+n4GCDmN0Euz0xR2XUJBKnEqPqGu35D6ZasESPn2q9fXbHz2G3DcOopDiSKqdqZYUa5DEUlTXY9Q/2HXv8XC7H6rDWfYpHxQkEQj6C3SGZgYjloL4H6YzDT+/JCd6a0+zzfDHXR25U9gnZoDRreopQERotryPdyiBJHtrPotQKV5R2dZ003cjAVAxwBjbdgbQi62fRxw6sCoq88ncj0zY71IIESx2YFpEN1+N9GsWCc8YyjHxeZ9/rOtoBEw+CDAJorDAonQeqI+ihVZp0VRAI+Qh2++n/UO7H0lCX7he1phVKWLEdJuC4+rHLaj6SSl9I1E+9JF+Xt48rpLB/HlEVFZTcR6kNdgzxBNrk8ZMqy77Hd3p7eyui26r9fkqVElxhH4GQj0AwZGTTLqXcWFkaKBD1hM9VzUxBTdYI6kWPUj/aj1NWB8wYrAYC/ZlRKa5Jv3HM9ryfwCoXhyPLHLwP9TFtWJoT6RC1ksIxIiUyg9WL2b8TuKXvu4H6jk9aVfGpRby0xKKD33zi2tj4rlEwLjmlc+YRhOQrwunp7lZLE4lnWkswcTmRic5T3wz0vlKo3CDSR1AFEnAgENR6MlNzfToWzVYOLY7KnTtdbXxDMiWUQMZLl9jAOu5L6sC8jxKfl1WHU1In3C8o0mY3vPa8WAFPTvpEOwOrgFx7ELPksy3tSx8vvi4qbRt/bevWlULES+0jdCg1GsSFxT513KDiqbXk2yHqV2suk8nID0kg5CMQ7C4aMilKq8k9HyMgHQIWcqNPp2QWC6iQ66V0pg5FAvSEbHw/BIc86qdFRbXOY/+O9b14UUp9V0/c3KEUrbDRusdR6/2A94VSOKWWCKzAUrxvzgci7MOSilsmA3VMz7RSCH2tpphTWDm5rJ5cEBzKvKG1KSs69PPxWblFah3UXV4pOr+3m4JCn1JnRb5ep+QTMuQauaW+Rujv46XKSbbZrCc/IoGQj0Cw2+TT0KAm0Y6aDn8uOxNTET1KHTSk6lgZsHrBQFImKxndepvMemYDqA2dAVpSKAij1n13dK007qdDTql7qmPK2nA5HtKlbWxotlU2riFEJjMWN06pqRzXX+O+Cvp8oth5YRkolZNX1+ErMg2LOXKUqotMiaG4YnIqCLns57JKCOTT0tIiPyKBkI9AsLtYdNgUeu2NLaboJ2fO8FM/N9fxIu7xwwU5A+3zwCSd6+mgBrRGcI0vx63jaLjQ97laAOq7wXcUgRgCn7uN8gQeaAXkeZpIoH4CHM7X/OSSbW9gJn1TfcGJp9JwxBwXxtbkE7g6yg6Fq/EalxCk2H8TBXk1CqyAorDI54LIvVxXuzpmQW1TUPsuaj9XqCP2tF+raHxDmvjgUPLVCs8QLQqLgnjS6jAnHjNHfkSCqpCAA4FgABy1bD6lUql+pWzs0388QoyM2oF/BPk/1odiI8SsDwVL2/cmHvVWbRstKqCAyhFy2icU309ZlFhflO1BlNxvEOjvxs/dngtUG4bdvny8qOo1J6PcbFSgVUDwly0+rFV+RAJRPgLB7mJqazNl6hvI6+nl6C/kt9jESZd9HXrytx09I87Xcdln0t2lFFCzQyk2u3GFNFYatl0B+3FAaj7aDmTJTaW1xPGVioA5DzWvQ13xmoVRqGu+habxHCLKXCvESu0NDBGEKf4up+igjrXvMvG4IB74eEBsqDiNLq3FPPUqtRPkepR6ybP/J4QiQ+5OoFUPqfdhYKL5In0gRX2sxTxDUq6nW3Aj4g1Rgo0NLtXXic9HIOQjEOy+aUDN7s3NzdTe3k5OoVChAChWkdqqFTK+GvalqMkaCqgO1NKYMUrI0/4e9uV4vASpsUkOxUBRHCfF/bjL+6SEjyeszCNyov45PghsYB+PIsIwCtn8B78P16pjQtHnhwi2fG+PIqkC+6RC+1kiMi8enad9R1Sh9pI9iqAW4e+RKGuBkI9AsIc4fNFU2rLlbd2YNPDYRwJHTGgd/5HuIOox6Zg8n0BXR4DIKHQrvVT0qW7MGHIzajuoHsiXQCfquFA9UFUBJvGs2nVKF5bGfnVLHeNqYsnDqoKJxjab03TDRQZ0lJ1WZhzVxvlCKa14AigdqJo8Fft6KNfdRZFSPUyESpGRn1fb+SYQosAqLQoLisB8XUsO16fO0WN/j6lgjXUue7I4og5dUHF9qWyGzjhxkfx4BEI+AsGe4oKzl9EjT7xAXl8vFckvRXKxojBN2bQqcIxSgVnNRJAZJQQ/ULGri9L1EdXV62AC4v5toWl1EGgWARGQa4ilXFonMmVrbGSZVkImxLqkUEylg5DKVRECHbzAfh2lrop9Ocr1adKJoLaMb4diIzTrySgvx0TBxdVQWQFV1qDD8DyP6urq6Nij5suPRyDkIxDsKeqzDk0c71Fnp6dUB8xPvgmvNqaoMDBEwUY1zqWByuBKCJx8qashoEFoGHVTbyGvlEEfZRoaKYP4t6io1AOSMeuYLLy0IorIRr5l1X71P9PIN/4TNyo1g7PVom2wgVU+Xqjrwzl+pMRODxUU6cC8BmXjIF/HL+hcHkS9FbXqQWQbFI/LprkiR8OloHAQ8YaKDkGeqx/g+iOb7xNFtlmqEmoRzygwG06b0BI7R4FAyEcg2COcetKx9Nbmh6mQD7lsjX3S54nfbMNKwLS0Jqt8bB6PE1MV6n2Qz1MBAQS5ImXr0oqMGsnNuOSmteoB+ej8noDNe1ATQagrG0SsVspqIxmNhuTUqOhTwS9SkCuo7+VNaHXAZkHr18ESZrgonnNkRqTD4vT7mM/H+qFcihdGdUu+L/h6oHouvvAE+dEIhHwEgr0mn+Pm0x1/+BP19eWpGOgMf8dEfUVIxDE9d8jkunBiZorYNOZy/o7D/h30yHEKefMvr8j5NcUgQ8W82t7roHS6nlLpDKVT9RRlUhSkc0pJZDifyE3pqtToIWTozoRD60ACX6mZsOhzZJqtuqATTgNWOGGQ46UH30+glQz7fECCoSIppX5YAQUgnTx/X+1QKbYiKx6XiRB9e3RNN+QPpXBdUEWOy/6erBoTm4kWzhsjPxqBkI9AsLcAryxdPJ86O3uooCZjrhJgVEdlZejQ1FrT+Tgc4aYm5FDHVXNzNzaocdanw+0KPPUfCEwLjAIVlRrJIaAhpVQOVzZNaWXhQW+kuEW2JR+tfKwKCTRJRGHpXNhnA5IqKAIhrXTIkA+X1DERbqVQ6lj1BesLcozyCaMwpnYcnS9EOiLQVrDOZrN0zPIj5AcjEPIRCIYLH750OW149RWlfrrVXO3yxByEga6R5ji6Bw98NfClmMoEHsgj6FM8kyWnGLBKiKBcAlPdOsXF19TSV6tcbebif5Vp9h2lgiyTFgc4GB+Km0x2tf+MI9PyO7KmMqVOfJ2X5Pnoy1PgqDbO4QngC8ppEuKcHhBSkZWPVjUgJJTWCdlnRaYvkWcCH/j8HRCwywPVHDJpjxpbsvTO84+WH4tAyEcgGC5g0l9xzFLavmslFYu97IPRqsj4XWL+dTaHOboXt8sFN41Sgj8F0XCOURE2ug3JnqTbD3AlH+gVV4dxJ8mnXx8fq85MsU+KAmOOCznEmj+D2Q2EgsRSLvUTcE5RZCPZgsAoIO3riQyB8WdQWGFUqlFn23XHz8NGuC1dspgcSe4RCPkIBMOLC89ZRmvXvk4v9r1JfljURT25ik6gJ3qYp0zl68jVNdUQ6pwGeXjalJVihRJyUIITZclDEIDrc14O1ITD3UjVOlQ2KMIX5HLwgeeaaDfH1HhzbVkDU12BdG8gjkxjM5lWOJaEohD+nIiVllY0at8goSDP21FYYJIJw4JRRDDLqW2oqBUbV0hgatX9JvjQDp9ONuXR5HEeffQSUT0CIR+BYNiBp/qLLjiZ3vr3O6hg6qehr45FqVuojQpzytWp4atBlQLOuYn0pA12Qukd5I9Gpn0bN62DjkGRUKimyOT3uDbELbE0rRTse8f4eiz5cDBEoHOJoqIukYP13B47MNWsWRmFOiouMtW4jfLhMj+lCgossUyPIe3rQQ03VP++5N3nSkUDgZCPQLCvsGThBDpsdgt1dfWy+QqKJkD0GAcDaJXhOMVyVQAvoyb+ApvXUi5yhNQyzGhyUSSAQAJy0lzrjbAth3KnuI8PJ7Q6uup1wDXe0rpPj6YCs0yQEffs0RFsrHiM8uGKBEWorhwrICYYdd5BVNQdUAO9vY2Sg48IS8+QK+grlw9p5842KvbmaN6CqdSQTXHPnhmzJtGRS6fJj0Mg5CMQ7Et85AMX0vo3f8PdS/0wMBWmw8oaa245Go79QrZKNCZyNme5nH7KHUtNYVKoGHCPx/6VwCgeHV0WmKi2MEY+2r9iKy2YHKPQNpfzK8gngFnOB5Gg2oGJZoPZDbbBIORCoqFRPvo8Q1MfTqu1nW27aNfOTo6uyyhChOLBGDt2LF1/xQXyoxAI+QgE+xpNTWk6/ZRFdOfdO2nLtl4uPupRH5uuAtt3hyPCopIwiUzVgihU2oVL6mCjFFfCdjj0GhUJimhdysTRV/TJL0ZUjIwCSnncljpb57GDH+Y1tnOZSgPs67G0ZHxAihn1OfgBH9MqGza3UZHVj2tIKQxN5QYbNRdomuvsK9K2bTspp87H9erJ8/vU9WaoPltHLWMy9MF3HUON9dKdRSDkIxCMCN593jE0bfIE+uFPb6Vn17xBU1vHlz6zaod9LyY0Oij5hnR+jy5MqhNR2YSGwDZFFJ29nawwuAKC+icaumld2cAx9dPcgPNpWpqbFAk2KUKwTeWCivPjAISgMkQaykZ3OEUjPKOMkEhqttMVuU35HPVZW1ubUjxdiuwyrHJCU2Vh5syZ9IFLTqXDF8+gebMmyY9BIOQjEIwkVhw1m9adciw9+uRaWtdXoGnTplFdykSHGZcMHPwgEZsbGprcG10hQft2uKup61BXrkhbt+5SRNTAviJKZznqjZxMqYo18nKCrjz1dfZSxttGrVMmUkPG00mmUEgx+mGfjQlAQMfR0Coa7n5aNNFtej3OU5faQYkehzbv3EXdSvW49WOV6kpxd1PH76Zp6niTx9VRZ/sORbhH9SvxIxAMBaKVBYK9xJ+991S66s/fyRP8xo0buYcPT/2xDqbVupTagYrX6DyKJfoGxbuQ2hwa1EyzA+9d4yPK5XL0xhtvUFdXF/ufsA8s7cC+MOLHsceyr5Ojr6+P3nzzTd43cndg6sPxsA8oLageRLcVFMc+/uQzpfMUCET5CAQjiEwqotNPnEv/fdc42tHWSxu39qlJ2qMpY9NGFUB1FMn0gitFqxX5szw/A4ZhnpVNBpWlC3mllND4R1dBoDDLoQm+mvxBPqHrUQAC8jlNlMJ8kXZu3kqTpzSzic8j0+SObLsF86QZlisgWKUTWKVjCLG3p0Bb27vIyzaSV1+n95drJ8p3UaNSZlPHtFC+/WVadPTxNLPVoZ1bX6OXX26mRYukd49AyEcgGHE8+eQqOvvss+muP/yR0rkCq59NakyePJmVCvtQPNP2zYgE66Gx1aIDRVJQGWHYS4FSLV7a5SWi4To6OrimHBRH05hx2qdkqk8HSq30+nmlWIwyIq2WbLScWzL/maoKoVZWjq2EEISseDo7O6m7K0eZxjGUVoqnT63buXMn1QU5ah3bQONa1Pq0R6effjItXDhTfb+Lu5U+9dRTNGvWLKqvrxfzm0DIRyDY18jn80E2m/Vg9vLz7TS1PqCLT5lAf3hykyKOsdTe20DrtuVo2pgUNWaVCkJtNQ4+8CsUkC0MikAApWlo4hiH2tt2UNillVMh8CmtiCADIilk1H56OJ7ORx8erhdXoDrsPwe15HHodOjqCLl41qctDMql2risjja95dU+Ojq6qbMYUmPjWKV66nBt1LflRZqgyGbSpEk0psGj8eOLtGL5Qpo3t4E8p4fL/oDsxo8fT3fddRddcskl4v8RCPkIBPsaIJ6urq7i7bffnoZiwcQ7ceJEOuaYyfTYUy9TU1OGo9La296ibjXjj2lpILudJgZTLodseZzI7pfGjUvTjo4uVlChE6vjBsWSzVFPTw8XCK3z0tTYlOXvgEg4wMANK31GperbWgmhYR1XXAgKTDLtnd1q6VPRTZeqMcDvg2X9mCYmGCicY45ZQq2TW1gN1U+ZWqpkjWuCD+mJJ56gE088UX4YAiEfgWBfY9OmTWlM9OyUR65O2E0LJgQ0ZnmWnlj9Cm1uLxI1TmZi2LSjg5rrfWquS1EqrcujaSLSJMRldTjEWSkjv4/GpAs0dnyaCsVIBwmECBroo6irj5rUl1PZFNXXp6mpAQmfSgT5veocUrqNNukGdLrttq5Krbt0I5G0WA5+8APq6c1z5YRxzU1cFcHr66BJGYeKYxXxeAGbASldTxOb1D7U9UVKIe3YsY0mT56iFZw6DsyBUIAzZszgIepHIOQjEOxD3H///Zz/Ys1NNqoMr6dOnUoF6qGX3mjjqDFUAmjfsZXy3QE1j6lXhJUy37V+H61u+vp6OVINigPKos40jwP5IALN9TL8mVVQ2BbrUV4Hx7froYbwfXQLAkHEATKDeurq7ONpANvB54PzmTdzMs2ZOY262rdSV1cbZesy9PLLL9P81kZavGSh2sZhZYTIPFyTJSC8fvDBB+kDH/gA70cISCDkIxDsA2BCtqoHCHRdTsrni9Td00ZRbifNmeBSk9NDr73+OrV1pKh5wlzq6MpR564izZqUpqyHsjgFY4YLeUJHedH6lEehG5m23DmeyFNqpJEw6hQpmyonnYJe3LRnCim43CSOlU0xRwW0cjAVqG1Em1/MM/n09uR4fSby1f4imjJ1Mk2b3kqTJzTRgnmtdPiS4+jrX/86zZi5kApdWXpw5Rpqbp1HMydqRQWyAsEh0ADvQYjjxo1j/8+73vUu8f8IhHwEgn2BBx54oKR6dDWDgFUIFAV8NXb9mDFj6OSTF1J7IU2rX9zEEXC9vb20Y8dbinzU5J/1jMohmjBhAmVSae3wL4YlwmBaMUEE7NfhwALjCwor+wnZ3CAoKZsPFM8dsnlD2Uw9m8vGNo/lcxw3roUTVs887Xg67ZQjqKmBaPv27fSjH/2I5s+fT08//wo99NBDdOmFJ3K+D44D/8+UKVNKKg1khJyjVatW0YoVK+RHIhDyEQiGE+vXr+fJHOQTVxUgDZAPlilFIpj0G+tTNGNqlr7zF3+hJvNddNNP/5sefuxZas9O54l6Z+d2mj65jv7n5z9ME8eOLxFGR3cPbdmynV58aT2tfn6d2lYpFiYfV/3DrddKB/VLyRYcNU3eIpPgylWudZmcDFp2O6H2A6nv4rxBIBgwAULtrDhmEZ1/zqk0aXyzOgdNeB/7yPvo6aefpFde2UCL50+ntWvX0so/jePAgro6X+3bYYICAbEKU+fe2NhI69atU4Q1VxHaeBLxIxDyEQiGCY8++mhJiQAgnrjqsaYukABUxWmnncYTfWNjM33lKzfSC2s76de33sv72eT30NFHH8nFSS2sYhozZhwtOGwpnXeBQ6tXv0i33v4H6ujqLm3H+UNOOX9Iv9eKKzKGuFRaq5Ig1KaxpsYxmnTU8RBGfeRRS+mUE5fTnFlNlIKaIr88Qajtv/zlL9PHPnYV7xPBBKtXr6bp06fTnDkTCe4oHHPXrl0c6YfjxMOvL7vsA4rwUmJ+Ewj5CAR7C0R1weFuCQZ+nqIfUi5XoN7eHKseKIwAodB1WZo0cTydcfqpXFkAVFWv/m/Fkno6Zsk7afu2U+iPDz1KGzZsIA8kglYKpWZxpIuCUpGaMkQnHz+bUtEx9OOf36UUR4M6BsgvRbalQqoUVKDNcqEiG9/UkaurzzKRgXTGt9QpommlY5cvo2OOWkwTxo8x5FAw33crWkK0Tmyhr331L+mGz3ye5s1dqMi1l/74xz/SuPEXU6olQ2kltUC6CKqA6sHxoKyam1vo7rvvoYsuutAQo/x2BEI+AsEeAxFdVp3o/JmII9wQcWZ9PVaVQF2cfvrp7Aux62zFawD+n3e84x30i1/8okRmceg+QFHpWHDoY5KHuuAW1lSOYgsN6diKCggEgHpqahrD59HaOomWLFlCRx9xGM2eqVSOy4W01fkUS6SlTX6Vx8eZwn9z+eWX03/8+r9o5sw59MILL7BqO//sM8mt134vqB8EX4B4rP8HlRleeOF5WrbsCPnhCIR8BII9xSuvvMJP+TrQwGMi8f0iq52urg61hCJKMyFls2kaP34sHX/88RVkZX063DTbCaitbbMiCqe0jY0csLXgbJWCUB2nWOimpYtnKlFSrwMIohQrFF1w1GFiqqvPKLJpoNbJE2nm1FaaMXMazZrWShMmjuHt9C79komufBiPz9spdUQ1pkNzXld/4uNsctu8eTMtnDuL1ry8nqZPm01HHDGfGlytwHbs2KFIrlWHeCsSBPk999xzNH/+AnWNDWJ+Ewj5CAR7AuT1xKPO4r4eRLDZz0AMmHjPPPNMVgDxigNxYB9cP02RxkCVofEZ1BWOcfXVV9OkiTP4fRi4XDMOZFhXl9G135rr1ERPlAYvhVwFh/v5oA/QQJN/RRfWEu2UP8N1/PVf/zVde+21rHBQz+3xxx+nSZMaFblNV8Tm8r3A9cCXZP0/UGu/+92t9P73f6BEvAKBkI9AMESsXLmSo9fKeT0hFdV7mNtACoWCryZXj0Ou6+vraOKk8XTiSceXJttSIEAUmIldT8TI7bFmuUrY5nMuk1exGKjjh7T88Nns3I8ThW2nrVEscYfjOvx9iClLgNWgScGSU/VOK1BiU1on0F/+5V/Ql7/8VZqklFVfbyc9+sgqanrHBJowNsvngXuBHCCU5NH+H+QCNdJ9991H5513nvyQBOZXLRAIhgTULrMla6zvBk/6mGyhfOIRbnC8n3vuuZW13CpURVnR2MoCceVTTR1A6QCY1G0l7Dip2fNK7ie+bfy48e1suZ3459W+i/UIs0YRUSgcRL3h2tesWcMkbAkOHVBhirQ5R1Bk8AnBbCm9fwRCPgLBEIGkSevHsMRjgwz6+vKsenSr7IArTE+fNoWOXX4M98qJT+LlMjplokKuj/XFWMWjecwtldyx5IMgAiiJ+D9dh8tUB7yt9tv4MRWk96fVFlWQElo4BFFYOi+0bsBIkl+SLHC8j3/sclq0cC4V8700bdpkev319fTmpi2UywclAkL+jy33g3uH8jtov2BJSSDkIxAIBsFjjz1WqqcW9/Ug5NpGuNkJG5Fl6O1TSSjVgYkayileey0+Mcdf43hQPdWUS1LVVFsX91VVJRXHqXr8asoJSuav/uqv2FwI1Qal99JLL7G6wXlyGR/fZwKy+8H9AAH97ne/66fQhgpzLiXIL1PIRyA4aPHoo4+piTtVcpYjr6dQDGK+noJpM13kCLepU1vpqKOOGJQQAHw/+ZkWDm6/SRfKB8mbjhOZYcrnkB5l055jRmUAAVe0NqpEK51ydQSjj7hkT3xOT76Ov582ZSpde81V1NPVTuMVqfT05Wjd+lepu6eP7xG2hcpBuLU9VxuK/cgjjwxIMOo8q3KLId0S5Ncp5CMQHJTABPjUU6tKtcvivh6oHuvrsZM6VM9ZZ51VMs/ZUTHpx+ZM+EZgSqv4R+m6/QgLKgLHA/n0N+OVj1Ft/WAEmFRRcR/SQNsBZ5xxBl100UWs/nBuW7ZsoTfffJOJmXsGoUyQIh+8j5ff2bRpE7311ltWWVWoGLOdcIuQj0Bw6AKFNNHOGi13oAzgI8mjB04ONdz6Sr4eTPx12SzNmD6dli9fXpUAkkRkyQemq2pBCXHigOqBikBSavz7JX9NjDCqkUc1M1cy+i1+/GoBCv2WSHL1XPrE1VfTYQvnURihVUQTvf7aRtq6eTvl1b2xCgjmNxCo9ZuBqFCYlVtEaKIRphHyEQgEdhJGUmU1Xw/MZbaGm52sUbrm/PPPr6hUkCSCJMEgzNqGbiePHQfIB8fFpJ0kiGRkWjXSs8e1fh+rQpJkFCfIeARctfwk+xlylG688UZ+DSLFepQgwrVxLpLZFxJQ7TnY/J877rhjQFUmEPIRCA45oHwMJsm0kj1I1gz8iIoFRT59Oerr7ilFciG6DI3h5s2bQ0uXLi7/44pN7kkysZ9hgk6GWScJC98F8QBw2A82USe/Hw8BT/pwLDFUU0HxfcTNhqVlqAeuf+bM6XTFxz5MvV3dNGZsC7V1tNPGjZu41p01v3HLbnW99pxAutqs+ZT82IR8BAKBnVwRXm0j1mzLhHhej/XrYD2qGZxzzjkV/ppawVjxz5Djk4yKq2Z2w3HhG6qejEo1zW7xnKRkLk/y+9X2g+uJq6Wk4op//8ILL2QfEO4P7gfK8MD/A1+VJSBcrw2y4ArbSi2i/QLMcqJ+hHwEgkMed975+1KQgfX12Lwe5OXEI8hACgsWLKBFixZVTOC1SM2SAL5rS/JU2y7+2oZZJ/1H8W2qBR7U2m/ys4HW2/1VVT8G+AxVua/55JU0e/Ys9VnIRImggq3bdlAuXyztB8mpuJe2+jUa6N199918jUJAQj4CwSELkAJaZMd9PfFqBnFfj63hhryeuHmrVimbuCkN+0kqiGrQxUt9Pk4131HSv5MkjSQh1lI/SWKzBBk3zQ1WGw75P9dffz2/B/ngvN9+++2q/h/riwIBwZyI/j97mv8jGH2Q2m6CUQXM6Ts7fdq8rYe2bO+iHTv7qKu7r9Qm2pZzaWqsp4kT66l1YhPNnNJME1rS5A7xUevee+/lKgKlvB5EuBUL3K+ns7O7QvXA2T5/3hxasviwmhN7vJhm/HMkZOL7gxGQDTaw9dyqKZ+kmc++tvck/vlQFFGcqKpFug0Uwr1wwRz6wGWX0v/9+a85rLq9vVMR0BYmozFjUpRJ6yKpuH6oHtt+AQT17LPP0tFHHy0/dCEfgWB/k01EG17fQo+ufIl27uqiPhTXDNVkrkaAdtGhVzOf5ZVXUaYm5B95Gi2ks0TjxzTSCcctoiULZ1Y1d2GyRqtoW2XaZurDWQ7VA5MbntRxPKxH9eaLL764HwnEJ+i4CopP1LaatSWnZH02e122mjXCrHE+tdRRNV9PNTNeNSWW9Ockw7drKZ1qvi2se/e7302vrH+d/WYwS8KnU1+vqyF4bj1vA78Zgg6QG4UHBpgV0Sdo7ty5FSZGgZCPQDBi6ubRP22nx1etKyUrYqCuJuZeRFexWSnSJiE30m2a0QG04indVAHwTJtpL52iXV0FemPLWjXhv8wtCA5fMo8uOH0WpUx1G3QV7efrKUSU6/P5ydwWFgUhNDTUcXQbWgtUM28lJ/3kJI4cHxvxlSTCZI6PDbPWHUrDqiSSNJvFCaVWyZ54Y7v4+dt9xUPJk2a7asTF69QDQ8r16NrrrqYvfekV6uzQAQZbt25lJZRJt3INOlQUwj21zfFwbVBCt99+O33oQx+S9gtCPgLByKBY9OlXtzxMmza3U97PUr6onfyWfPpl8Zvima51tFNQOcHbEjS2OVtRR25hYsQyl/No5arn6dln/0St47J06gmH0erVz1JdfTnCzaoeRGxBfeDJ3fot8HSOfj21TF+11EWcfOAjqVWLzW5rq1nDL1Itd6cWuQ1mzkt+Xk3JJBNaqx0zSbyuWQdFg94/X//bb7FZra+vhysg1CuyQY6PbgFO7P+ZMmUK/01wfxEBh/YLqAouEPIRCPYZOrpC+vdbnqbtO9p4si8qkigWe0t+nNBkySsKKvWb0QRkTVB6yQWgTb0yfO45CfNRaHw1pAMJ8urJG0/cvekM9eQDeu0Xv6Gpk1vKDeF8okJe9+sBUZR8QIoIQRpHHbmM5s6Z1c/cNphZyn6GsjO2UGgc8XI9lnygDmyYdVyNxCf+Wvk8A1U7SPp6kkpoMFNbNR9RYJvQqUs44vBldMl7302//e1vuacP/D+bt2yjdKaOxrj1TDa2AR18Wrb9At7D/Ll06VJRP0I+AsHwApPKLbc9TmtfaaN84FBfLs8TUTK6yhbJDAzJlP0biXBfMzGGNiCgn6/FTKwRlcxDXPLFD9j8M6khMjk3oTHz6ZI2IB/rn7DkA9J4xzveUTWCrFZpmjhwnaa0zIDKyfp84j18ahFaLX9QteNXI6BqSihOaMnrSwYj1ArfRu8fEMnL69Yz2Vhflza/6Wg3G0UI1QMCgjKCv2jevHk1c5sEoxsSai0YcQShS4+t2krf+N6D9MzaduroLVJnVzf3xUG3zkKg66cVFDlgFNUcVuRkeocHCq2hijPW+eSU1kehHva9ohoOSgjJU0vdGwd8VFSKCcMP1TLwKfC7aedba2ni2Cx5rq4KHagv+oWA8n36qVwnlAZcuRoO9GOPPZYDAOwkm8yFqTbZx0nVdi8dzCxmE1vjBUWr5fHESSl+LtVGcj9xtVStEGo1MqvWjK7mE27Kpeuuu4aamxu5GjeuCaa2ePsFHAfvbf4PHgLg/7HtFwRCPgLBXqGnN0f/ccuDdM99T1Bbexd1K0UBBYBJCCok7t+pNrnWUhfVntqTT/fVJlgMmL+gcGDuiasNG+GGJ3JbzQDniKdy5PUMFGSQzLdJ+k4w+dpq1gP5bnAe8DdNnTq1poKpVrA0/r5a1YLBCCV5PQORS61zigMmtauvvpr3AwWJ+7pt2za+9zb/xyagWtOi7RX04IMPyj8cIR+BYM+x4a0euunfn6DnXumkzj6fTVkgHaicIiuckIdVLgGZAVXjQL14hMDpwHEpdD1y3IxSQCn1Om2Gpwcsa67Dr6GMfBjsnFANKCUdphBY34Q67pZN62lcM/KDHFY3RQQZoGVCPkc723aVzG2+H1JjYzMdf9yx1Dp5YmyiLvfXiZNdSWVw41In1sHUpba2jn7Kx5JlXHXYqgqtra1VTVpxokiWxIm3/K56XpFT0Sm1WtkcSyTJNg+1/FjV2jpYHLP8KLrwgvP5b4572t7RQ1u37eL+P+iPZOu/QQHZa0DQAoIU1q9fL/+AhHwEgt3HCy9uoF/81320bXt7VaUzWPZ8raf3eN2xavXJ7Ofx9fGJEXk7eArHJBdvj22rGUB12AAADEScnXzyyTXVRzxEudY54zVqnMV9GbUmdZwHBtRWLXU00PfjhUFrVQ+oViGhWhXraipooJ4/1YIe3ve+99H8+fN5HzCtIZADKhC/Cfwe8B08lODvYgkI5rcnnniiFPUnEPIRCAY3wajx8FNv069vW6OedEPqzeXV022RVYQPn43x5aDvi1U6vvpZBg4UjKsUjEdICAmR8Om5ZqR4RF6aKKVUSTpDYSrNgzJZtczwiBy1JLUO+4AiIu0HCj09EXpRgbZtWUd1qYgTINmP5Ifcowf+JzyB29BqrmbQOJac7GS6+49v0LauDKHONKs0JLwGTgWJVjjlI476JvZQOQFH43W06WrW1Rz6SbMbEmkbG1r6hUAP1EIhHr1Wq1WCzpcK+pHHQP6fZE5SOeqwf1VsdH9FPk/cBArCve76T3A4u03i3bWrnaPgUP8tMLsBKcX9PyDf2267ze5d/mEJ+QgEAxPPY08+T7+/5wmeWGBSsWon6QCvlugYVy0wIdkn4bhZqTzRuVXVUPx7Sd8MfDnWnwMiSFYzwGfWDIbPoI6wHeq+/fa3f+An9GoRXvFJvlavHVvNOh4KXs2kBtVjqyDE91/NNJY0eyUDCmr16KkkpLBmxYgkGSVNedXUa7WqCfBfXXnllXyvbaQb1A/UjlXEyf4/ViWizQWRBCAI+QgEA2DVc1vojvs3KDVBinzyJd+OEhc8rO8GA68jJB26aY5mwwiUaoncLAWpOiq6GV6G6XqKsPSyVPDUukw9r+ehto1S9fwZb5NR+0i75EMJwSeklvC9IEY7cn3asvVVyqplKg0iS8eIp5t27txeKqPDqifbSF3heOouNlMhzNIrr7xF//nb56mjr66KuUn7dvqbuFxWAqgTV/CL/Sb1MtmGPDDHQ4U1j2kkx41qVqq2BFLNDDaQCTNuBqxUM4EZlc3qqhFsOe+qGhkGJWVVQWbq5YnHn8AtKEA2uM8gY6gdmDkt+eAzrLMPESD/DRs20FtvbRICEvIRCKpj01s7lOJZyYon/jSbfDq2k2Zc5cSVjV3akjd4XW3Y7pjxbar5XewxoFpsdWo7uVpfDyZAPIXbCDcQki0AaisuYD0U0D33PMTXllQJ1UKb7YSNJ3pbOy7+veS9wX5xHvGCov3UpdlnssTNYO0VqkXHJUmilvIZSmh5nOSqhWXjux/84Ae5jhuuE5/DzIloN1tSyVb+xt/K/n1RS+/+++/r5/+JJB5byEcg6Ojy6Ze3PkMd3Tnyg4jzdqB4YM9n/45SOYhCw3vHRbSayyoH6iRSaqYIFZKCqkkr5aIUTMoMqJw0VE49jzCjFE62jtUORpBW+8J31La+Uj++UklF9drx1DaeVliuUj5pL09bNq7lYqN2ovaLIBn4egq0efM2qq9vKvXRSdVPol099eS5dTr/JyhQPixwntHTz6ynOx56hfr8utikG3EF7fKEqxWPncDRZA01zpITe/m9johDBFhbeydNmzatZiRafF2yMGnyM5sf1Z9o3FIib3lacCuItFqB0WqElSSqaq/tEtWtr7v2aspm06z0oPIQBYgouFy+HIhi84FsQuq4cRPojjvuTB5XHEFCPoJDGYVCkX7+mwdp09s7uCJ1PIcjOWnZUGBr9qnm10mGDVsVZEdcGdnilHaZfG1VDhI8bRM3G8kGtYMJDkrD+npwnrZ5HEw+VsngSd1GZuFzRGKtWbNuQHUS93Ph6T4ZZl1tcrfng2TWgUxuSTVTK5m0WiRcLZ9UNaWTJJjkNtVaPFRr2x0Harp9+MMf5t8J/kZQObg/uO54/x8QkFXFyI/C/V+5cqUkoAr5CARa1fz8v/5EL7+yXc0+acr7qFCgJt2AuPJAwFUHXC6Sw9FrMDU5GVY7oYsINs/4axp4hC4UjXqf1sPJNPDnrH6giLwGHkEmo0e6kYevFBKpbbG9i8i4tDpGBgpJR8W173yb0m5InpkHA3WeOzs6qauvlzZt2kRjxjRzJ85cQSmPLnW+qclq/2PU+aY4D8kGJjABpVxqV0rvnvufoy1tMJ1lSpUUbB5NWYloRbGrrY3S6nyTxJGcqK0Pavz4sawM7H7tvpOkVdsEZnwy8L+wD8Yt/dPXxwwpHq1WJpewlL+kt3WIyB3QRDdQZQR73GSU3Sknn0inn3aKLnWkyMX6f5CQjOhD7BP3wfp/sA0a68HsaZvSCYR8BIcwnli1np5/YV0pOqxapQJugRCLPosvq/l5qqmZgXw/drtq+7MqB0/XFYUw1Xmi34xVRNbXg8kOygZP50mTkSUHe43I1r///vtLvq1aHUZxDsjqh/looArR1uRnq0NXUx39/jEnEkFrfWcwFVWrPXetXJ/ktrXCwC0JJyss4P3ll19OM2bMKH0X9wgjnv8DNZT0/6D9tu8Xh5WA1DGDgT73kScg2GtIYVHBsKCnL6Df3/cC9eRDytbVkc/5KaEejm7+FrLbAb4XTIZq8oWvB7kgyN1RSok4hyfDk4vvwf+DiSljotPS5nvlCTU0PXicUqRVRB7mIDxVK2UTUpGPzZ+EBVZb7W15jqBzogJ6LPC+/WLIpLP2pXb1RD2ednWhzlgbdXYXaM78peo4aVMl2zdBVmkzyeoacGl1Tb35HD330laaPXcnnXjkeF152hZCjbV6QNHTnu5uSqdSNYnHvkdOVENTM0fiVZIYJujkM2SscKq9P1YdlQjIS5CPOWakyZYcM6dG7LAqtaTQ+48qvqdH7YKklevdirpzVD6r0naoeH3NJ6+kr33taxSo+2qVDjef88axbxA9l2B+Q3UEkA+WKLh6zz1/qGjotzuIkPeFv2MYUV8OHXL7aFdn3uvo2EYd3X3sh0I8SVodHLlJ6JDb2JBypk4cox4KstTSmFbngd9GRBKBJ+Qj2A+4854n1GShm62Vcnki8wRM/TPdXUdPcKx82DvvMjGRUSgIENDk4/HncNg7CfLhiGwsS87ySHFOZIjC5UZwUeQZxaW/h6dn+Fv8XHeFuQo+n54eXb0a54+n7vETp3JZmzDWwkBPWOXrwXWCZmzVAuShHLngHN2nxzUTcaz6to2iG6xtAc4J+4Pq6u9LqaVWEtFuAxg2quULJVErwKBi6q5RzaCSLKOalRfi20L5XHrppfTLX/2GSQe+NxCMJiD1u3B0Yqrt/4N18P/g/fPPP0/Lli0bUqg5Dgdi3/jWVlrz4gZ6++2dpJ4duIgtEnp9My2G9u8cmeALxwZeRI6nHnAQ/p71QJwZmj+nlQ5bOIOmtY5Xv68USfyDkI9gBNDeHdAzL26ngh9QNpOlYsidd3jyA2Ho/i6adAJEtKHumqeDBSKlbFBxgFJZ8z7NnxEUkFrvY8JJ1esOnk6ltQNKiM1rYVRSBD5XFIDqirgWXG+PTxs3bqSOnbso8HuoKR1Rqm6aOrMG8rvfoDo1sXR1tbHJLY28IPUU3KUmvSjK0KS5iyhINTExagIx/pvSLBbwdfnqWK5Sbbl8gbZubaOVz26iU086SqmwHr2Z45mOqy5t2byDqztrH4tXMbHHI9VgcsM5HX744THSMzNnZHr+mNdlf41WE45RJaUqB4k8IqeGac7SAyZV+xSvtzPE7trz9BK/gDAxuWuCdJzYecd1Wuz7leY7h8455zx66eVXaPXq1az4Ojq6FAHV8UDFcVyDvTeoeoDfBSp+Y3uEbSOKsB9pws+kTqKrO6TnX9pCq559jR8CbBBIEHjGXIrzgQmvYP5udgdOPzMhH8PTpt10T0TbOnbSk8/pihgTJ46lE5YvoLmzW6ipPuSHE4GQj2Af4Na7V9IupXrsZFKObjO5K/h36rmlfjtQPI7xyUT4h4xZxaoBPOEi858VDyZC/Z5/rKYigJ0UA4dMm2w76QXGDKcmWx9+nB20bs1aHSqsBteU6+qhBkVAzV7ET819uzr4yRmTT0PjWGvTp+nTp3MmvmfK8vDkHJT7AelJuH8pG5jvnn76aTpq2UIaO6ZygrXVrG3PmmQ4dJyAcA6YYOMtuqMYxfB9pdpN7KqZ8pLrS5/bbZykwqkVHVddJZV9O2Hl9xMiIN6wLln0FK+vuOIK+pu/+Rt1r3bxfbDmN9dpLvl7QB5QRVCY8fYLl112mbq3KfO3IVa/Gzdto3sffIp27uilvO9RQZFNvENusm8UJTknqh6+jocoLv/jmA65xu/Y29tFWzZtpGydT4sXTKOTViylSRPGkCMediEfwfChrT2nnlQ3q6fRgLy0VyaeKKWrSxvTDPJ6nBTUi8eTQ+ikObqNjI8H1Q2ilMeRb7DvQwkhkgzKKLDVmfHU6bml145jOo4mnsARcRYEBVr/ulJjXhOFKX1OfT2dipSIunMF2ubn1cxUR40pdbxJKfL6OsnP6FIvjTMW02HHnUxOppGVFPtC4GNWROSZCU1PQpVmMiiDXJCnzbtytHrNFjrzpFatOGJTMcx5tkp2rYADLDE59vbmaPLkKVXNWXydmseVfnIqFE6cKCryblxz35JN4KrUZdNP+OU8pXJUnDZD6Q19s63x5wR2fVhSHNbOlQwrt38v8yxSQVaNilCuVAT0zW99i7fFQ4O+bylKpbNUb74A/w9MqJjwsQQRPfDAA3TOuedT0Xdpzavt9If7nmKi4gAOHw8W+YpAEf69ho49m4qlPZ8osoEcJkXAKFbt11P7JX0fijaQJqfzkdLFNK16oZ1Wv/wkTZs8iS44exlNa82ohyWJVxDyEew17rjrCTUxdOo6Xdm0moBi0U1VfAfx6DYyg1/Dx2OW7A8ynzmsgtyyYoo/fbpewufglHxMbZ36nPBUDHMdF+g0pqcIqsnELGP9vLlzaUJTlhrr09pXU9/EE2kYuaX9ObHW1jZqLtnAjUnW99l/9Nxzz9HJx55hOqOWzUrw44wb21TVn2LJwuYSYYKEaalkmkr6EUpqo7+iiCuY/qHRTr8W3NV8Mv3zd8rkYwMUkoVRrSKspmqSKq+ag97+HVH5+qKLLuJioin1gKCVjol+dJuYwK3/B345nAcU5datW+m+B/5Ir7y6g97eFfDfEfeSq2yEQdXir/Z6bHBKknysybikYMOo1Mo8fl/iFTVsJ1yuG6jOe+PGAv30/75KSw+bSmeffiT/BoR8BII9REd3RGte20n5vLaRc48cSzr8lA3/SAoxaDx5R2xuUxM1E0pKBxqof5yBUjlQQGx+g+LhSLc0P2C7qTT7THSAgQ5SCG30VOkfu4niCvPkBGpiUcfoQSWFtC5G6bN/KEth0yTK9daRV+9RA/YdFigVFEnN8DR+3mw1mfjkB1BEAU+sYVQgN9C1y9ghYCZkD8qH3S2mrE4UllSY7jxaVJPgNnrptTZavHC6uvpiaTLDJNo6eWzJ59PfOa9ha57hiT6MTB24knnMKJOoPEXGTX/VlE88vDmMHcf6juKkFcT2ESeTsv0s4Je472GJ+LBdqNeXCiU4lVY3p1Kh4Z5pZeiUyRR6yWz3zosvpg2vvUZrXnyJJ3GoH5BPmsPpURE8LPX/gdkN54uE3BfXrKftSn3mqImKhTKRB445buBwYEEpejLS6i2wp2HsbaEtVMvkBKWpzb6ea9R2SQHraEE3jMpKThEd3ruBPn7BKzJh/mltOz3/6mNKFS+nk1ZMoWwqOGTnD7FCCvYYTz+7QU2m3fwPOzmJxp90kzk98fXVKhnY17aCQXJ98nW1PB8omHjeC9bhybherceEju3s5AxTWzKfKF5VIT6ZJ/0fSZVhc5ygfhCBlfS52MoK1fwwcSDqDo703S1rE98mHtGWPPdaXV2tOapWmZ6BjpH06wxW4SD5e0kmqOJvcdVVVzGx2EKjUI4YuI9Wzdr6b2wSU38zBB5AAWEdyAnbVesdNZR8p1pRetV8XvY75UCGcjKyrRlox70PPEk3/fgW2rqtQ8hHINgdoC7bymc2UL4QcYRYZEz9bqTDogNrfnCJnyhtBYMAFQwc01/HTWkfDyoQoD+PUiqIhvPTqEqAGm1p9vmw78dLl6pVo38PhlZJqHadojCdLlU+oIxLLeNbKF1fx99z0NMnwrHqibLN6tAZQhphTz6inHrK5TpyPOrV+enBuT2ux+cVmiWxenOpoJ6gQ9MVtdSplKPgIn4aDkOonzxteGM7tXXY6gFhqX2DVmq1/+mhHl5HJ1pnt5aqS2vzX6BHlYmzWkJr/LNkG4uBSIL/vrHt/3/23gTYruu6Dtzn3vvGP0/A/5hBAAQIgoNIimQ0WLJE0WpZbkmWh8iOnThO7CRd6e5UOlVOdfVQXdXVVanq6qRjuzvV7k7SKbs8xJbaiizZlkqi5oGiCJIgCYAgZuB//Pn9N7879Fl7n3On/z4oxUMM4B7W4/t44313OPusvddeK//+bbI7gdzi7zfOrWSYgduaTcNwqCMPvza1jbihwfZv/c2fYycm+DtttTt63zRpq9nW557PCgj4TKAfpr3rY1SvKZqbrdHilXMU+G29aX3ZTiCT0OPPiRU2wJ7T9z3Gc158Q00ycuQGLUJWXccxM2rrrEWI1+H1sXKHvNeeb9anCtqGuEHVvaNRcafdp+4goJurLv3Lf/N1ev6M3vbQKYJPMYrx/YxWq0Mbm5tDO/qHFb3zKaC0WsHtkNAwlYKdNODsZ1rTsoMHD8ZoyzqUYoJKoyGsSPEcmGXDtiGN2Ha6DZvosV8QbCDXY/cJ7KAhCzPsfemB7RzW45NHGzZ4pAPKMBWBndxFbzdu956dtODyem47oabb6c0NQxPHjx+nZ555Jj52afSD42cDI1QqbF0Pzac4prjlz89h1uW3U0HfSY0j/Zrb/ZY0ssR5Ya3RccPfn/z0F+jzX3qB7duLmk8xivEW4/rNTb74hfKLC0s8ebAy5I7+SLrH+d+4Yx8djzXfUN9hJMPqBnp1CQdS1H3wvFtiNhwQj2vRkVNOmkodUUqwRQ/+zzTkRyx5gK2p6YV3RHsOHaBOr8sBoKQRSa/TJ6VXy45GRiUdnHBfLY3S3O5Jura4RI1WkxbmpskDdzvS26gRiHL1Kj1wRa3ADXj1DGmF2McmFDICQI9MckCAERe3oQ134coKPXJSGGsr62tUHalvI2DkpWq6A4fWNlu0b88C08iT4rYrv5N2TnfZoJO2WUgjnJ0m+LRy9e2CzrCJNTCoRdnvtAFqBzVsWzuL+40ShoKpbSVNnfY7P/KRj9CbFy/SuXPnWO18vQH6tUm3pvp/QMuemt7NzcmVUkjXL5+noycflfNMWW06YUqi5gOUIiUfZdiDQDHZdOvABnRDTIj3q/0d8W4JYwKIrWlxKtBIcQRhIMdPmT44DkoajOvf84WvXaLFdaKPf/hxGq3cG3WgAvkU4z9qnHntQsanJ5/yydd28vWf/Moyr15tX5dHOzuhEzOnMT3YvhYF+xMnTtADDzzA/jlYIddNzcdKszz66KN09OhR2r9/P6+mL126FPvL3A797FSDSfvcYFWLwGe1yVAwt46c6bTXMDVrBHarZj3MBnun+sSw59O6cml23jA0cDt9tp3qIMNW+Du9fpgu3LDaUz5Y4lii/oM0HI4jUAOOF9ClrevY+g9qKlajzwqVprcjfyyH1RLTxz6tvr7Te4Y9f7tzJI2CsP14/OUzZ+l3PvlF6nUHBfIpRjGG13sUvXlpXV84IVk6KhhZUVTNrKgDI9+lsNo07qQO11BQ7AdbCfcaYRAmZKAhJc2lShDRwBT/sfxnqZySdNs7yhAczEpVWY0yXNSOWaGCkWQosXv27aWyRlddv0l7du3WgahCo9UaTYzXyY10YBj4NDW7QF6pSudeO0PnLlyj+w7s1StSV6R7XOPKGQK16WDBfR++9H2g0GXYUFjZpicYaMZtbmzRxmaPJiZHqLG5RZNTYzsW7+09agO4TU6Om8ZZNRSFpFM+t0upfT8EhTxKyqfehr0vb1yXT9kNo1pnkEP+c1VMN7OCdBnK/ujUfvrgj32Cfvu3/i2V9TEBoYDld1ygZChkCLV+eaVJi0ubfExwjm00Nmlsep79ohRPea74SLkmQDgyDUaOG7MnQ07fuZltDsjJ7CsnlEUF2n4EyZn6mFHcUG7EbEnf0e/EeWTe75iaKSN3MOZ8YU4iwJ55fZn+30+dpp/92FNUv8sRUBF8ivGD13vafT2hNratyIeldGwXvqVaxyvP1GqRcjfHSXTfbF8O7gMVZVJLpChucuR/xtTZFOLSAcGuXOEIeujQIarVqkzJDvwu3yvTU4R6zMmTJ+nMyy9zeufIffs5SFFaeuY2tRrraJreJ1iFIxU0PlEXmvX87I6Tvh1YCVua9U6q0HkbhWGsuWEePPngYY9hfqX+gwau9CS9U6pO5fq0hm3z8P4i+RzUdM6fP8+sxfbWug40SujXOqgwe9ERd9i11WXe5/a3AQUxGQHkFrLqGi6TIjjtGVP33YwQqlLZuhmIBentdlRuO226zTanckIyytDkrdZfOhWqVGI7juP+6mvn6FNen37yo0+xoGmRditGMcxY2xxQs+sbXxbhcgWRk9hJRw4ziqx/S2RcNJkB5cq/gVoCD145ivtycAMDjmtEUDrQFyFWpJgYgGZCllcL5YLXSEiVjCwPTyAR2oVYyRqrzdAN+fUBrvLYKZVEocArSwMr+nKw4kUPkZ64Ake+pzY2QidPnWKV6gtvXDJ2zY7pbkdHivwOICtMRoLohM02GPR5JYtJJ4z8OPW2st5h6RYEorLjDk27pVFHq93RCGl6aO1lGEV6WAPn7Yzh8hN7umFymFFcPg2WTi3miQM/CHU5bR0+zASP9yv6rahE61sefeo/fIsuXetRdeIobXRqGh1qdNwnajSbtKkDe7tHtLwZ0avnL9NWN6KtoEw9b1Qf1xHaaPWEwViqcJ8Z95p5+m+3JgxKr2p6y+CSW+cbnHDFDbfOt7BUY5fcqDSi34/H8Lx+rbn57DFlGJka0YMxh1pm6FjmnMhJDXBOk9RIoa7gR6HcfJwvYDOW6PnT1+lPv3b5rmbBFcinGD/wWFndGtIrIZIwnldNpHDMpL9jB316NZxHQfFzlEEd9jWZfsuIMojILjQZIZjCsGVKpft7YkQWiImZlVmB5tvDDz9Mp59/nmtA9x06nEjkpPTp+PsCQReZ/hFKJm0EZNCAEXiGoaY8IsHrGSGZrv3b0aeHoZPb2W2nXzOMWHC778i/Np2aGxZgdkKI+f6vrFJA7rXmOwb+gD7/+S/S1atX4++Gl8/p7z5H+xd2UX9QFYfY9U1a3ejo1ytqtQYc8Bn1Ri7v0+ldu2PULcjHEXRjkSQTEDwOCvG/Y0uJ1DkIWjXOJ9PlG8XoMxR1jiA08q4RI2uuDYGa7w+S8zTcXgfD6Sc9c0Jgee4r36K9sxV6+OSeu1Iluwg+xfiBx621DuE6kmsumbi6ehnqlaHx5nHaPpT8l6QeHPG/4RqKEl0y116iph4UmQvewYqR0VGY+MpwaizOsJn4FGXUmOOLWUlKJDTd+dCT63N6rUxOyRN2Hok6MxBapKQ3CatTYiHUgEZGR+nUww/RS9/7LlU1Otu3sIeVGgYDhxFOFUEsEiQGlle71+bvjdKIQaOfIBzQaqNDVxdXaGq8ZhCU2oZS7EAA39xqcvovedwxvzd8y2AzVABzB5JAvv7ipKwjbi+Ls3Nwy3/2TunFtCTRTgEq5GKKS19//hq9/Np16vU7vHiA86xXmaTZfQ/Sd178Lk1PTlCvd4XK1RpNzc2zX1Og0ANW5fcDFve6ESOliIVidfApV6ikUTAbB5pmZjKeR5GbtUSIiDJByLLiKOyz5p+oJqDJTaMd/NsRdYMw6kodCEgHj2vUhRoQzmssikJT23IMA2+gl2o+K2p4YinRCuh3P/MCze2aoT1z1SL4FKMYm5vNTK0hMRgjXuGPlsaG53iHMIDUW7xGUMZb5I4dFdNbk4kxytyDHWVX22lasVXYTvjbSfEbbLj77ruPrl44R9VSmTY2t2hlcYnFKcfrFbr/6EHOFPqmgz6iMFOzsGkk1BxWV1djuf9hSDAuauuVL9hZQD5JT5IbT4O366PJf/aw4JNn7A1Ls+2EYN7Kg+h2r9np+WGpuPS4fv06feMb32Dk4pVLsWIA9iuUx0EYWV5aFHShjxFICF5F45dqPUbf3BysJ/gzZ87oRUgkBAOvQtMzM6whx7R7E3xAdvl+go+1llBk6dchtxjABoSJMCREFPybF0F8D1uNiO9vF3StYgi2CbWr3/uDz9Hf/9sfJf3zi+BTjHt7IGMQqWTScFlyPiTfwUJwwFThaiW5UpCzV1RhQkCkUr0lUA6AHH0KsYSML3x2PnWdJOVmC7VCKgg52DGjDcVyy6oLbd9FKBOOnrt9ICm9Pb22npS8gLPttjcjMrUaSqdYlLCSRKUhoN0a8WzcWqILly5TtyM1LvT5rK336NzZi3Ty/qPU6fWlyKzAgArl+0OpWYQ6UIFAsLnRomq5nEIyigvMeVYYy7C02rRrdo5dUmVCDnITeLSDgGgiiJkt3Nv+lmCofcNOwcfe5xtW00hmJ9uG9Hfc7jW3E1ht92r0x198jVY2NlkV3YXjqB+JogCrCpRodu8RmtlzH62tbtKt9VUxg9PP9dtElREoapQYVbf6Ed3a6lJ1YlafsBUOMosbEfUvrtHJh6ZFgNaeA0jV2f6fdBA3atQqLBun2D4HnUhjFuUg9IiuIBCv8kMWpkU9kjiYoJnZ4ddCBSOI/Zz0I6FRJtef5XLMiuL0WxgounitR9/47iL90FMLsbJ2EXyKcc8NzBtjI14mRZMfQD8eLnBv56Waymrp77gSznTP5xxRoxTKERSlYqSU3iyr7VWrlbZpi1k/G7VDKgp/w9cHK3AoJKNfCKQDNKCCaQUNsZG6yyvauPnTICu7j6wz6viu8ltO/gg+2N7JycmhE3IeAaWZb1HKZ0gsHnLU4FQD6rB60rBtequG07ciGAwLNm9Vv7C/Ddp4qPMAtYJSnbZByAdC1IBmF3ZTY7OtFwZogO7xeRioAXV7A2p1I5Zu4r4dTrOJBA6QEj4fKNex1GvjmppeKKWDj45osoRASwAvlyIWpWUGJ0lKzWEDu1AMB/n8EvINaPqoLQrZIkrqmmG0zaIDiw/xB2rTF5/7Nj14/w/T7PRYEXyKce+OmYkKK/tyjQOFVGs7ECU+LZ1uiyrVMV4Zoi+HvV+iUlZFPxIkYicQhy/W0JiRBcZHJZUiioxisqFUxx+lmOhmVqUR3/gCNz5pbY08ur2WnqDmM86coGGrKIj/jlJ/Y9tUxC5EdGtlg7zSGK10GqRqHnlll90po65DG5trVK8JfToKfc7td/sd7h2KqE3zu2Zocmw/rS+/SUf2nYr3zzDKMXZfuzOgikaNtRpo1r0dmhVVjIDSiCdpILVMsrQTaWIlzioQKUuIfFDIp+i2LRqIdhTm3AnJ7FQfGoagwJxstIi+9s3XqdnqcV0fx7QfijU7xf5FJpg6MJorc81wbHKM6jN7aH2rRS+8clYHlzaj4FKpRmGpSl19DpYqk6KMEAj+aOnDPQKFDc+qp4tmG398JDqEaT8jZYIUUEzkAdmUGfkwqkGAAguUMwMeu/2Q67OSduh7cc+bwmv15wZcIxqQ0fOW6wnfHqmECakfW13foj/8/Gv08x9/Wm9mWASfYtybY7ReYWfS26bmTI9LfbQS13YyK2Fz4xV5LLcyvBZi+3a2PW5XjTt8bmQuYKuhhf6QeOX/FrWnNKsLbDV8P2o20tEemv4QMh31IzTotnWAa2qYFTCrvKInsOmZUXr22WdparpOp7+7Ig2zO0zK9rtQ20AXPxBQuRTd1pXUIpydUl4ZG4UMJTvasRaUDyJ5pYHbseSGbaNFWG9VC8q/73vfe5HrZLbnaZg8UAbR2d4uJTYdeK/VePOZ8i4ogpGrVUs3nwfVC3xH5DqJTxS5TAgAurHBJ055hXbxkyZNBGZlFEqMwsJKQVw0kFogJIM4yyb1J/w7DIK4Ty19HqfRj0XQ2A9nz12g64sn6ODe8SL4FOPeG7hIKlWP6zGobQDtOEbPiq+5CHTSklxIfZ96bR2Axkp8MXJ40Rco1n+xeSZUoBlhuPw+uZe6ScAacfo9oRtTrm3Q4bRHaJ0lhS3kRGZ1H6rYzlnB1KvdYFSC4BEo6dZhL5ZowH+HrNcmNREXaIhvIfmBT53Wlun1QfCpSepna5367U3yew2qT4zS+toSlcCYg6YxepCwqtb/fujEHtq3MM4EAjapu02RGQMWz5utjp4kB/TNb36JqvrzkG7CDZMmmk5xX6uNMB28ZAzV0hpp25lqKkY8ic24J/tSpQMHcX1CJjtvaPMwz/Ep2+1Up5AJSukaU4KwdiItDAta3CS66dGLL1/hRQP2d6la0cciyNmJe8xZRONowNvmilMsmno3GnT16i1qQ1la7yNP769AI1ZndJzC+oQ4kerj43tipV6fnmNldOn7UlyLZOQIkgBJL5gA7Dzb0ONzMAh9QT5cUwuZuq80mkH9k+uAA2HYAf0zOWbQlnOdTQ19XggxA9Px2ardNQoLsj/1K/X2dII+NZo+/fGXLtAvfuIxff1FRfApxr03SiUvSwTIpYPyNQxqt6k2VtqGNDITWar+Ehljsh1rE2GUTSeZyS4KoxgppZGQlWFhY7bY5jvbr5JpbkwFBKA3mYQjCYtoAtXBhHot8lQQK2MLXVsCLArMg0Am3RdeeIHRDLTjvh81a3wfNN3gYeP5vXibMBFbIVc0IzLjSz/OwcmoIVR0YJLgVONAi8fSLC27urbW5mnn1LQjqq0p5YNFGAbbWGCyn8NMOjFh592+ppMPQPZYv/LKK8zywn5Nb1+C+Kw4aJIyxOvXNvR7QiEjWBTkGImmUrlKTrUayzHh3tPoFIoX2IfS/+MZWSjpP0LwUSb4iEpBkGMDKqbaC1EulDSnSaBZ9hsWU0gJR0jfcR44MP1nlOpDiuK+n2FySfa3Yn9cuHCJbi4d0IuamSL4FOPeGx5UCsLAdPYTpxaYucPprJL097DasxRcB/0uhVtQD5jU741YHw1oh1PX+BzzWQHpxyJpDHUAUVzRaUO+XNIhhv7mk+nfobgWFKfkAbh0vAMRYH19jQYdvXruNiSn7+tgEQxkZRr12bETdZ1Ir1Addi3VH6z/DhiJheIh48OGYUDNVpMqQV1qEgFqO30qVWTiqemVeSlWQSD+3btnJum9736aJ5ezb1zmgJCs/qNYpTo9un5EG80O7Z+fpTIm+lyabqfJW4J8l3o9vepfC2ILZzwuMj21FGqSwISbVyrlTNAoQ2BI4KmlGMu9F9PAsmHIOnoSRTuoYzumyB4lqtZkqcyeRgoR9bqKTp+5RJ2u9EiBhZb4GQm68w0zDOy0rg7WN26uULsf0PjkGO3bvUf/rhFabZ9mNNsDwtHB2quUyDO1Iw0luD40OTNN8/v2chouRI+Oa3rMwFiDn4/rxSg7yu17CYo+n+eM9hn5lDjtGjj6XAqhXVjW55w+z7gW5PDf8rsRiAaiwBHBfdfhpxmZKtFJ5P2iH2T2Gy4Z7J9Bn5rtLfrKNy/QT310Vj8WFcGnGPfWgOVBGGX7acIwhSRcJ1PD4Yy4ntmAQGr6IiphUnVMSsawwySQufKYaSaN895kEFCYpu5SzH4LQzPB6edXVlbo7Otvco4cK/UQ5l2NFRqtlui73/0uU6PLnsvkBstM4+/HfSDpNp7M9fvX126xHww+i1fhZmWMSdwPkRJqMxrpdjSyUnBBFTZcqeywjpyt8eD91pV0p3qPRT7YR/itly9fTtJkBhVgIkb6ztYo0jTmvExPFtUJhRvoCbUQ6+oJdpZV+GbkpG8ITjath9+T1jqzzZVWPSINdIc1jQ6T9rHBN0/BDo1N+ZUrV7jGZr2XuBYTB58s4WFxcYkWdeCp1Sfo8OEjNDk9IY3CqsK1nvVGWx/rMrX64TaGHI7PiZPHjCacyN6ASOAA5bgSDEPH3UawSNfRuIUotL/bMbVER9LBfmDMBV1hxIXSb8Q6UAKAYoUNi3y4XmV70Cg5v5NgJ26ur73+hl4MPU4To24RfIpxb42ynlw9vjocWR1HSe+NcgKTr5ZAwotm0/MSaQTRbm5Rye9QpT5OTn1cLujIl0KsXr2i+c8LSsL9CQMjYdNnBIT8uwhAmknMqgSbiWFpaZnOvPI6DSJRzcYs0u5s6Ul3QLVyhdaXbtGr7SY9+siDzHJjNpvepjCAXEOPgl6bGqvrtNVsUGdrg9otfWts6df0aQTK2oOWqVehtlPSk6PHrpQEfxa9Qzz974H+DNR9bl7z6CtfdVmsdHOrzcZ2ycQs0XUbzXrg8+3Eifsz5IR0cEKwQ4pJ6lDJey1iQfAbHR3ngGJ1MV1LrwgTwUtxYDUBWCO5dqtPreZGJq2Hz5SaU5XvwcDD54+MjHEABHKyAChRn1bMUhxO2U4o4VxBUbLSF1mjSB+3Or346iUmblgbCkzanZ4v7DQgFl7IRHT50nVaXFuhg0eO0cKCRi/sgqv3GWv3eXTswQfp1bNvUlMf+1LQ04sPNKESVUcqdPC++2j3wn6NgPQx9dB/5vL5AsIBHE5tk2nkBkOCaWTOe5zSGlWxMnXNBCG9zUBAPvapYgfeODvsSX8SEyM8HLtAiJVIvTE7rqf/WeJ7BDBG5WYBFphA39foHJfZeiug8xca9MQjU0XwKca9Nep1HSC80o6sp8j+F5HpeRFko0w9hVfe8FvRF2+5Pkolbu4LRbCTNa5CmRhDFdcRMqt7yotTSm3p7NmzsqJ3S7EqMSbJ0YqrA0uHn8PEDUfR3TNTeqLv6uCyQZvra7S+skidzU1Om6D4W9LfPz5WZwuG1149R82NTab5DtgyWk8W6BvSE/GcXm33+m0OVvhdnknX4fvxbygxQyamVCptq3vkB+o91o01n/+XoF+OfYiGDXwfkNOtW7cY5aBIDzYeXGcRrCqlMjPpJibH+L4+Kuk4JxY7TZBSNsVHpubUNGKpktrD7MioCbYG+vdVGTXV9D4f5bRe2TTV7sSoS9c0UDfaam0x8sG2WnUIpE8vXL7G2/nQI6f4e8+98aYOlD069dApGp2UBtHIaLaxTpvef6P6tz3++ON0+foiXb+xyAFnctcuGp+aIxeBGbUWz2HRWYcZjEmTaWio/I7rJi4PKiZSxjk4iwJljWWEZzk2OSJWCyJCZBBPZFGPyz1BVlnDBmr8HdjerCDchnjS7EMg6a9/82V67KF37ahGXgSfYtyVo1Z2aXqyRMsbCqlrIyEfxSUCUJG5fyZUBp0YWnRgGFlANvDk0SihqyeTfk8Hs0qdyrUSS6NgpecCmfgRfxYZPS5yAsl/D+SCC5wwLv6s3Vqmfrdn8umBodJ29WpTBzlGJXpyazSorD/35ptnqXOrTj0dfDbXNIrotcjv9KiuV8UTOphMjde5huOjLtQb0K5dk9RcX9a/Va9OBwHXhZwIk/mojkM9GtdBaGpkrw5sq4y0XOpzeuv8ZT0x6805dHg/lXNAZliKDIEC5ITnvvxVnswROBEkpiYn+R7Ondl0lZMJGngPApMNTunvAGJaurVCN2/eonMvvKkn9VVaXVvjgAUkg6bWyekZTg9OTc3wv8cmRpmeXjbNwuyjhDoS+bLSV6JhBiQ46MEWuk1rq4lJmjLBqVqtC1uvVuagNDYyzkFKudbxVBYQVxfXabPRNWnBkBotn85evAH5NOpBI0/vU6RVu90+PfjoI/p4jYpUjhJ/noidckGNLrHOWokDuaKFQwfowNH7NDoCzRq1HcjrCLsNjwWupN1CR9AGzjNB2GQ0Bm3dxwiDRqI8wJI5nBbWz6FfJ/D4WDisfuBzixAqmUBjkbJRK5BohdonM0NDTidzXxn/LWQeVm/Hf8bRVXqdFL8d4vGLKxt6/wxocqxSBJ9i3Es1H6KHT91Pb1xdI67+Z9IuJjMBBpRUUeOaijL3lPq3MkhoEHaoO+joyaFPrl45l8s1fc2WeVVLpr4TWVmZwKwIzaSLyQCTNj4H/Uc2v9/calBbI5JqWQc1v8+ooKMDiIZd1GtVqFTxeFIf2TVN9VKFiQJhX69Wwz4N+gMdfAZ6Uu3xNiB9tnJrkUJc+XpFW694GYdLBDuw1DrdOm2s3mSE5VwLqKxnjYcePmlWqDsXiIHcsH34LAQhTNpAG0BOgbGqQA0GAalskAaIBJjMx8cFafC+2gFd4X1gdh06dISeMpc+nsV3ra1t8MS+tIzgdJPOnHmNFRk6enGA7a5VqhzQpmcmODhN6uA8PT5BY5OjNDU2TvVqRdCHoh0tHPDbGk1RhPD7ogCONJogpxof73MX1zKo58aNG/xe7GcgHqgd4G8ojkO7zUl5RMmiR/5t1S/wHgTd2X0H5Fi5Il6rDDpyDGKKWOVapdStzXlm7dntVxhCBYJA0ucm5zinPclYgEemDwxsOFfUMCKLgKzWXKi2+URF+fuUYkW6rmZ76BaXVnTw2VsEn2LcW+Po4V3sIOmormF5SW8OqKkDy3gCnyd0jEbVwDTi6AsSYlaRRCmuD5XKvGBVA6FJR3pFhyK+KnusseV4rhSGS6Y5MHacTNJC1FnXSGpdf54IQ7KVw/o1qnY2KdLIJgq6NOG3edKen9pPe/fsiZtQQx1sIh81nz4Xiv1QEA+UCsCWa7W2OOBUXeTfe6xwgJ4f9DuBrhu6hmqnfydQxLhekW811wkf52o0NTU2anpATGe8kmDqpJAJp8yaPR0wu3rSXTK/U22zdnY3mpzyxO8oG6VJK0BqGW3VqvQFWcpztSrptYohEohJXcDHbWxUB5bRebrv4IKkgziYSy2o1evQ6somky5W9Up7aW2FLl6+Qiv639hOZIdcfQ6UqxKcgJyAmBCoccNjuMd3VMAkA5sRgbsasnNnZKjLCK5b3XX67vOnNQoWcVXUoNbbeiECbxz9GqQ7cayg9g3adKREDUC8lRzjPio0b2ap6dv6VpMiHaBHJ2b0a6qsaI3HFVKgCGiMkvR2laxzqtzgXMt/O7anzKQjMyRAEQ4lW78aKOPlpBh94Vg7WKeE4nRK3AtkmHSupKMDL3FDdViGx6hSAIkFguqhgOCaFLbNLOC5vj+g8xdW6fiRfXes3lsRfIrxHzXmd0/zBIcV7cCayFHS7xOZfh1OH2CCpxTykdZ8ZpfxapLfLykSIAuWruEiq6HjhkIdDnvWxdNM4ra/xOTIud8GDDfHGLnp1aGDz8v19Nh+GqH+QkOrx58RDiT4DPwuBx+k5RB8uH6iPweTtlfxOCjgb2yvoJ9s8yG2EarU09OTdOKBY5JiGtLjk2kwhfioRht2tW6Djw06gjhdg7LcDNMwL5GD9Jww2GqmDtTmz2+2u4x08Huw/RMTY4xkZqamaErfJiZGJWCM1A2xQAer6hj3KCGHFKAcoeB3o3SQCEXle2Wd3rx0iX2PLl68KOeD3r/YVt5fetFQrbg0OVrX3zNGM5PjNItU4vQ424QjOKF2hvcwClttMWUajDdBex4fK9wOLOzm7bK/1e5Dx6qV214h03CL/WjTl04KdVjvKKCSMNUv5jhmQeMYooD5d15VPHscsw2yLJ5rZI24ZqQjTWiYhYYuGG+rSqG0vJdVOj3Ll4tpsrXoB/vrjQuXKIgeEfJPEXyKca+M8bEKPXB8D33jW2vs1cMzE0nPD/ctWPYblKoiY0ns903ersRUU/ihsEgN0ApWwfp9vNJFWq0kWnFKIysIepJtXjSuqHzRhtY5NaDJukujbkjt5iavsJVetdebV2jK7VLNE+0sX38WpLbU9UVaX3yZ6rP7yalDfsU1fS4BByFfbyco2v6gp+/16ltvZ80j7gVxI1ECKOsVNJcOlPS9pFMjvOpVZT25zlK9NqYn4exl5lDSJ5OW0W9sbdD7n/lhUl1BGxsb6zyZ+34Qo6O0jXY8eZlCuWdM0PC6ng6ejUbTbJO8f6RWprGRWWQtORiBiLCy8oahi/s0IEGupVqFRvR+kYCkEc2E3NemJFhM6uAxOTpGu+am6Oqb58lvr9BUWe83r02HDk7xypzToP2mkCfCEjXXW7S+cpNegzJ1KIV27Dz0wiA4T43qxYw+L7AAWLxxndGV8iYYqfh6eyv1Ef07jTso9jlwNbvjCsphAzjUVlxhu0GfbavVpImZXYysQ5NqixhJVvgeCAeuuBxkEDRKsjBiZ12TUROtNws5hAKdIJCA2XgcAD0nQSeekGUGbFRX4foOp55N/RL1TtC4XZx3elsd9LjxsfOEFYrXMFmBYsTFAUc/UELwQcZAnxNrTb1A0gsyr1Ygn2LcQwMT4FNvf5Cef+Gsnui7qS73HEsHl4oyOlYIAbhgSfSt2OkUlGFzpfOqDukYJXIjyqr/2ly8SpoerSUBd7+HgnSANt7caFCr3SLqtmlWr3pdhWbLPk8aWAVjokWfD1aOWK3P7D2kJ5dq0knvB9xUiuATmEmbEYeRqfGka8kEALMKzrH9HBayLNHhw4c1GuuwqGVWKSDMsJSsggGQ2wc/+EEdRP0Y2QgiaHEw2tzcMPc2OG3w7/FN2i2MKKNkndyiOF3JF71h1KGfJ3ZcHYDKi4bgkNNtnfaAay4XLlzQKEcaViMdRIGo8Cmj1RqNTY7QuA4KQIoDjapQL8I2YWLE73ns0Yc4gCkdEGDy9sCDJ6k2OqG309W/qUNrjXX9+ibLD114/U3aamxxUOz2u4J2WIW6xMHJoimVc7qNUudj2g2XrSn0Z8wb1Jl+Lo2CELjJfqRKVNFF0HMHPyP7/aaukzmu5GS+zzLwkObjQJV6LP1bHGMBkkFCKaUOS61PMz+xj5utLi8qiuBTjHur7nNgUq+CHT0B6tU2nEMDYUNJ4ZVMemwgQYSrp0baJJK27chM3A4cIcMBr1Y5FYdibuiZ1JviPoxMzj0ydg4klF+f02R9PUl2aarmk7u5RFVq0bRGOk6UkCEQCnuo6egJm9NKqk29m6+RN3049m+Jmwl5e6Uu4ZAwkRw3iiVm2I2SlHFsJU79oAgtE5ueMEfG6dixBTr9wjd08JndFrjTKsn4s9eFjpvHgWIQiGwPB3G9T4A6MInb4rpDWdttpKssUkoHJkzqCE6JxbftWxlkEZO+L1UV1bHyrhPNUUKRtogQk3lP72N8XruLVOQGLV1bphu+1LDcSp288d0axFZ58q6OefTqzR5V1tY5YI2uDGjTr7Js0PTUBE2Pj9DhffNU2u8wQ1F12nT+7FUKquKHg/Og3Wlo5Fhj+wOcM17JMQsQj9UWcAQcIwLK6S/r66Sfa2IBopFSpToiKtI4hyL5rsAgcfTkeExCMPUe9noik5oj0ycVSYAyabe0hQefpyAn+CEjJz4utpnWsdBWkDp/GLvlOswA5doUIyNXPp8TBXgslcJW5vcaUg4ZBKSMISJSn+uNHu2eLYJPMe6xMTZSph9+z5P0u598Tk9OIWuapVlv1rERtR8WCSXp4LaBg/sc+D2KJUVcUqYIHbK0jlX9Va7Jdds0VSQXH9tUp4JPryfq1ZjsItOTokhl6j2Y+G/evMF1DNQTMHHXwJJz3Dj4DPOwGWaiFtccnOQ7EDTwufh80JQDE0jywzZdWr8fpNeQ0kpP+Pn6UGRrGqnHgbAQmMT/5+C278D+QBAC+84GJdRT+O+thmjvRcORrf0MbL8oK4xwjSg0Uwd7twb6OyDAOgip0e5QuyU+OpgY8bhlqyHYo4eH0YEOsGABjurzZ/fMrA5Gs3r7Gvy+BtDPoGuaTLPNqrZXyu57DtDb9qnsKwRJ/Nvq26WdaymDQsVlNP27w/xnquE25flWrTQN3rrr5hFaus4TSwwpa4qYoJ7Y78csMKyZYnpw39pGC1diEXyKce+NJx46QJ/+XE2vhOHeKOkiFVIsQc+Bh80hI/ZfQV8QOr8d68sjWi28OGSVYvQ0lFxWNSAr8Og7fGEmvjRiRwzFBDiHwpdF+QP9XWBH6Qu1pNFAZ00HqzKrS/NEZdJ09UqZa0zLt9Zpfm6MKnr16m8sUm1yt7CfcFH7A+5fcQNJ5yFQStwUryDUfDyTUmTeuZIUDFazTE2uOnTqxEHa3FjWK/fqttRNEtQkAPX1PllvdmlmekJP5n1O96UFOsPY88g1TbQySbpG0oVi6RiKm2vt5Ahm3NTUNN8iE0hs+LKSRwhONp2XRk6traYRTR0WOAe8uMd+LXsaNenjO4vfOlvTq38xwgvM4gBNqUgRtbotVoToQOpHL1baq326fuEC+VGJxsemWJOt3wvkuY5GnHo/skZdv8MLinptNFYXiEsvVuNPSeuMqAZEQijRx9PxqslkzUAjmfxdQ1hTRrQgkB8Ux6fQBhrHBgXpMg1NjxWOkxu5MUKXBZUrrDVuyQn4XGFFCUY5SmqdxgsrhLUDaOfIyjEhIbvg8Pj1IfegWfkoNMA6+jH0uIFns7zRvmPnjiL4FOPPNGZnJ+l973k7/eFnvqIn0UFGHTpMrRLZioDINNKR2CiAUkqSqgu4S9zjmk+cjkIhGe8zk7CdBG2vg6358IRsJkWgDkevdtcHKMbqIFGpZiyl8TcQBvpaVNjm17cGbaqNzrC8SqykEGWXtln5f0nPxLIyUYKAsDrfs2cPa4ddvf4ap8y+HzVrTPoLB/YZRJcEEwQLWyOy6C0yiDI0BAOHKBN80iy4jIRPfByS54HOwGqbn5/P1YkU126AIBrNrW21JiApoEYOTnmFalurUGHcaIrb2OQEs+ZEQcBjFmMYIhXq0NUrN2gTqEcvYnqDiBFLYFTIu0b5gen2Q/Zjvg6EfYXtKpUqGdS5vX6zHfLlDfaIMmWeBB0ZEdY0TLLMtPx3JPbsNBRJ539LWsQUNbA0Cubtc5LzdBOue0XwKca9OFDneNeTh+lLX/qKXm2aJJfyZYKMRAyUrHxLFMQ5e6V8ydljIketJJKiPlhiHIjAagpNkZWceOXKk3xousQxywXSZS/puIHk3L0alWpjNOit6tWl+NMQWTXpkGbG6tRcW6ayW6Gx0TFqLi7R1to1Gp3dz6wk7trH6hId/KZJVryDbFNraMm5JvgI6nEd0IprdOrkQb0dTdra2KLds5OmlhDFSCYfFDD5rq9v0tsefZgluf04WPmmcdY1wS1lGcErfut0qVJW28abJ0WEUJZqTqERohAad2RkgByibYGH36ePy8jYKNVHR9hKPD0x22AI5GRTeWxrkLqXelPIqs87OZ4yNdyp8WIETbST+/ZRu9Wlm8urvPlQ64ZSRa08opHkClXKkGQaY4alitcHImee1G4kVVWBkjjXUDxT7yoN91TCQxo2lXB+mD6c+HwxDqMqXWuLjBBuZNGp4gblgB8XGwVDS4lN7uSQgc1WItuY7RkVdq5DWXq3gazKLLKAGPExrhQWjT1D2vKjWwSfYty7Y35ugj70I++m3/y9L0lh1CKClFdOOs/NPidKfFdYjDGStBoEGZlVxtL2ioKAMqrKvrJkAFs3CuN0RIxszASBOsjq1UW+eKumG95uB1bQQCarq0t8j9vyygpVJxdi9ppFNWkztfTvSgKCE6+2gXr26ckTrDusVpH6KZd3bVvh5idirNIxgWOb89+XdgJNq0HbmkzedyfNNLR/O/ZzKHkuNME77QI6bNvSqDG/HzCAmlAPAtpL14lkYuxwSi+uMaVQE+7xPFCfH8nxmp8fp83WgJpbhiThGuRken3wWXzsoH4BldCU/bbaAcFYfybH/G7H1mP+jOd8nN4Mdnpu+P4ctq3D3m/llrbv8+x59NafVgSfYtzFAxfzO544Ql/+5kt04UKbfENLC416siTWFa8gZSVu0kqOMk2oRlgUyW/06HBfTy9upoyUTT1lNPzjIAEkJISEQAOWgBempeoUudUxXjm7pT5VoZRg6KsIWmiw7Pea3JQ6VqvQ1vqA2stXaXx6llenTJtAYAxFVys07DSePGyajVzD4BMp/tFxl5547Bjn+tm6ud/WK3U3Rl6WTZX43lDsxQNdtHq9yj1GZGjo+XShBB1Z3ouNhJ9JNQ1L4fB3gNJuVCckeMtnBYbYEIZZ4c9hltr5bQkMGSTvLWQJChigSINoANmh/MRq6eUIKMurXfr6t16ks29c1bscygk9VhtXpk8IdZT53XO0ubnOHjZ+oGh+3wEqeUJf5joLEJZrajKBGL2hZ3hzo0NjUxVSQMCRqe+Y8xJoO13QCrAICp3YJyd0BY1Inc/UaZhOrcQcLg4FUgMS/TVHzpXICiRYzCTeUYr81BGSeqLo4yVZQFDnOxpRxgE0F3xERF72e9Vxi+BTjHt7TE+P009+9H30z3/td6nvb5eit2rTtkYiF5UyE4GsIgNjoRAjJScy7KNE/Ti9mrQTn2uCGSb9UGZlvodu28biFrl9xVI4+XQPmFuYADFJggJ8dXGF6uOT0odBiROqrenYXiZF2VWttR6A9At7/TDxQtSHrR9Nni2X3jdY1Vsml/3tdnJPT9rpuo+dvOxj9vUqV/vIBKS4b8WgHxIE5JLauZZCQ1TL06hiSD0lXfdLB6f09kTGhRWoc3p2hL7zwpk4MFlqeGBgRbVc4ddNTI3TtWvXqKODSqs3oEPHjrAYrUU2iBTYl2ffeJ3WNXryN5q01mhRbWyUjh5/gGZ274q1BiHZlEYSaTvxDLKIbLpWxcgxSnlXWbuK7YhxuwGdk0Jiw5AQMx9hm6EDD4Up1Qw1BDmbxyqVchF8ilGMh47vph/9wCn6/U8/T8GgL06gXFQ2k24wiGmlvA4PHFatDhj5DGRyClXcqBcYqZTI9vmEvgla1k/FpMcsGwwMrEjqNVgZurVpCkobFHSbNICVcklot64p1LuVKkvPYCUL8czpsQr1NhapOrFHglrc2B5K4LH23YaSDYYuGElge+1d2EX3H5yncACra4e6OgDBVE5skil2pky8O5PaBOomoEoH5nWubRp1VJzaSwdlZX15nKzcS2RqOmTsmdMpuDjwkaQ940mSzD42C3iLDlUq2uebYt34M5NgJnqvJg1pmnMDWxmLkt+a9vVJai6RyOYYS2qPe3d8tq6A7NLk1G7WgsNEe+jQfXT1+nVaXVmiza0GHTxyP83N7+WFjd+L6PXXL1Kzg8bmCm32fHJqHoWtkF575TwdZcS0V1hrOEc8N0biQN+RbbcxiyPHLDZCV5Cma6V0QpOqjAwtO4hY3BZSDLAoYhuRwE2CS2TYmaFIPSEBiusiUPI3jgjQe1uj30GnLfUpyjZtMzp1KDZp5P2qv2J8olQEn2IUo6onh/e/52k6e2GTXnjxDPkp6qiwuKK4udH2A/GFZVbE8areUowtU8mzfTpmNRibyKXSF7walKZTDkpGiBLMtvatDa6reF45XoFzakiZ55tNRklAQvDCKY+FqcxeYrrm5OoqNsUERtujjz7KAYqtBCKX6xyoY+zkt2KRA16PGsjc3FyCXiKVQShpF02ZFGmbz4sERTPZWyO/FJJK14+GpdMyCDWFmuz748CXSbVFsZyQZTdKWsoEraQ3M5e2c7YhJdSN0rUzBKOeXhjY1B1QJI6e51VYnXtlY4uWVtZYT25Do5zdew9Qq++zrE/k1FjMk9UYjDArAt+5c+c0sh2jienZVP3OEjmMCCinUBNfqjTitixEQT5u8nusuO02VJ5mRFoUHaVYi4LCBiCZ6HMQNtmUei2lapiW+m0Dtz0WU5PjRfApRjEwds9N0M98/B104/qbdH0xMHWfwJjKmUV/4JmVtW+X3yzC6JsLy7VIxrDdaNCTHnaVNFtaW2d+vbEyxsrVMf03TClG7ac0QpFbZXfOwO9TyavGSMLTf1fKI+S3W1SGgnS1TKMjNeo3V6heG4drjWyHL54toWNrXLIx0BKrjtTpicePUbnU4XQQf7YOuqhlHJwfl4DpuDE7jgwPyk5SNvhgQrWTUmBTVEYwlXviU8rWoa1dGbl9CXCKUn34ceBKB3VL2Y3Me1xyhhIKsg20Toa8kL8Xiwvf1EwM0rJBKrTNwVm05xh5ojBGYz6NjCbHBUEDRAb0CbkOGHWbxM4a8L+pDMgrV2h+ekwH9wlaXtukjZXr3NDa6IbU7mskOlKlUr1KdX3c3XpNem58fXz17eL5K/ToE5MsOBBCdy0S51UnUKwerSIVp4Vt+lXZupBjkZK1bQ95ocEETl8cWfE5jHr8UHQLOYXoM+qRtgL5N/eQwQOp2aAAjDV9brLSN1uNRCxICv8goCI3lMSz4oVaFGsDAnVPTVSL4FOMYthx/Og++oWf+xj9r7/6740xWBCvcCmVJotXvtanxDGrSZt2C5OVcryE5slTZRGUzcGblbjVekNqA2kO9LI0N1Z14HF4FY3VsNhCj/Akd2BhhlfQYxNj/P6r1zX6KdX19nimpkTxCjiNePAZDzzwAK/asTJ3jMo1bkBatrs+k2LK1UsQfMD84rRbvp/DulcazbbYViHFtEs7vCqVIBJBETRUmyyMA012FZ5GInklh53Qm03DCYsxi6iGIStBqCpzHPF9+P1231lF7HpYNwoWvlCOTerOGyAo6UBUrjFaHdPvXVpv0eZmh3qRRjvVcR0EAnHENd8n2mlhrIdXZ5sLY+Fh0opRKj2Zhjygi2eUw0llXFjJSEcJciSpYZpg76b2bWg8rPr6XPERdPye+EMZBMTtCek6ESWsy/x5YRHi6GgRfIpRjMx48rGj9Mt/81n69f/7D2grMIXyyLLSwmyB1mi1wQBFUap2IFaX8UXPjanKamVhJUtxbSFKsdGYpRaYvHkAxYRRGoQNofXqi71ecznN9uhDB+jk/UdZM+yTn1yhkw8/Qos3l6ndXKdWt0FuWRxBfas4ELkmjeOyXcHx4/O0MCeoilM7AWjcihsnQ70C96o1Q6ZQseJDLurqBe9AT4ZdPYmMx7WVbSk1s9Lm/icnkfFJSwal03PK9P8kBf4ww56zk2aQCyK3Sw/mU3WZn5Gjf29LB1KWhOBTEkxFQSCk2ak6eW7FBB/FPT/VCpqM9Wf7TWqublBTH3+25taLkX5Yosm53fo3VCjQCMZVVZrTKABaZ63Vy6Ra6xCY06hhgSqT88ZJ1GcksqWRZl0jImcA59uqaXwlttUWJEdGls0KCbmMomP77EgMDMnUbtCAxsLuoZFbMC1hzMI0KhwhFDi6PTY3DDTiUYHPiNoJIlGCJ6kpRqz0HshZbRQ1mGIfhHH/FrNF9ReOVBWN1b0i+BSjGJkTS08iP/TOR7lb/f/8fz4tDYchZSaiJPjYx5MVsu1DyUx+ZlKNta3tpGxZSCa4KRvkQkNj1X+jdtDvrpvO9xIz0x566DBrKuBzn3zySXrhpZfpA898kCYmZ+m3fudTKcZZ2u9FMXo6duwY96VgRc6q0EB4ZsMwgdqVuiAw2taXYwe2x+rRBUYbb9sEH9Fw9mBKPSLPpksjIsdJUmjD0I19X74+NSwdl2ew2eA3DOHkadsWqaX162x6zvYLAZlYdGeZb7WK6Nc19cQNJ1QEn/r4HO/zck1cb8nVSBWyTXqhcXN1jc8RsZbQAUbvY/59JljjsViiic8zIYNYBES5mlpoz8+4JpcIw4oahvSkSb3LjREOG8ZBaaPVpn57SwebvtEyjBK0Y6+F1H4JjcNvGjHlCdW21givpCL4FKMYuVHVk8YH3vMI1MvoX/1fv09bWOnrYOSZCyygbDrBptZVZB0/+4ak4CaTGxCPeRv0rfgkDrITLywRpFgbmpReRKXKGHU0ovEHXSpryPTwiT36gu7EPkH79u2hr3/za9RurdKJowv0nqfvp698+wL1ownyFVbWsK4uUxmFca9MFy5v0Suv3+LvHdGPgbgwMlLnCRROop1+lf7gs2dpVCOkWq3Kqb+JyRExURuv6xVrRf/OPm11y+Tqz/Wx6jUNunYytymoJA3jCyuLVGzpkDEyiwOQm0q7SVEtH7zyQTAdkOKaj6HzOjs0Mmb7l1LUapUsDvLBjG00oqRfymJXoN+5qRIt32xRzdmkiWm9vxd2sXBpq+NzDQ3p1/37D1C9WjOf09PfsabvS6zLB5bkiF4YVBzUftpUgv9SqBFHe1OUoM2+dcOuBtkw7BMFbvT7RGGZEQz7+3gixgFdvPRucslN0q9IvYUuo2Fev8CDiiMetOh0sNEoB2aGkT7fUGt0wPTEcwhASAv7Pf1BfWZ5so5hMOCaFqvCh9I4zd4+oaVmZyn0uB07sotKd/AMXgSfYvzFBqBqhX7k/U9T2avS//GvP8m2zCwWaXLa6dVyqJK0hkx+iZZZJhVkqbuGTeeGTmZSDY01cZiaFHFBo46AVS+QS3p1bifFp556il566SV65197Bz322GN04VqHltZDKtUnuZnRKwsLiwbirGqDBD4T/SVTU5Ncu0DKCEHo9OkL1IDsjrFacD0deEuKKiXFwWd2eoyWl5e5bsH1nijIbI/9TVYcFb0pghptoIiGKh3gbygBRFE27ZVPoWUDSRYVSRrUpgyHp+KsSV0iH5QoR0uaMBza32SDTzqoNZtd3mdPPPEE3X9kH+/nS1cu0xvnL7IhG/ZTq9NmpAjNOaAaR4nwKJu3WTRle8UG+ri5IsQaoB6Xq5dBp86rDsitBBxkoCnrYiZHA3BgiBMmnZow2eKqlpxfgaDOQH9XNPCNCCpSvj32hVJAOaZnCdBICTwSZ18rCGtsSCiFeCzTjVXhc2LWdj8DvR85vD9mYBbBpxjFGDJKeiJ89v1P0MioS7/5239EL716iQZ9wxaipGhrtcasiZvt7Y7ipEOYiT7KTHpB3OhnLB0CKx+TpPfwf686Qq3NHitnb26sUnV+xtRk5GN3H3iYvvy9VXr+8ihdurhFTed+8kZ7tHsKwpuzND0zFQtusrNk4HM6sdmAnfQKvfjiizwZwUTuwIEDeqKrU1MHJc9N6jC2ZrW42qOzV7a4+//wiSfo8jVFNT35To6V9cSLtE1fHC+ZxWeCjGnejeIUFhmlg3RKTaWaVKUW5NoAdBsJHUkZUWKoZpQCKG1utg05bZcCkn6uME4f5VNwNrjJ9oYcVFaWl/i5hx/czc9deON1Tr/dd/ggfeTD79ZBu0zXrt2kL3z5Zaaw96IeM/UwyUPhORpssSpBq+/p/d1kBlkZabjuhl6Y6LPDbZMqVfSJWKbxuRmqAaz0dCBDL1pHLMvJgwoCbDU8vofGoHKdWGEj87vN7wpi7byAazLsrGsQjgN1cqb967+BdjTSYa8q/Tg/zwgo9Th6gLjG47NyhTLkA0n6+nEjtkU+LGm0a/TOTs0XU2Mx/rLGO596G01PTtGnPvNV+sznvsarWDtJWiQkFgZWryvKdXhb9lIUr/xl4vVixCOzWxQrEmS68iMp1KOpEyvfyalRRkO2bnL2jbOMYJ577jmqViaY/ozO+grp1baeKHjVbRSvLbUb76/MlLkmgR6TxcVFun79Ok+Sk5PjonUXZZUHQJzA4wcO7mEdOHGpDPRk2KZO06eJiRLNTNb0pJvthbGBJU9ISOvLpVfH+d6cIMWUytdfUqW3VNoty1ZLf2c+lZZ22BymbpBnv12+fJk219cYKUK0FDWyV199lffLAyceZDTo2Jqf/t3wR3r4YUXf+ta3Ygal/R1dvf+6Pb1YCF3q9AUVdDQCCVSfHAQqT3qn0EiMfiocR/bS9SjVkOtIsykf3EAWPhb5KTdzHCy7zwq6sq1dEBrygbn5vqn9CPqxN4uAxII7QT2RrfMYhY60YjrllLKxvQsL8zQyUiuCTzGK8f2OB44fot1zk3Tk4DT99ic/R1ev3iJ/oLJpjSjpWZF+oIQlxxNYIGKZoUnLcdrDTAKyMg3MilE+Jwqkf4IRhFelxaUb1Oz6tLxFVHd30/Nn1vTEd456nS7NTOynt52c5LRPoFf+fm+Tuta6gZIUnlQq7OTK0p1UHZmk/YfG9G+6ykhoef0q14IqEcW6dGIeN2ALg9GJOWp1Qyr1esYywKGB3r72CtHSGnpfSjQ9XqUpHYxc6nHfB9EwdlpoVsVRvB+j2ElW2IOR6ay3/VaMTlQ2ZRfl02NhOLROlK8JUep12UZUSdlxtQXSN90WB+dety2Opof2cY/Tyy+/zEH8oQdPMfEgj+IEe/l0/OicPk6wQpdggCCCoNULOjQI4URbo5H6BPnQV9MLkYHf0feoo9SoWp6g6ZEJ6jVW9Q/rUbk2wiQPVapShLqaK5qCUFNHehMKC9bpVZl7HHYvJTxrqeqQdwJzjanSjID63LeDOg/Xc4BYGf0MGAkhNQgFdgcLEzaK65qUXMC1I1Z84+Bqen64MJWItmK99K7H91Ol7BXBpxjF+EHG9PQk/dTHP0RHjh6mz/3p1+n/+/Rz4qhJlrnlplb76f4UE2QMISEgy5ZSscq15NJNLcI0Bdocu+1EwYR38+ZNanQGdOHqd2mpMcII59iRo1Rmkcqm8VGJYt8gy6qT7zdTvkpqAdjuG9cXeXIFsmKb40FX+jHGRuKJG6t23MC+S8vNSD+LoBikKbF6bzQ61Ny4RSvVkA7um6Na1d0WCGLTvlTn/DAh0HyKLR08YoaVk6udEQ2tE21jtg0JTvI9cgzXV5eZMIA5HsjDUVOs0Qb0ibQjmIaWQEE59JUOflgQMKrR6BQoc+CLc20/dFiCqT5Wp1A/DwKBW66yXXYA8oVXIc/U+/TB4WZmKGmzXUUFtTSk2iIWBQXackJXAp7rxGZysRZhRostTOpMgWFdBtJSQBbdILik6j9AQoFBQGDfCfstse5AsGFTRdre38PmC660Cdx3eOGOnweK4FOM/2Tj8UceoIceOEIf/dF30Ze/+m36jX/ze6yTFQVezJqSdJlZCUeCaHzb7GmtFSJb0wiyk6Jhj1kNOBS6MRk1S4/RizdmqLLk0uzkEXr64XET+NoaRQVMmWbpmyjMCEFa5QCrxJCs9x168/J1un5jUb9HT3jetKSEaj4ttpo6aHZ5ld3Uk1+j0WZm19WVl2hh95RGgPtpZmqCG2rhCQOpF/QN9fV2YKL1vAna7AT06vk+ze0epb3zY1QJG+wpExrhVatVZ7fHtZO/ncjzBmkJwBwelKKkmTdT0zG21tYePfGJzn4GjguMBZcWb/CEj/TjnoVZ6g36dPHSBa6ZoS524sSJVJAZRoQIY5tx7Df08KyurtNWc1OjqI5esHQkaLtjNDE+SVR2+Rwoc9+Oy465OgpxPQfuuLBjh/m3O+hQ1BXrdpxTTrnOdRjWekM60i9J7cv1jEOf0AZZn1p0bjJB3wmsnYdZ9PgW8QBN9eKengA1Hn1coW6Aml4AZQggINTWfCGcUGi9giLxDWJgLZbzro6UOCfe9sA+mhjziuBTjGL8WQYm5QcfOE4nT9xPP/ahD9CffOFr9C9+9bdiZWPr15OejCJTI7IIJ4pUrO2WRwY2+MhKPqKJ6WkaXzjKbLBjR49RvVyhwN+IrQVEg07FrzcfmKuJONuUCkA8YMkeNpUry0qeZXV8jbRW+TVImtVqY4zUMClfuXKFFq9dob0LuxkB1OplLiSDSmw9dzDxlkou/2agqvWVy/TgkV38unwtQFFOiTr1t1U+kFDpDLdOoITp5hie9k4MuQxLMYW4gEpuLd7kx3bvmuV0WqOxQefPn6faSJ0VIcpeKaMzN9TgjV08u4yOgHJg076y3mbEyqiHG4aFxTYxPcGIwGeXT8UsOLZmhyaPDiBKT9gumlMdL94nsXo2ajNRz6iKmyAdmDqWEZJVjpvZzlheJxV8BJkLyxLBhiWHGOkIukFwCSCMi6bn0MruhPz9jlHiiFIsN4dURh/O1vZw3J984tQdn3Irgk8x/soMXNj79s7T3/75j9OP/+fP0IunX6FP/uFn6U8//3Wh5obGWiHytk2AsfOjXXlatWtz1Q70ewIaoamFB2lyaooOzI2y+VmgV6d+v23SazatZmNdor4cWkKESk3TqYU//t61sIc2Ohf1pGLSNE4JpkJUr4yRP77AaUVXfihPThU9cQZ65Y6+j5trOnCVmjTpl2lleTVOy6EuAiKDr5GgDxRUGqV2r07feHmLDh+o057dFR3s+qwMEfcDkfhkZqwVKEvDZkdM+7hRSQ5TZAG7b52csR5bHESpIBwZrbrQ51TmVmONt2P3rhkO7qh7Id0GUsHDDz8sCt85cdZtWEdvAxQf8L7GVouD2fpWg5aX1+jc+csaTa0wgsJ5UB2bpOrIBIuNstRnJMoApAaskqDYpJCYdMDrElWRwBuK747SAQE9Z+ShLlRllXUgDGW203FLJkC7GSQYnxlhkPF3AooRncG+NDejxuOHrGAAJOSBEOP3uQ+N64YaFXmscDDgfp4QyxP9ma5RLgd25VQo/w6Pe3oeOLpbH/eRu+KaL4JPMf7KjcnJCXrve95JP/Tud9DK6hqdefUcfeWr36FPfeZPaW21uV3rKsZFQbwyNTgpZivtP7CfalNzrEwwUQnMyrkfKxBkkA6poav8pJ7hbEsUoZYBOZ0rl6/TZqsragWGIh3p1TcQXhaB6BV56PFWomCNSfbUA/fx52PbgKRAQwY6Qo4f1O36SI2qnig1Q4uuveXS0cN7WJ4mzWyztZq8n0+atSaIhbZZHOTVpjNByyIhSnTpoALe77aYWAHWGt4DdILX49/Y7mEoJ38Msb+AaIB0EHxQN1tb3+QAdn1pkZaWVmh5paFRpTT01qpjnFbzI2M14SbbrJzEvTSrDWgZe4I8uObFwYo4YCg9u4slhGmGtVYgkbEyj5FPLHkQL3ZsE7DLzu6CcLDI4FoQ6NMIRJHUfqTvR9htfJ5QUutx49SlkFQsCsX3A/W87z1vv+NZbqlz7c/WpJS3/f2rNhyhzgBTg1OLowZyPJL8U/o2g3lDX+i/Vkz5f/UHEMH6xgbduH6TLulJ+c0LF+n8G2/QpUtX6caNRVrXExcu1smJcW74XN8KaHk1ovlDb2N762OYqPVAPYVrBVEYp9kkWDnxCjfTtGnVnx0VO7NKUDOTp0nLOIaCvdHY0oFjnbdVaNSJxlo6TRiFXZ6kwKDaNTNLR48dkLpPqqkWv3lzY40n9Nmpaa6V1KoVY8fQo8nRGp06OceqDa7jZ4OyCUDeDkGIzSl4Ze3GFPBc8isOttw7ZNKevVaTgw6CPdKFMHsD6wxpQQRZ0KKZSaaSZYFM4ioTiKylxOamBJ1mv8sBaH1lk/ffrZUlWl/borWNlv6ECtXGxqlcqm0nNmD79CWOvpwQfTqo1YBJUEKBXgdrjcKgYB4BjaKfx3X4b8cr6X2G10mqlEwzMFJ1orptKeyenS1NrSuI+5wckxLGvQ+FAu5xGvC/EZtwb51Z2Y8Kj/tdjbgU14AkJZx8HpuxkgStRH29zEoZ737XIfrEx5+hsdE7N/joAPpf6LtlfVstgk8RfO7Ksbi4RP/zP/t1On1mmRYOP8b9NG4k7KggNJ3pVgXbBJ108MkgHdNHFJjJWlmZFcMWC1XWXyji5k6H7ZAxKbdaHUYynU7L9DbJCxEsRmBiNzFBc9P6VEQKTQUcfDK6a8YiYn1llZHA/n17OW2ISSvsd2hyvEePnDpGnhtsY7qx2kFKETsbgExwMQmQyCLH+DPCjP/OyvoqB4eKnqTBDnQ8xem21laTKdJAOnm3UttMKp+beOBgfyC11mw29a3Nn3tLB1n8PgSfjY0mK1wgOIT68g2iMgWsv+ZknFHj4B95HFSgI50OPkjJOSwGW2bWW+SWM8EHzaQIPqBYc3MpW1YYvyfHi7fbKjfw96qEBelaS3VO2/rGBsPnGg9bLCDYQEbHBB9BPJKOQ5CxwccGaQ5m+hxww6SnByK2C7O76B/+/Q/Q/ffN39HXZTr4FGm3Ytx1A5PBq2cv09LGKB05cYgmJkb1RNChbhAyq0xo15EgHtSDLJkuDjgSXAJlEY+dfIxzpXJTqCj9+ljylJ/zImiNeTQ2WdfbNJ0xH5MVc0KoYN0xQpBzY/toDkSc+/f0JOzR3PxumpqdoVs3brACwPHjx7hPZblB9O3vrdJjjy5wPxC09NK225AhSqfhVIodx2Ka1DdTnww3Dj4iGbOqAwKC38TEGO2bn+PX3Lq1xJ+NdCMCofnVcVDI1nScuL9JUmtbEnzaHUY8qytrHMTwOALShEat73v/B+h/+h/+G/rD//BF+he/9lscxIWWjOSUCW7W6sCh2EqDO67AlfCxKHB5n2KCd8FkUz2xKQBH3jX1IQQAID+WC0e9p8JmfOj5sYsLLDYyyNHUGd1YByqQbYnkeIVGrSAyBATcM4kBCMi3tH8J9qwJx/Uq+bc0sVIS6EAyqET0vvcep30Lk3fVdVoEn2LcdWNtfYNefOk8ze3ax9IsWFlyjSfM9sPkazv5fhi7slZ2NW8n7Ujl2GJOjjmWrTHYPH48IRvDuwQdqAyrL1Z8sNpsKZdMrIRRR8GkDR2648ePU7ni8eT96qvrdPL4IQqDfsZ+O004kADkxGZudjK1Hfv232Djra0t83t26QAD1lq/36UbOvCBGYY0pjDEKNZyy5MJbLCV1NomBxaWI9JIB9u7utmQx3XQAQJaWNhLf/fv/AL96H/2LO9zKKN/6IM/RL/5O39MN28uxqrfUW6hwf0xxlmUTIMmgrVlDDpGbkje6VIMW0kZbTSbfnTYwgGIh4+n7fOJsv1TSa3RusVKrcfe86KCFQ9M8EGQg06ckeGJt9vYKNi6Eaks1V0ajz3av38fPfnYcarXqnfVdVoEn2LcVQOTzbk3FqnjT+g5ZEtPYnr13g851ZXI90idIzBkrbimk7fvxuQDNAL2GpWYOJCu9djmQ2WCjUVQbpidHIPYtM16Siju5wlVj3P7vlkBh8j0oECtV8pcE4jspGQN7eRyhSfm6OQ07deT0fnzF+jQgUNUq43S5RsNqowSLczAXwZFcmliTZu9WVacvWcfolgBQRxYoUCAhs49C7u5drOx0aDV1VUudB85ciR+bxyoKUlJ2fQR5k8Ems3NFjU02ul0+lyTA2LDdwAB4cYyQ4cO08//7CfoySfeRgNm+iWTLKzZf/2f/wp94uf/MfW5DSa1/22wZkr0wKBSh3ezpLSYgKb/6QlSAYIBAvGUaViGOGyJGYoKaTcO1v0Y6bK9u+Mk6VTjYOuYGplluzHyYfQSJrR+Di7Sw8MBMGazRXGazk052rJ6u+2zcmUB4ugTaWq8Qj/50Sdo78LEXXetFsGnGHfV6PX6dHO5TStrrZg5hgmLezqGlDcFDbgZNhdZpONKfUeCj8uTEaeUrKyMY6m3pjDtqiRtQimWWBTGHfwieKoMjZblMWXi4e93eAJSEhHNSptyagZJLQho5OjRo3Tl0hVeIYOs8MorbRp/Yg+NVEuM+NLst8gKiJp0nN1G7BsgEAQfaKqhP4cR5Noa77+5ud1cM8ub4Q2rF+Ozms0GBxkw1lqtHm3oz97cbFJDoxs8BpSD4Hbq1Cn6x//oH/LfWNVbnb38mJudol/5J3+P/sf/5df0fD9g6r1lhPHEbXTehBCS/D4AFjDfQqMiYOnjvB8ixyxGVOx0StbR1ESbyFCuXZvmszbqsSVE1plXcb9O2rE1YIVs2ZZIVNqN6KrQ27O+VlGsnSfbAxuOj/7Y++nY4X135bVaBJ9i3FXjpddu0Neff4PJAwMw2lgyS0gFvmFbBZFooYUW0Zg0WuiaSUgBFZW4YI2aELS+UItBixGK35bdhuAkGRzPrIR9/VpJZ2VEOGPDsCC2IpCagGdcXUXZgPtDSgP2iQlMIZonKFdqBqz4Etk0mYCNSG/DwSOHuInz5o1b3FOjnDK96+0PUtm9RWLMmdJicJxYPbyrEQ5qKbWSR/sW5hjl4N+geCOYIeAgtWYN9RyyVO5oG1UaRIrNRjOmSgu6aTK6aWoEBBTU6nSZHfczP/Oz9CPPvIe14yrl0o5BJ73Nz77/afrCc9+gL3/5O9TpD1goNN3nZWtBQEBRUGLEi7p/pAOyqyGp6wRsNhe4AbPQWHUgFKICH0dnIEQEZl4b/6jYS8mkX00aTsUq7IEJRnH04IUEsxXN8Q5NH1BoTA7l9SZcGSFcG0QRKAV9KRrRx+ID7zlBT75tH43Uq0XwKUYx/iqPsxdu0if/6AXq9HzOXfiBnygDp5CIpMpUZnJL5/iBSFidAHMSjF4M8iFPmGGhSqjXMhnbFJaXUZqOEYJZiSvrAxPKfCcmmkJBZiSEQjf3joiid4xSlIpN4Wib3pcEI6TD1lY3OT026LdofqpCD56YyLLazLYhMCDdNTU1IVRpHVzxGJAOemgOHjyYQTZxEI07+5N9if4koBwEmVZbqNKNhiCcjg42CDpdHZj27t1L//t/+ys0Mz3Jv6NSKf/Ax/cTP/lhWr61QafPvCZIItU3JcKzhmRhqeqOyqilcz+XEmFVW69J14YAjRMh0wSJODYY2dqP2Q+MqtgRleL3yb/DuCaUbkK1VTYVE0+Sz0srVLCEzqOn6Iff9QTtmp28a6/XIvgU464Yi3pS+uwXXqb1jRaVYEmNiSYUVeUo72eDdFlkbT4drvEAQfDKl1NtoOSW9OMRIyPHEyouI6X4XrS/0hRcS9UOVS49Q7axc2AQj3jlsLYYGkRpYJoS9St91JjMvw1KYWcjyMGoPqeA4ppSJIZxvmlmBRvu7OsXKGyG9KXvXKSZ+adobtKhctSkAPporYYgmplppkbj9yLgNPRnAzGBuZYnXaSHrbVIaq3JQQb3raYIfTaaWxyM2t0ePw4q876Dh+i//6f/hIMNBDjfCuXcbjz60DH6xb/1Y/S//ctVunxxmbqs0p3ILDm+w0y30B3obfTi2ozPQaTP2nQOEA/6eABUEZyAlGL5HHNOKEHElhxgH4PGmgQLxywCjFdSaFW+BfFYu27Ly7N07JjdGFmfHutbJak2oLlyyaUHj83Rxz78CB3av/uuvmaL4FOMu2J87dvn6NWzV1h80SpEWxYXqbyfjuT+OcWB3hPX5YnIsffmMQhRuki/mcdYNwwrZcc0SyonDj62iVL6fgwzzVCMyTDPbKHZroqZhaYnLE4DShWAZ3jIsXAqJpRtDG1zJjmxSGg+7YXgBsrz1Ss3aWOzwWy106dP09OPHyMvaLBcD/yJsKr2e10OOnDuRGqN60U5x9FhqtJIrbHsjb5JPUeCTrvV5XRduyv9TKPjE/ThH/0QffQjH2aE1dHPAWX9eYx3Pv0EDQYR/eqv/w6dvXgpgwAt042tIoythA0ecR3I1lvIj49jEEZxE3DMcBR/7WwQNlHfqqqnCSRCuw9sdDaI2NSEUtqEYtpni4IJ69IzSuYnjh+lT/zEe+mB+w/d9ddsEXyKcceP509fos9/+Sz5gatRT4n6enWLWkrIgcdjuTUgnchVXGfh3LpBMKFXFqqwW9YvcRjxsC6bV+bce6BfhxxZiAZFD6UXV692PUZTgati7S8b5DjNY60cojAuQAvRADIr0lyIPkg/HDAFlyCzo1fg+DwgIfSYCFVLBzq9vpeaQRhbg4d6EmQlZf05nlkxI45hApvbNUVbPWx+mb79yjIt7D9J7370KI3WHNpqrtPG+iqNj46xCkEixxMNRTxWVbzb7nEtZ1MHHSAbUKWBbBBoEORQy0HwmZmZo1/65V+i+48d4fdPTf7FMLTe++63Y4anf/Ubv02vvfYm92OJ35JM+jRwWUIHNTxim4SyKHEzqlXcA+Q4FoG4vP+swyzKMkK/7seI1jYVoxlVFhOJzE5ansgSD2yssTWeuOJm/x2rtA+YOQj2Xams6G2PzNNf//F30SMP3ndPXLdF8CnGHT2azQ59+4U3eVUOGZK4F2QH/bfYHIwsehF0gcDjuIJ4oIpsH3dcU5Dm53iNyjUArhO5SZ9PnJ4himtCqN9Y6q0gl4iFLbn4HIirKst7BkZEEl8QSe2AV+dgcaHoHUbyFZD1cSixNOB0XGL5gIeAfq7favMqOtTfAefP+ZEjtH/PDE1Mim9RXGPI13RSA5P5VqvJ9Zx2UxDNVtPWcnq8v6E6jQFjvL/xMz/NKApjbnbmL/y4v/fdT+vfWKF/++8+Rd9+/pX4GGfSnEA1jIQCg2issoQTC6yKLlwpbjxOswMTRBvjFuPnpEwtKA7XJs9qazvWlny7UoVFQtyEbOR8kJJ81197nH78w2+nUyfuu2eu3SL4FOOOHt975SqdPnOFAj8ir1JiBhXXekLFni4yKZjVqSPd/UzJhWSO6zHiwcoTfwcswVLmGlCg0Y1bKosMCyMi/bcb8So6ABIC8cBNaYulJ3PDSAutbIqR3Q8BnVCk1kGGNw3qxvrFPgc5/b2+J6tjICS98uYgSIad5vW5kSh0+zwZBsIjNhOqyLhoWMW1nJnxOjU0WqH6KL2xskFf/d51+gcPP0UjtaZsn2OK9LQ96CCobDWERNDqNE16rcXBR2jrIbPxFub30sMoir/33cySwxiBzcNf4njn02/TKK5Kv/sHf0Sf+ewXqdcPWdYIKTUOQoO4+Cb0alfFgqHSVCr3Yd+PFyWcNTPUedcoWESRbTY11RmLZnNNxmydEB+R5PgnQrdBktbDOaO/rzbi0sd/5G30zPvfQfcd3n9PXbtF8CnGHTu29Ir8u6cv8qRoe3V2cu9UpLJMNIN2gGh4DmctL5fl9PEcAg8x4801wcflqwXsN9v3o8xkZoOPHWkvljj4GAYb+7kQ59z0ezypASElB7dLfEdkZyv9PQNDOoikl4iFKk3tQlhdKWSXUkIAs2z99fOsEIDAAMFPqGOfPGERyXbGHNJmlrXWbvUl6HQktRaYPprx8TG6//776dkPPEszM9OMtJDq+085Hjr1AFtP7Nu7h/71v/ukDpxQFA+3oThJI5q6mzLsNsf0eVnLBBOUbD9UIiRq95VVN8g7vNo6XJDGQcm/rVKFShiM2G+zM5P013/iGXrm3Y/ov6fuueu3CD7FuGPHS69eo1fP3dTzdsiGa2zmhf/s5M2rU5fDQeh4EoDckoh/odbjCvrBY4qRjTzuIg3jiEoyVJBDVWH5fghP+mwQIyt9UVFWcfOlVUEOKHH1jAOiB7KBNIJGUYlrDkEorDb4jjlexP1CEBeNAlNbKCnT0BqyfWtUiiRoIT3HEtolswzviwKMETidmhyhkXJITf25XqlGy40WvXx+iY4e201l7tL340kZQQYKBsxaM1YGqOsgGIEswPpts7P0+BOP0TPPvI+qlQr9WcWI/7zHnoVd9Mu/+Ak6fHCB/v2nPk1f/8bLep8KsUT8nwIRT/VtEOqZJmFTp4uFQ11OdSq9fxxOv6X8e1Kstji0ObaPS2VUy+2qw1VhbPPO3wPnWY2e61WX3v7oUfrYj72f3vH04/fs9VsEn2LcucHntavxBClIINrmvWNXsnEvj0U99m9X0I4ydGv8m71bgHggRskre0vFdnn+sWZjscKBsjWXrOwMf04Kjbmc9gtNf4/09XDR2xMEJKw3V/pU8F7uKjVoyLDdyPjNkBELTVbdYaxww8Z8+/bRS1dW2AOmsdanS5cu0c2bc3RwrxjbWe8cSamZoNPtM4FA6jk9mp/fTR/72Efo4YdORRpBqb9qQSc/nn3mvXT8/iP0mc8+R7//yT+h64tLMQpi7lmU612yPV+2jUllrRoiUpn+myiFMiWomP2dY78ljrIWCRmlBH0+TU6O0Q+/81H6uZ/6EO3fN39PX79F8CnGHTleP3+dXjj9JqeE4skEuX3URYwWJAMEUziOJBpIHQgoiCnUJUYxAafbUO8Rlpvvirpx5JUM+00QUOQmsjs8EVkqrtHTCRyjpRY6MbKIV8wALVBL4MZETxSrgc6wKtdIKISxnXECB0mbUYzqGe21gQSZgGKFBOX2TRALRCvOk8SeaMANaG7XDI1dX9VAqkvVkXF65fIGff35K3rlXaFWY0n6cdqmCbTb5oADtNPr+TS7a57+6T/9e7R3z7wN2upOOS8OHthP/+CX/wZbTX/2Tz9Pn/nM57n3K+JjAksGj9OdZKjxokpum1J9WaxYpGLOG0dOsNjnSZl/x0EmsuaCA3O8LaKKGOmW9DEfH6nS9HSZnn76JP3dX/wpGh8bveev4SL4FOOOHK+duyZ6bWGiBByG8VRh0igU+9GIbE6CfJS54W8H6MbUemJEZFFT6nWRk/T1cDMj+62QYUclaZjEWsCNZXDC0JIRlOmwF5kWDpKmoVR5kiIKJbIJGgv9WHGZzKRIKquqHaXSfJSyNQAL7erVq0xCuHZtmb7zne/Q7ERAFW/AwQesNdTLEHyAIKGQ/V/9l9Baq5Doi6k79vx46NQDwROPP+o++7730Z98/sv0uT9+jhZX1mMpHkE6dl8ltRxZMLgxjrHH2wqz2v2dRtc2+CDQyDEmoyiuuOY2Xq/Q1Hid3vWux+inf+IjNDY6UlzARfApxp04ur0BnTm7xD41aBAUlWVP+ipgq4yba4KEdbdkooAjpAKsfLnGgx4eQUBAQqHnMvpx4G7JrDeDeIzJGFhi3PvjBRx4MOcMUMBmrxjR7JIm1kS0U2RbHJHcZ3qvqBuArh2ihwg9Kr7D/Uhh0DHSLoEELEyU6OkxBmqszMC2Mz2p+7CsjGsQX8Q9QlDvds3kuXumTjcu96ivRqk2uYdurt+kM6/fokN7Ik6rNTtdFvX8yEc/Rs8+8z7ukcIXOXdy1JGFSFSpVHgnPPXkY3z76Z/4MH3py1/Rt6/S88+/pPe1kiZhsBYDh/u+YoSssoKxNugoR2WtLozxuqIw1vYDivL0wa5Wqux/tGfPLk4FQrH7ycffxqSNYhTBpxh36LhwaYkuXrllCvppFeGs9liMEG6DeuzNSdV+QHGOkQ7Xf5x48hEQYrXdYoWeGG3IpJX0hnDdh6S2HQmBSj/mcK9IEBmvIIkj0szIKTWDfDQSYlKCCuNeJDLbxE2zUYKErCdNCGkHEzrQ6zM2Nka3NMIBu4o9NmFFvt5gOZ3/7h/913To0EHuB7Jaa/3BgOs7d/L5MSxNeP/9R/n2S3/nF+jF0y/Td54/TS+8+AqdPv0aXbm2xMeVUvWgTP+WRTwW2aaCjzjbhjqojNLMzDjNzU1Cjy166NRJdd/hA3To4AGamZ6ier2W0fsrRhF8inEHjjcuLTPqYXEAbvyT1WlgggYma2uNHXBTqBLaNP4GwmCk40kNB6kuoBwWBdUoR5UZ6aAGhI52RlCekex3JVUD5hoHOld8XMjKtNiCdZQYjlnFAy4rMKiJJK2mRK+NmXiRmKPy92NKY803l/tGsB0h1LWZ5SZunahbQK2ZTenwW4XLK82n2A4yNszk68lwjJbfuEEeVKz1b1taj+g3fv2f0fTUhH57QCX+/cm+1QHrrp8hH33kIb5hNBpbdPbcebpw4U1689Ilunr1Gt26uUQrK6u0tgkZIaQk+8b2YZSmpidpbmaGFhbmad++PbR37x7av2+fDjL7aWR0lOM+zoWRkbrYdytVXLBF8CnG3TLevHwrU+vZpmbgJHWPML2adazvjhvXdlSqzqPSzDiLipgBZ2orStJuoZI6QVwDcozvTqrJVLYlkamRx0wdCXUf01OijO+zNC7aVKHLbIkoFCQUme2yv4NUtvZDeWmcFKsLbDdMnCAW4PvQy1OrVXSQ8YZe/uoemyyRBnv7E4/x7c9j6PPyjk9b/mWNAgcW444aaCy9eGlJivSR4BuWyo+kr0NkzhS7VnLqijvJPdHtclxWLwDjzaobyM01PT+o8eA1ZQo8QTo8/6Om4kivDtpGolIoPTewWEAvDmpArtwiLxQNOCCTErEOG0pMYVljtHJAg7LkbZQrz0E5O/R81p0LPShpV3VwK8sNdSggNMdsM6Mvj7eVe1LwXqZgu1wzMkYz/G9+DLUM/QPmp8bJGXTJ0ahpq92nM69fKk6kv8SUXzGK4FOMu2DcWFylzUY70z+T7+3Jqz6rHDssf4t7gMzf9ibvtf1C9nUJkymtmGBvtm/EdZPXJu8xsi2uynzOTt8/7KZydYm0rE96sH23oaGjvmOVEVDz+b1P/XFxIv3FBZ9iJxTBpxh341haanDdA3US6Bn4kTSX+sbTxaa7gBBCJa6koUUOXBPyGC0E5jkRvXEE+Xj2dUa4mPtLA6bQCkIJGPGgrwfPC9KJYiRDBiUB0cjjEK0MKSgF5LuCngCuIFodeiF/NrkDfh8+n9N3jL6ErWe3m83qGAW58W9iwzuqxJcwthGPWb03EIN7JOreZf07ZqfHmY2FfqIXXzxfnEjFKIJPMYrxAwWf5Y2hqAf9KkM13XIrUfuYa1QK0qhjGBIadrOIKEFHWVfU9OPbbwma2umz7Xtvtx3DfmOsnmyQH1COfRyOpZb6DSmdYhSjCD7FKMYPMJbXtsSSgEwzpzFr8/sDljkJI6HAQvLG+LGlJnLReYsna0Y5Uv8JmY4txnG2xoPP4M9xAma2kYAO87zI6kizaShqB6yeHLJ6MffzaDSD2g9bI4MuzV+vkZTns70lP48+HxWZz6WE/m36TmI0ZDTIWBwT3+NanxmjfM0CqJ75jYp63X5MysD2VSslNnSDzUOvD8p1UJxMxSiCTzGK8f2O9Y1mjHhi+RpKnDbTSGQYQkg/l++7GOZxk0dEUeyFQ0Nfi9ewQVgOtaS/I32fruMM29Zhz+30mvR+ARK0CMjeoP4sDbmkA9CgOJmKUQSfYhTj+x2bjf+fvXP9kau87/jvec7Mjr3ryxrjC9jG4BgbcH3HxhibSzABJxAqVKpeXvVFpEqV+qb/SN9UUV+0atWLFKVSpCRNUVM1SQkBUkJoTVACgZabCiGUGtu7O3POeZ4+v8tzzpnxGttczMXfj3U8M2dnds/snj3f/T6/28LZ6dWkMZqF0XwzLZJsn7a8UdGoc5s1pyOwc3ack3mgfdLxX9llkBQVBplm2muKCuXa7W24W3ZYTjtcaywoNls3C5pjOBIPEpdUNOnZ5FoBze1ZosV1tJhIjym/Rjaewsr7vb6n9g1L7p8MeYtt7+VGkHifFDv2BvTVv/wWTiYA8QHgQjk9tzD2V35XhBhujpmXm87lNs4VM5mM6bTPae+HEBf5eOs8FnMsk5l3i92ffHyu1yx23F04wy3HvybFhzeu+eFuB6fPzONkAhAfAC6U4bA8S1ykNb5da4d1Je4mWGEnb9ZUur0gc/0PFeaCSJ7kfJuskKdVNr8kUZ8XzA3Zl5QZP7U2Szans3ia7XnTb6V9TrTeb60Qdr/e+ZDU6vQuzyzMN6/P4syClMeLs/hw252FBcR8AMQHgAumLKtzOp/8mN3PpCM6nwgs5qLOqRUW88lOJ79u8lguRDAu5LjeyxV1j4k7VXcH2HWfm+Nj3GWZxQcJBwDiA8BF0OsVYxdVudByZ2Ku2GFHEzXYntOMF7uQxzBK/5XSadrVZmuibz5eeXNERDYf5xwiFaRVtY5JiE6z70I0x+Wyh5o4iqIjGDoqgefH8Oby5+w4Lt8dlR3bkcz5sbfGqtw+J1QLzfO7x5qX3Ph1gyUF9fo8xhnFkADiA8AFMxj0x/q6ncu1dGM/Z/V+m6iLmXQKuW1++3gxATrbgUzWGS3uzC7MbS0WsznXfp5CmuM8k1sWnnxsnO3GMZ9lM9PZEUWcVQDiA8B5WDY9tUjiQJAtuFI6OTu+ntaB5s6cTO6gSm4gWB+DQI5C57VB4i3cB9qn1+nGTay10ScHXfij0vSTJxWwO+GpoTJUh6R/nAuucUCTwqT950hqa/JrnXxJi1GFaPElvQ21TcTkjL3cBttpDl5hx6/zSoM5vCGdPvMulaGU+qJx8eyKD4mz4rRuFp6B79HqWRWfJFoQH/DxrGLgWwA+TaxYvrT9qz/yX/TaTmYxOMjO1fzTy6dk0FsegZwr/aMVqOb9+bHe1wWzYGMPOqtlkvHm/dmxntiYiFYcu1+jC3+O8a+rr2uEg5fJtGMqUSduQ5ZAsDA3R+X8XPOx7ufKr+d/1IkZSf1R1OF7G65eK/v7/T7W3wCcDwDnY/XsjF5km4u8uh7nzH3UhdSzSO6X81Qm9zE/d1r6wTUOJdTmIoJcjKU2iN0R72eXwhdycQv8ca/Dwzguw/GhoPe5iUGUJm38cXZAXqaL8lbwvtrpvsD7etSk4MnhptdVyYmEntzyPi+uKGqn7ipQL1TqfupKYztpX0z3hwtzNHf6XapGQ3VxcsxR5veI0+Jf6pwOHjSDLjspFiVxP0lvrli1TJ4zPz+PzAMA5wPA+Vi7ZtaWzGLjYFxngqk6jNZBkPU4Ywe0dEWPip4VXKZ9zpxAdhk8vI1nq8UxN2S1PbHNGMuTSpuvFdpjURtCjQNSF9J1SdnpuMbx6PLYeF3PmDNjF1OWdCa9h1AuyHHm/fnWmzPi9+HO0fFb+85FyXabXaniMzMzg2sAgPgAcD7Wr52V6AfHdihoDCSwS6A+xULn2fBf/Ox+vKutg0B6XNU0f+oULUkX/f4Ml9MUpHOsayq4e0DQoW2hKtMvRWF9oVUcXPq8rvbSO02cS5NYYF0KQm406saW3fKKGRuYQuJH6XWVLs+x0xGtYsdT6bG49D5cHSQTz3EcKglkSEIznDtJo7lT6XVz4uB4Lg+7MHVz6tpCXSaXU4uY1hznku9Bem8x2PvQWFE/vcfpJY4w7wxAfAC4GPFZt2rRbDUZI2C33ZQycSNOXY0vgk70TBftaXZBmqesz+nEV+Sxn8ha44t5rctW0RyOTDvtLAJyLEaPzY8dH5l7qpMQ+ODt65lrs1Rr14nV8LGGJDzDdKyjudNE5bB1OZ1Egtg5XrdIpluc+F7k3nPLly+nlStmcDIBiA8AF8pV62bpihUDevPtsiMu3Aut0mUuCcaki2zNUz4r6c3GcRtZ5rKMs3oY6MzJ/6P+0hEtXbaSVEOcJhXUTsdq1wP5vFKKkz6Qg6M6LkebgdZOxaZw+tEezwTqNF9oxmhXXI+jS3WeHRTHgsQBFVJnJDEZdnFJcGISmnLuDC3MvUs1N/9MTsxx3IeX3ip+Hd/y80cSA+IZPS45Jc7uEy2tg3w+ScagNgkhJ1pwssG69Sto1ewynEwA4gPAhTIzs5S2bF5Pv/rfF8f2ixOwQWo0Fv+hszLIONbDz+cu2KOTJ2kwHWhqOl2YOeDj7DmScZDcSZ3VxOuYBDYtvJyVPkcbU2k7HeTluPFiVKfp2qSxHRYIFqCanVSwdOiylOw1djphNBRhyS7IcYyH2+Pw406cJzse6mTUxYnsvW6HBJeEmFOtr9u8QRqMAgDxAeAi2L5tEz350xek1sWTLi9xynWkrD21xEMk5MPuhDsQON9kmnlpfuB0dSxdlKv508lglFQsnEluaIb6gxnyA+63xr8eg+QiCnU8/Fq+TQ5H4ji1DqSL1hcuL9R5S5sOJoBeRIx0iYzdUFloqKYuaTifnM5wXlxOkVyOr4ZJVEbp2EsRnViPkvCUcuvLkbyGN3Y+nkWpKpv3K++Zs/ZiLXGvQpL7TIhktDfRkqVTdN2GK3ESAYgPABctPluvbmbx5NhGzhhzpEWevOwkg+GCNu1UF6FjCwIH5JOwaBxI62ZkfxKgUThDfpge94dULJmiHgvR1EAcg+8VOqLbae1PJM1+4681Vvhqhqe2Oyw0oU4iV42Iu/6EYfqaw1F6XRKRspalMz4WzsDjrZaiVI1DccKBs1tvzofvk913VvfjOtl95+r4zW6N4z3r16/BSQQgPgBcLNdes4a2bVlHzz7/itTViNCwzWFNcLXFWry6E+sJwEtynuflsJPo9dNzk7OoNFXa82NJa5vKC2yaQRaGNEoiwcIzdIWIj+svkWU73hdscJxOD7UWcd0kiFBImnesSpunU9kym2a1eXY4HMOp0/50XJyxxsfnKxaiobga2c9xn3S8QVzQMN3XdOuQ9nF2m5P7KqrSXVvuS4mphLHYGfXT+x8kod154/okPmtxEgGIDwAXy9RUj3bt2CLiM95gtJ2zkzPUtIIzNhlmOfNNluN4La3WYlRn+yVhQYbPVSIqfCuv7U1JthonLZBNH41FMe54/HgWHheXBilUDdaRwVKgeVmMEwOC3gaL64Qc2zFnkzcWMCmAJRrLzNP7i7id7IBIs+w0DdzLOIXt2zZLZ2sAID4AvA/27tpMX/smx060ricrj9T8cIzGlVpHw3/7h1KcTe5vxvqifdmSMExxZzephBGRoJ42cou+kpk/hUu3Pa0DqnnpjZfInC5hpR0W89HBbrH5dcp91obalUc6EHCq9Uiy0qSbAncj4O7ayfm4aqSfl3u0JcfD3QzY6dTlSJxQUasTChIHsnlGlXZjiGWlQllrL7ietLXLHa+teYHjljqO1qyu6bpNiPcAiA8A75utWzbQLfu302NP/KJT15KJzf/qDnTYm9bq1OZctBUN19NE19MYCqsSL9vxv8LrMppl0PFSG+cpiOhYXzf+J3U/uSaoKQ2a6EAdNKuNiz+lANbERwpbK3M6aV9trkc+Ztlu1InxdLPcmpgPtT3ppKy0Dmf1nPM8SmEwoIP7d9Lmazbg5AEQHwA+CLfsu54ef/I5qfGJnInm8rW+ViVwWvfDF3wvcSDt+0bJgcjiGtf/yMTTWjtMy6ygID3XZMmOu1v3rU4mXein0uNY9KV2iAtMZYKPDJazmI8f6cU+TsR+Ym3zd2rNQGMHw73aiGM+tWYkVLXU6ziJ95TpGJLzYRcnTqgWl1RVGhOK7JSkPqi09Gvtxi0OT9LJI+UEcedr6iXBnJ3t0Y7t1+GkARAfAD4o+3dvpZ03XUdPn3hBiz5zbzVfdEYbqGMQh8IGg8VIkhB0SYqdRuEKcRfS/ia5IE7NjjIbm5+VBKGny3ksOGI6vLM+aT1zWJrtVlu9Tx7olnvBZfGR4s+gbXFUfCoRHa7pkdgPacxH3A631on2WDaNPeW+bsGSCqhxQtrlOzff1pojvc8xHnY9n9tyLU4aAPEB4IMyMz2g2w9vp/848bLGPWJoxg5o0WfyOiwYZB2onToPFpaedByoLbONm4zy2IW+dqPhetLeIO2zxIPQlxhSshDUk+h9kVzWFNVuZJ0O1GX1bLnPx3bOEItA0TihyhIQosR6JHNNlslsOS4MJfWa30eUFOyhOJ9meU7qf5KglbUKV3rcFJrW1udOHJaJsIvUT0d15cqC9u3ehMJSAPEB4MPi0M030Y+efIn+/ennxSBo4D93ubbu0N76r1n9j5ihYIkEuUO0+BYvGy+oSddrGa3tpTMAOx2uv5EU63ShZ1GrnXWgtpojZ/VGkt7N7sSNz/nh1GhNwQ46vjtnu/HyWq2p0jkWxI/rkJ2QuqHa4kGSGcdJEeaoJCol9Uyt48p1UJzhdvjQPtp+PZbcAMQHgA/R/Syhe+78DXrqmZ9JTCVUbmzAGvF0U67RSVtdRSk49dwjzUVdWiOy6aQk2WYUpiR+JLqULuI9TgIorIcbixjP4Sm4Dc9QREqW31wxdky5vU1h00WdDY7zlmgQrQNBzn6TSacWAxJHZMtykg0n4jTSmT1cB8R1Qel50dK3c9sgbZmQW+uo++v3HF25ZkAH922l6aVLcLIAiA8AH6r7OXAD3XfsAH37n59oO1tTO1YnWiYbOyB2D9pVJ0g2G8dWpE8btx7w3mJCUdOee+qQgqVo55Tq/ImdLzRDrTPCeqzjdh7g1sSA6rbOJ2e/Wb0PL7cF7jZaaXscTqHONUn8utBxRBxj0q7WoXFSTQ0QUVPXMzMzTV+69yjtuHEbThIA8QHgo+D43Xvpuedfphd++YYG4/mCXPQ0OM/uwpeSSOAlaUA7G3CKQC/d5+k5PjkeNjDcL006GVAl436460HP89TQPtU9FR9X544GVmTqC+vtlkUoC5DV2VjzUBY8HzQbT7LV2MGU0uRNOx6QOp46CR9PJq2D1vzoxzlNfGjiau10WMz4vXGsy8ROj4drYgu6de8mOrAHy20A4gPAR8a111xFDx4/TH/61W9KR4A870Y25+1x7n5d2FKZxWJ4mJzTIk3eHypdNqulaYGmU3vJZjPxMSsjrWyssag4Dup0wDbx0RTrrEGVxJtYfKStjrNYT9DOByw6LEp16DzPnI4Up5qoiouLWi/kOzN9vK3+scCuXr2a7jh6gK6+ah1ODgDxAeCj5Njtu+m1116nr33jMRWLutIPaHtrbX8TOSetlJk9UZxQpGJUa0eEvtf+a8ntOO5swJ15ilJfyzEensPDE1O9a0YUqNS0vd3k1vY3WW455sMeS2qOosZ0qLKPVxb7qSxrrRJH5KgVGxUhW7az/S6os5Llu+b9eFq13NHvfHk/3bx3B04KAPEB4FLwwH1H6H/ePEXf/+Gz5j4s/Vi6T+tiG6dQa51MmxWnKdNBRCuQXsxr3/aM83Lfy+ubdjoud7HO9UUqOsFEKBebuuy4kvhkQRLnE/NAPE21DqEVGRdC45xkmc5EJ88FGutgbfVFvHF2273HDtLhW3bjZAAQHwAuFauvWEEPP3gbvfPOSfrpif/ScQekrXU8cfdqbWXjzA3piASN2fhgM3l8LQWlsowVbBYQX/gLXoIbNY7H5ZiP9dWRptrOyVdR4bMYUG3LYzkBobZ6INJu1H3rSk2Wiu2aUdlVU5warS2PFKlS2SQX6HFwT7dIg6mS7r5tKx27Yw9dsWolTgYA8QHgUrJ1y0b6vYeP0akz36Hnf/lq44AaMYhtfY46GO3V5nPLHKLGGenyWiH7xZk4dU7yeSgsKj6+Iz7dmE/bVSE7FhuFUHVEZmwmT2iPO3RuKYzN6uFD4Pqjm/dtp+NfOELXXrMRJwGA+ADwcbBn5xb6g9+9i/78r/6RXnr5Lc04I+29xjOAot2KA3EqKrWso1Uyh0dEJuRu1V5iPi7Hekr7tcnLbIXFfhqRyfJjtTdNo7XYafsT21HZtl9iPxYjkolEMY/KziI00pSGzrqeLLX1a9q3azM99MWDtOOGLfjhA4gPAB8nB2/eQXXw9Bd/+wi98OJrTa+1YIF6MmdD5li4TY50BsgiYp0Nmm7VllHQPDQxslW0RnyoKz5miTS2ZEWg1vEgWkJE6DQezQkKqlW5jqduXi9ZbZbgwMfBjmffrs/RQw8cpX17d+GHDiA+AHwSuPXgjTQYePrrv/8n+smJF9PF27fLYDwdVDoCaJTGy9yeTv1OcNJINAfzY7CsNiob58OfimcD5cQFFTJ7bMtj4mKaWUOxSUTIKdMcA3LZGYXQOCWuA8qxHRUdEy1fpiP2NNUPdPSWLfTlL92RhGcPftgA4gPAJ4l9u7fTzPQ0/c3Xv0vfe/Q/dT6OWRVtRGrLbmVbpKm3vnFFamDi2ONowhTieEcFaup9WvFxJj552U2NlD6P65Ioi48UxeZOCfXYaAZJnnDaPmhqMEXHj+2i++87QjdsRwcDAPEB4BPJ9us30R9/5UHauGYZ/d0//EDa4tQW+JdRCTHm3qPa3NPcjiYk2DKaPc4Lb44m2ul4P55g4PLynnmWznjrsfHfednNxIpFKdjyW5EbVMt/dfoSgVbMRPr937qT7vvC52ndOhSRAogPAJ9o1q5ZTX/4ld+mjZs20te/8a/08xdfHXMeuRN0jN00Zm2fk/1MFh+9nXBCMcdqTFRMfNyY0LTi02ashWboHMNFo/nzuNAeR1F42rtrC/3mFw/RvffcjR8ogPgA8Gni/vsO07Yta+lbj3w/idAPJZbDF/+6ibX4RlDkwt/JeouNC3Ht83Kxqo3X9tSO1dau07kdj3UscBO934ia5T+moLYxKR8Sd8deOhXp4YfupHuP3UXbtl2PHyKA+ADwaWTbtq30J2nbu+sG+vYjj9MPHnuu7YJNcaKIM4tJm2WmYtQ6HXmdvSR0xKjZIdYqWqcDGktIyK6oaUyaJ6Am0eFstruO7KLj9xyiu+48ih8cgPgA8Fng83ceof17d9K/Pfoj+s6/PEZPPvUCdxpNgtJrerXlZTZpBEqdxILobXmNxpwST0nl2E6VG32G1sk0YiXD5izbLerIbk1A4K9R01TadestN9E9dx+h248cppUr0bEAQHwA+EzBF/YH7j9OR48epscff4q+9+hP6JHvPkPRZYdiy26+je1o6rXVDVEcc0ku6vJbXlSLE+IT8mRTV7dxoKiD7orC0fG7k8s5up8OHTpAsxAd8BnFdf9iez90lyc+iXiNInMhxyBtPMR+WdpWpG1V2lanbc3c3Nyf4VQAXZ5++hn68VNP02NPPEPPnHhJumFLYwHujhAnGos2MZ3WEemyXN06HWpHLORUbBcrKri7gq9o986tdFsSm4MH9tO+fajZAZ9Npqen/yjdvJW2tyE+EB/wHqRzg3723M/pxLO/SCL0vAjRm796d0xs2tTq3OU6p2a3QaCu6PDtmtUraf/urbRn1zbaufMG2nHTjfyLiW84uGzEB8tuALz3LwsduHmfbMw777xD//3yy/TKK6/Rq6++Tq+//ga98cav6a1fv01vnzxFp0/P0agcUb/fp2XLltAVsytp7ZWztH79Wtq4YT1t2rSRrrlmE127eTOtWrUK32Bw2QLxAeAiYMHgbe8eLI0B8EHw+BYAAACA+AAAAID4AAAAABAfAAAAEB8AAAAA4gMAAADiAwAAAEB8AAAAQHwAAABAfAAAAACIDwAAAIgPAAAAAPEBAAAA8QEAAAAgPgAAACA+AAAAAMQHAAAAxAcAAADEBwAAAID4AAAAgPgAAAAAEB8AAAAQHwAAAADiAwAAAOIDAAAA4gMAAABAfAAAAEB8AAAAAIgPAAAAiA8AAAAA8QEAAADxAQAAACA+AAAAID4AAAAgPgAAAADEBwAAAMQHAAAAgPgAAACA+AAAAAAQHyV2bmPnMQAAgI/++iubvwzfNBPsPt/WOB8AAOCSUOfr7+XofLLw8Dehsg0AAMBHT77m1peL+MSO08nCk8VnhPMBAAAuCaPLSXwmYzxZeErbID4AAHDpxEeuvZej8+kutw3TtoDzAQAALgkLdt2tLlfxyY6HvwnzOB8AAOCSMG/X3ZFLfNbfLL/BwrYp25akbWnaptO2LG0z9nhJ5zk9e43D+QIAABf1x343pj4yx8PCcyZtp9M217vMnE/+hpQmKllYalPjQdr6Jjy8eYgPAABc9PU2UBveKO36mleaeFvoXWbfjNoEZbSISo/sm9LvOCUH8QEAgPf9x34Oc2QXlOPso/8XYABWN6FX3hB9EAAAAABJRU5ErkJggg==;" vertex="1" parent="1">
          <mxGeometry x="360" y="220" width="26.78" height="30" as="geometry" />
        </mxCell>
        <mxCell id="yA5KAvl37-WxbWNlHDcd-10" value="OpenECAD" style="text;html=1;align=center;verticalAlign=middle;whiteSpace=wrap;rounded=0;fontFamily=Courier New;fontStyle=0;fontSize=20;fontColor=#EA6B66;" vertex="1" parent="1">
          <mxGeometry x="170" y="200" width="90" height="30" as="geometry" />
        </mxCell>
      </root>
    </mxGraphModel>
  </diagram>
</mxfile>
